<?xml version="1.0" encoding="UTF-8"?>
<svg xmlns="http://www.w3.org/2000/svg" xmlns:xlink="http://www.w3.org/1999/xlink" width="920px" height="615px" viewBox="0 0 500 171" version="1.1">
<defs>
<filter id="alpha" filterUnits="objectBoundingBox" x="0%" y="0%" width="100%" height="100%">
  <feColorMatrix type="matrix" in="SourceGraphic" values="0 0 0 0 1 0 0 0 0 1 0 0 0 0 1 0 0 0 1 0"/>
</filter>
<mask id="mask0">
  <g filter="url(#alpha)">
<rect x="0" y="0" width="500" height="171" style="fill:rgb(0%,0%,0%);fill-opacity:0.00784314;stroke:none;"/>
  </g>
</mask>
<clipPath id="clip1">
  <rect x="0" y="0" width="500" height="172"/>
</clipPath>
<g id="surface5" clip-path="url(#clip1)">
<path style=" stroke:none;fill-rule:evenodd;fill:rgb(99.607843%,26.27451%,96.470588%);fill-opacity:1;" d="M 191.03125 25.996094 C 191.757812 26.183594 191.757812 26.183594 191.03125 25.996094 Z M 191.03125 25.996094 "/>
</g>
<mask id="mask1">
  <g filter="url(#alpha)">
<rect x="0" y="0" width="500" height="171" style="fill:rgb(0%,0%,0%);fill-opacity:0.00392157;stroke:none;"/>
  </g>
</mask>
<clipPath id="clip2">
  <rect x="0" y="0" width="500" height="172"/>
</clipPath>
<g id="surface8" clip-path="url(#clip2)">
<path style=" stroke:none;fill-rule:evenodd;fill:rgb(99.607843%,52.54902%,96.470588%);fill-opacity:1;" d="M 129.074219 32.113281 C 129.257812 32.300781 129.4375 32.484375 129.621094 32.671875 C 128.574219 32.613281 128.394531 32.425781 129.074219 32.113281 Z M 129.074219 32.113281 "/>
</g>
<mask id="mask2">
  <g filter="url(#alpha)">
<rect x="0" y="0" width="500" height="171" style="fill:rgb(0%,0%,0%);fill-opacity:0.00392157;stroke:none;"/>
  </g>
</mask>
<clipPath id="clip3">
  <rect x="0" y="0" width="500" height="172"/>
</clipPath>
<g id="surface11" clip-path="url(#clip3)">
<path style=" stroke:none;fill-rule:evenodd;fill:rgb(100%,47.45098%,95.294118%);fill-opacity:1;" d="M 123.640625 33.503906 C 123.675781 33.355469 123.855469 33.261719 124.183594 33.226562 C 124.554688 33.433594 124.917969 33.617188 125.273438 33.78125 C 125.238281 33.933594 125.058594 34.027344 124.726562 34.0625 C 124.359375 33.855469 123.996094 33.667969 123.640625 33.503906 Z M 123.640625 33.503906 "/>
</g>
<mask id="mask3">
  <g filter="url(#alpha)">
<rect x="0" y="0" width="500" height="171" style="fill:rgb(0%,0%,0%);fill-opacity:0.00392157;stroke:none;"/>
  </g>
</mask>
<clipPath id="clip4">
  <rect x="0" y="0" width="500" height="172"/>
</clipPath>
<g id="surface14" clip-path="url(#clip4)">
<path style=" stroke:none;fill-rule:evenodd;fill:rgb(99.607843%,52.54902%,96.470588%);fill-opacity:1;" d="M 215.488281 59.640625 C 215.125 59.828125 214.765625 60.011719 214.402344 60.199219 C 214.105469 60.179688 213.925781 60.089844 213.859375 59.917969 C 214.308594 59.671875 214.851562 59.582031 215.488281 59.640625 Z M 215.488281 59.640625 "/>
</g>
<mask id="mask4">
  <g filter="url(#alpha)">
<rect x="0" y="0" width="500" height="171" style="fill:rgb(0%,0%,0%);fill-opacity:0.00392157;stroke:none;"/>
  </g>
</mask>
<clipPath id="clip5">
  <rect x="0" y="0" width="500" height="172"/>
</clipPath>
<g id="surface17" clip-path="url(#clip5)">
<path style=" stroke:none;fill-rule:evenodd;fill:rgb(99.607843%,52.54902%,96.470588%);fill-opacity:1;" d="M 426.902344 73.265625 C 426.902344 73.359375 426.902344 73.453125 426.902344 73.542969 C 426.277344 73.933594 425.734375 73.886719 425.273438 73.40625 C 425.785156 73.269531 426.332031 73.222656 426.902344 73.265625 Z M 426.902344 73.265625 "/>
</g>
<mask id="mask5">
  <g filter="url(#alpha)">
<rect x="0" y="0" width="500" height="171" style="fill:rgb(0%,0%,0%);fill-opacity:0.101961;stroke:none;"/>
  </g>
</mask>
<clipPath id="clip6">
  <rect x="0" y="0" width="500" height="172"/>
</clipPath>
<g id="surface20" clip-path="url(#clip6)">
<path style=" stroke:none;fill-rule:evenodd;fill:rgb(100%,41.176471%,96.470588%);fill-opacity:1;" d="M 406.792969 74.101562 C 407.335938 74.101562 407.878906 74.101562 408.425781 74.101562 C 408.425781 74.191406 408.425781 74.285156 408.425781 74.378906 C 407.402344 74.613281 406.316406 74.703125 405.164062 74.65625 C 405.707031 74.46875 406.25 74.285156 406.792969 74.101562 Z M 406.792969 74.101562 "/>
</g>
<mask id="mask6">
  <g filter="url(#alpha)">
<rect x="0" y="0" width="500" height="171" style="fill:rgb(0%,0%,0%);fill-opacity:0.101961;stroke:none;"/>
  </g>
</mask>
<clipPath id="clip7">
  <rect x="0" y="0" width="500" height="172"/>
</clipPath>
<g id="surface23" clip-path="url(#clip7)">
<path style=" stroke:none;fill-rule:evenodd;fill:rgb(100%,40.784314%,96.470588%);fill-opacity:1;" d="M 416.574219 73.820312 C 416.871094 73.839844 417.050781 73.929688 417.121094 74.101562 C 416.140625 74.457031 415.238281 74.457031 414.402344 74.101562 C 415.269531 74.175781 415.996094 74.082031 416.574219 73.820312 Z M 416.574219 73.820312 "/>
</g>
<mask id="mask7">
  <g filter="url(#alpha)">
<rect x="0" y="0" width="500" height="171" style="fill:rgb(0%,0%,0%);fill-opacity:0.00392157;stroke:none;"/>
  </g>
</mask>
<clipPath id="clip8">
  <rect x="0" y="0" width="500" height="172"/>
</clipPath>
<g id="surface26" clip-path="url(#clip8)">
<path style=" stroke:none;fill-rule:evenodd;fill:rgb(99.607843%,52.54902%,96.470588%);fill-opacity:1;" d="M 70.925781 76.324219 C 70.925781 76.230469 70.925781 76.140625 70.925781 76.046875 C 71.546875 75.660156 72.089844 75.703125 72.554688 76.183594 C 72.039062 76.320312 71.496094 76.367188 70.925781 76.324219 Z M 70.925781 76.324219 "/>
</g>
<mask id="mask8">
  <g filter="url(#alpha)">
<rect x="0" y="0" width="500" height="171" style="fill:rgb(0%,0%,0%);fill-opacity:0.101961;stroke:none;"/>
  </g>
</mask>
<clipPath id="clip9">
  <rect x="0" y="0" width="500" height="172"/>
</clipPath>
<g id="surface29" clip-path="url(#clip9)">
<path style=" stroke:none;fill-rule:evenodd;fill:rgb(100%,42.352941%,96.470588%);fill-opacity:1;" d="M 96.46875 77.714844 C 97.21875 77.9375 97.128906 78.125 96.195312 78.269531 C 95.78125 78.25 95.507812 78.160156 95.378906 77.992188 C 95.917969 78.039062 96.28125 77.949219 96.46875 77.714844 Z M 96.46875 77.714844 "/>
</g>
<mask id="mask9">
  <g filter="url(#alpha)">
<rect x="0" y="0" width="500" height="171" style="fill:rgb(0%,0%,0%);fill-opacity:0.101961;stroke:none;"/>
  </g>
</mask>
<clipPath id="clip10">
  <rect x="0" y="0" width="500" height="172"/>
</clipPath>
<g id="surface32" clip-path="url(#clip10)">
<path style=" stroke:none;fill-rule:evenodd;fill:rgb(100%,38.431373%,96.470588%);fill-opacity:1;" d="M 454.074219 82.71875 C 454.261719 82.953125 454.625 83.046875 455.164062 82.996094 C 454.679688 83.351562 454.136719 83.351562 453.53125 82.996094 C 453.601562 82.828125 453.78125 82.734375 454.074219 82.71875 Z M 454.074219 82.71875 "/>
</g>
<mask id="mask10">
  <g filter="url(#alpha)">
<rect x="0" y="0" width="500" height="171" style="fill:rgb(0%,0%,0%);fill-opacity:0.101961;stroke:none;"/>
  </g>
</mask>
<clipPath id="clip11">
  <rect x="0" y="0" width="500" height="172"/>
</clipPath>
<g id="surface35" clip-path="url(#clip11)">
<path style=" stroke:none;fill-rule:evenodd;fill:rgb(100%,33.333333%,96.470588%);fill-opacity:1;" d="M 418.75 98.847656 C 419.113281 99.21875 419.472656 99.21875 419.835938 98.847656 C 420.328125 99.042969 420.507812 99.320312 420.378906 99.679688 C 420.019531 99.679688 419.65625 99.679688 419.292969 99.679688 C 418.972656 99.5 418.609375 99.3125 418.207031 99.125 C 418.273438 98.957031 418.453125 98.863281 418.75 98.847656 Z M 418.75 98.847656 "/>
</g>
<mask id="mask11">
  <g filter="url(#alpha)">
<rect x="0" y="0" width="500" height="171" style="fill:rgb(0%,0%,0%);fill-opacity:0.00392157;stroke:none;"/>
  </g>
</mask>
<clipPath id="clip12">
  <rect x="0" y="0" width="500" height="172"/>
</clipPath>
<g id="surface38" clip-path="url(#clip12)">
<path style=" stroke:none;fill-rule:evenodd;fill:rgb(99.607843%,52.54902%,96.470588%);fill-opacity:1;" d="M 54.074219 101.90625 C 54.074219 102.089844 54.257812 102.183594 54.621094 102.183594 C 54.585938 102.332031 54.40625 102.425781 54.074219 102.460938 C 53.382812 102.25 53.382812 102.066406 54.074219 101.90625 Z M 54.074219 101.90625 "/>
</g>
<mask id="mask12">
  <g filter="url(#alpha)">
<rect x="0" y="0" width="500" height="171" style="fill:rgb(0%,0%,0%);fill-opacity:0.00392157;stroke:none;"/>
  </g>
</mask>
<clipPath id="clip13">
  <rect x="0" y="0" width="500" height="172"/>
</clipPath>
<g id="surface41" clip-path="url(#clip13)">
<path style=" stroke:none;fill-rule:evenodd;fill:rgb(99.607843%,52.54902%,96.470588%);fill-opacity:1;" d="M 51.902344 102.183594 C 51.902344 102.367188 52.082031 102.460938 52.445312 102.460938 C 52.414062 102.613281 52.230469 102.703125 51.902344 102.738281 C 51.210938 102.527344 51.210938 102.34375 51.902344 102.183594 Z M 51.902344 102.183594 "/>
</g>
<mask id="mask13">
  <g filter="url(#alpha)">
<rect x="0" y="0" width="500" height="171" style="fill:rgb(0%,0%,0%);fill-opacity:0.00392157;stroke:none;"/>
  </g>
</mask>
<clipPath id="clip14">
  <rect x="0" y="0" width="500" height="172"/>
</clipPath>
<g id="surface44" clip-path="url(#clip14)">
<path style=" stroke:none;fill-rule:evenodd;fill:rgb(99.607843%,52.54902%,96.470588%);fill-opacity:1;" d="M 61.683594 105.796875 C 62.160156 105.761719 62.523438 105.855469 62.773438 106.074219 C 61.515625 106.457031 61.15625 106.363281 61.683594 105.796875 Z M 61.683594 105.796875 "/>
</g>
<mask id="mask14">
  <g filter="url(#alpha)">
<rect x="0" y="0" width="500" height="171" style="fill:rgb(0%,0%,0%);fill-opacity:0.00392157;stroke:none;"/>
  </g>
</mask>
<clipPath id="clip15">
  <rect x="0" y="0" width="500" height="172"/>
</clipPath>
<g id="surface47" clip-path="url(#clip15)">
<path style=" stroke:none;fill-rule:evenodd;fill:rgb(99.607843%,52.54902%,96.470588%);fill-opacity:1;" d="M 107.335938 107.1875 C 108.605469 107.1875 109.875 107.1875 111.140625 107.1875 C 111.140625 107.28125 111.140625 107.375 111.140625 107.464844 C 110.347656 107.445312 109.625 107.539062 108.96875 107.742188 C 108.425781 107.558594 107.878906 107.375 107.335938 107.1875 Z M 107.335938 107.1875 "/>
</g>
<mask id="mask15">
  <g filter="url(#alpha)">
<rect x="0" y="0" width="500" height="171" style="fill:rgb(0%,0%,0%);fill-opacity:0.101961;stroke:none;"/>
  </g>
</mask>
<clipPath id="clip16">
  <rect x="0" y="0" width="500" height="172"/>
</clipPath>
<g id="surface50" clip-path="url(#clip16)">
<path style=" stroke:none;fill-rule:evenodd;fill:rgb(100%,38.431373%,96.470588%);fill-opacity:1;" d="M 432.335938 107.464844 C 432.523438 108.015625 432.160156 108.386719 431.25 108.578125 C 431.515625 108.164062 431.878906 107.792969 432.335938 107.464844 Z M 432.335938 107.464844 "/>
</g>
<mask id="mask16">
  <g filter="url(#alpha)">
<rect x="0" y="0" width="500" height="171" style="fill:rgb(0%,0%,0%);fill-opacity:0.0784314;stroke:none;"/>
  </g>
</mask>
<clipPath id="clip17">
  <rect x="0" y="0" width="500" height="172"/>
</clipPath>
<g id="surface53" clip-path="url(#clip17)">
<path style=" stroke:none;fill-rule:evenodd;fill:rgb(100%,29.411765%,96.470588%);fill-opacity:1;" d="M 350.816406 113.304688 C 354.367188 112.949219 357.992188 112.949219 361.683594 113.304688 C 358.183594 113.34375 354.558594 113.34375 350.816406 113.304688 Z M 350.816406 113.304688 "/>
</g>
<mask id="mask17">
  <g filter="url(#alpha)">
<rect x="0" y="0" width="500" height="171" style="fill:rgb(0%,0%,0%);fill-opacity:0.00392157;stroke:none;"/>
  </g>
</mask>
<clipPath id="clip18">
  <rect x="0" y="0" width="500" height="172"/>
</clipPath>
<g id="surface56" clip-path="url(#clip18)">
<path style=" stroke:none;fill-rule:evenodd;fill:rgb(99.607843%,52.54902%,96.470588%);fill-opacity:1;" d="M 378.53125 124.425781 C 378.71875 124.660156 379.082031 124.753906 379.621094 124.703125 C 379.039062 124.964844 378.316406 125.058594 377.445312 124.984375 C 377.445312 124.890625 377.445312 124.796875 377.445312 124.703125 C 377.808594 124.613281 378.171875 124.519531 378.53125 124.425781 Z M 378.53125 124.425781 "/>
</g>
<mask id="mask18">
  <g filter="url(#alpha)">
<rect x="0" y="0" width="500" height="171" style="fill:rgb(0%,0%,0%);fill-opacity:0.00392157;stroke:none;"/>
  </g>
</mask>
<clipPath id="clip19">
  <rect x="0" y="0" width="500" height="172"/>
</clipPath>
<g id="surface59" clip-path="url(#clip19)">
<path style=" stroke:none;fill-rule:evenodd;fill:rgb(99.607843%,52.54902%,96.470588%);fill-opacity:1;" d="M 243.75 125.539062 C 244.441406 125.699219 244.441406 125.882812 243.75 126.09375 C 243.226562 125.964844 243.226562 125.777344 243.75 125.539062 Z M 243.75 125.539062 "/>
</g>
</defs>
<g id="surface1">
<path style=" stroke:none;fill-rule:evenodd;fill:rgb(100%,2.745098%,91.372549%);fill-opacity:1;" d="M 191.03125 25.996094 C 182.503906 28.175781 174.351562 30.632812 166.574219 33.367188 C 167.316406 34.261719 168.132812 35.144531 169.023438 36.007812 C 174.960938 33.816406 181.574219 32.519531 188.859375 32.113281 C 190.65625 32.300781 192.46875 32.4375 194.292969 32.53125 C 195.339844 32.925781 196.0625 33.4375 196.46875 34.0625 C 198.453125 33.253906 200.714844 32.789062 203.261719 32.671875 C 205.710938 33.183594 208.15625 33.695312 210.597656 34.199219 C 216.300781 33.984375 222.007812 34.03125 227.71875 34.339844 C 229.707031 34.371094 231.609375 34.1875 233.425781 33.78125 C 233.785156 33.109375 233.96875 32.460938 233.96875 31.835938 C 234.78125 32.667969 235.59375 33.503906 236.414062 34.339844 C 241.964844 36.53125 246.949219 38.988281 251.359375 41.707031 C 252.136719 41.835938 252.769531 42.070312 253.261719 42.402344 C 253.5 41.796875 254.042969 41.613281 254.890625 41.847656 C 254.453125 42.90625 254.816406 43.925781 255.976562 44.90625 C 259.46875 46.691406 262.550781 48.636719 265.21875 50.742188 C 267.257812 51.835938 269.703125 52.625 272.554688 53.105469 C 274.085938 53.839844 275.351562 54.675781 276.359375 55.609375 C 278.957031 56.390625 281.402344 57.269531 283.695312 58.25 C 295.21875 58.28125 306.722656 58.1875 318.207031 57.972656 C 311.378906 53.042969 303.046875 48.917969 293.207031 45.601562 C 288.234375 44.535156 283.523438 43.238281 279.074219 41.707031 C 276.261719 41.207031 273.363281 40.929688 270.378906 40.875 C 266.09375 40.171875 262.382812 39.011719 259.238281 37.398438 C 256.761719 34.285156 258.84375 32.617188 265.488281 32.394531 C 268.683594 32.488281 271.582031 33 274.183594 33.921875 C 276.792969 35.859375 279.875 37.574219 283.425781 39.066406 C 287.550781 39.921875 290.992188 41.265625 293.75 43.097656 C 294.699219 43.230469 295.605469 43.414062 296.46875 43.652344 C 302.5 46.644531 308.386719 49.65625 314.128906 52.691406 C 316.289062 54.398438 318.554688 56.066406 320.925781 57.695312 C 325.113281 57.9375 329.28125 57.800781 333.425781 57.277344 C 336.386719 57.027344 339.285156 57.121094 342.121094 57.554688 C 340.671875 58.097656 340.492188 58.605469 341.574219 59.085938 C 342.886719 58.96875 344.152344 58.785156 345.378906 58.527344 C 344.417969 57.957031 343.332031 57.449219 342.121094 57 C 342.71875 56.714844 343.441406 56.578125 344.292969 56.582031 C 346.671875 56.726562 349.027344 56.914062 351.359375 57.140625 C 352.894531 56.765625 354.34375 56.855469 355.707031 57.417969 C 357.304688 57.222656 358.84375 56.945312 360.324219 56.582031 C 361.050781 56.769531 361.777344 56.953125 362.5 57.140625 C 364.109375 56.714844 365.832031 56.480469 367.664062 56.445312 C 376.53125 56.074219 385.410156 55.886719 394.292969 55.886719 C 394.566406 56.027344 394.835938 56.164062 395.109375 56.304688 C 401.691406 55.878906 408.304688 55.507812 414.945312 55.191406 C 416.574219 55.285156 418.207031 55.378906 419.835938 55.472656 C 415.9375 56.066406 411.949219 56.484375 407.878906 56.722656 C 414.132812 56.742188 420.382812 56.695312 426.628906 56.582031 C 427.570312 56.902344 427.476562 57.226562 426.359375 57.554688 C 424.460938 57.996094 422.648438 58.503906 420.925781 59.085938 C 421.992188 59.304688 423.078125 59.492188 424.183594 59.640625 C 425.054688 59.609375 425.960938 59.519531 426.902344 59.363281 C 427.59375 59.601562 427.503906 59.789062 426.628906 59.917969 C 425.644531 60.082031 424.648438 60.21875 423.640625 60.335938 C 424.253906 60.40625 424.796875 60.542969 425.273438 60.753906 C 420.761719 60.914062 416.414062 61.421875 412.226562 62.28125 C 412.953125 62.375 413.675781 62.46875 414.402344 62.5625 C 412.65625 62.882812 410.84375 63.066406 408.96875 63.117188 C 408.449219 63.316406 408.359375 63.546875 408.695312 63.8125 C 409.179688 63.476562 409.632812 63.476562 410.054688 63.8125 C 408.269531 64.042969 406.457031 64.179688 404.621094 64.230469 C 405.335938 64.617188 405.152344 64.894531 404.074219 65.0625 C 412.039062 65.203125 419.917969 65.066406 427.71875 64.644531 C 429.585938 64.582031 431.308594 64.765625 432.878906 65.203125 C 438.902344 65.027344 444.878906 64.65625 450.816406 64.089844 C 454.253906 64.332031 457.695312 64.378906 461.140625 64.230469 C 456.722656 64.941406 452.191406 65.40625 447.554688 65.621094 C 453.902344 65.664062 460.242188 65.804688 466.574219 66.035156 C 466.316406 66.308594 465.953125 66.539062 465.488281 66.730469 C 463.40625 67.164062 461.414062 67.671875 459.511719 68.261719 C 461.867188 68.445312 464.222656 68.632812 466.574219 68.816406 C 465.464844 69.238281 464.195312 69.46875 462.773438 69.511719 C 462.953125 69.605469 463.132812 69.699219 463.316406 69.789062 C 466.023438 69.90625 468.558594 70.273438 470.925781 70.902344 C 468.15625 71.132812 465.441406 71.039062 462.773438 70.625 C 462.953125 70.53125 463.132812 70.4375 463.316406 70.347656 C 459.195312 70.269531 455.207031 70.640625 451.359375 71.457031 C 451.808594 71.714844 452.351562 71.898438 452.988281 72.015625 C 450.625 71.992188 448.453125 72.269531 446.46875 72.847656 C 447.078125 72.917969 447.621094 73.058594 448.097656 73.265625 C 446.679688 73.492188 445.230469 73.632812 443.75 73.683594 C 442.984375 73.785156 442.441406 74.015625 442.121094 74.378906 C 446.625 74.714844 451.15625 74.949219 455.707031 75.074219 C 449.886719 75.898438 443.90625 76.363281 437.773438 76.464844 C 438.371094 76.746094 439.09375 76.886719 439.945312 76.878906 C 443.726562 76.96875 447.53125 76.875 451.359375 76.601562 C 452.445312 76.648438 453.53125 76.695312 454.621094 76.742188 C 453.863281 76.988281 453.957031 77.128906 454.890625 77.160156 C 455.695312 76.808594 456.601562 76.53125 457.609375 76.324219 C 459.355469 76.183594 461.074219 75.996094 462.773438 75.769531 C 462.953125 75.859375 463.132812 75.953125 463.316406 76.046875 C 462.269531 76.269531 461.183594 76.410156 460.054688 76.464844 C 462.953125 76.554688 465.851562 76.648438 468.75 76.742188 C 469.269531 77.058594 469.089844 77.339844 468.207031 77.574219 C 463.941406 78.019531 463.941406 78.296875 468.207031 78.410156 C 467.597656 78.699219 466.871094 78.886719 466.03125 78.964844 C 462.167969 79.640625 458.453125 79.5 454.890625 78.546875 C 453.175781 78.546875 453.085938 78.730469 454.621094 79.105469 C 453.988281 79.40625 453.261719 79.636719 452.445312 79.800781 C 448.453125 80.171875 444.46875 80.542969 440.488281 80.914062 C 439.839844 81.09375 439.839844 81.234375 440.488281 81.328125 C 442.746094 80.96875 445.011719 80.96875 447.28125 81.328125 C 449.894531 81.09375 452.523438 80.90625 455.164062 80.773438 C 455.164062 81.050781 455.164062 81.328125 455.164062 81.605469 C 456.300781 81.558594 457.386719 81.648438 458.425781 81.886719 C 459.695312 81.582031 459.695312 81.210938 458.425781 80.773438 C 458.605469 80.679688 458.785156 80.585938 458.96875 80.496094 C 459.511719 80.679688 460.054688 80.867188 460.597656 81.050781 C 461.246094 80.953125 461.246094 80.816406 460.597656 80.632812 C 463.21875 80.136719 465.757812 80.277344 468.207031 81.050781 C 467.574219 81.351562 466.847656 81.585938 466.03125 81.746094 C 463.320312 81.953125 460.605469 82.140625 457.878906 82.300781 C 455.671875 82.742188 455.761719 83.066406 458.152344 83.277344 C 459.484375 83 460.84375 82.953125 462.226562 83.136719 C 461.472656 83.382812 461.5625 83.523438 462.5 83.554688 C 465.878906 83.15625 469.230469 83.203125 472.554688 83.691406 C 471.472656 84.179688 470.203125 84.457031 468.75 84.527344 C 466.375 84.574219 464.019531 84.714844 461.683594 84.945312 C 462.132812 85.191406 462.675781 85.28125 463.316406 85.222656 C 463.5 85.773438 463.140625 86.144531 462.226562 86.335938 C 462.777344 86.894531 463.679688 87.265625 464.945312 87.445312 C 463.675781 87.816406 462.410156 88.1875 461.140625 88.558594 C 462.03125 88.964844 462.9375 89.058594 463.859375 88.835938 C 464.527344 89.15625 464.527344 89.480469 463.859375 89.808594 C 466.3125 89.949219 468.757812 89.902344 471.195312 89.671875 C 474.324219 89.742188 474.417969 90.066406 471.46875 90.644531 C 473.199219 91.011719 475.011719 91.148438 476.902344 91.0625 C 476.902344 91.339844 476.902344 91.617188 476.902344 91.894531 C 478.300781 91.796875 479.570312 91.9375 480.707031 92.3125 C 479.257812 92.496094 477.808594 92.683594 476.359375 92.867188 C 477.625 92.960938 478.894531 93.054688 480.164062 93.144531 C 479.183594 93.234375 479.003906 93.421875 479.621094 93.703125 C 482.125 94.4375 485.207031 94.996094 488.859375 95.371094 C 487.773438 95.648438 486.683594 95.925781 485.597656 96.203125 C 487.144531 97.191406 486.601562 97.746094 483.96875 97.875 C 477.816406 98.039062 471.929688 97.996094 466.304688 97.734375 C 463.183594 98.210938 460.011719 98.304688 456.792969 98.011719 C 454.058594 98.132812 451.339844 98.316406 448.640625 98.566406 C 449.1875 98.816406 449.1875 99.003906 448.640625 99.125 C 447.351562 98.496094 445.8125 98.214844 444.023438 98.289062 C 439.042969 98.644531 434.058594 98.644531 429.074219 98.289062 C 426.121094 97.902344 424.851562 98.457031 425.273438 99.957031 C 429.804688 100.085938 429.984375 100.316406 425.816406 100.652344 C 425.292969 100.972656 425.476562 101.25 426.359375 101.488281 C 422.550781 101.324219 418.746094 101.371094 414.945312 101.625 C 413.023438 101.617188 411.9375 101.25 411.683594 100.515625 C 411.179688 100.84375 411 101.214844 411.140625 101.625 C 409.648438 101.691406 408.199219 101.597656 406.792969 101.347656 C 406.613281 101.441406 406.429688 101.535156 406.25 101.625 C 410.445312 102.546875 410.445312 102.917969 406.25 102.738281 C 406.238281 103.195312 406.601562 103.566406 407.335938 103.851562 C 405.296875 104.199219 403.304688 104.613281 401.359375 105.101562 C 402.035156 105.507812 402.035156 105.925781 401.359375 106.355469 C 404.453125 106.691406 407.53125 106.648438 410.597656 106.214844 C 411.316406 105.46875 412.3125 105.328125 413.585938 105.796875 C 416.363281 105.464844 419.171875 105.230469 422.011719 105.101562 C 423.34375 104.902344 424.609375 104.621094 425.816406 104.269531 C 429.878906 104.542969 433.59375 104.035156 436.957031 102.738281 C 439.269531 103.042969 441.714844 103.042969 444.292969 102.738281 C 444.894531 103.054688 444.710938 103.285156 443.75 103.433594 C 446.238281 104.242188 448.140625 105.308594 449.457031 106.632812 C 449.625 108.054688 449.714844 109.441406 449.726562 110.800781 C 449.054688 111.019531 448.511719 111.296875 448.097656 111.636719 C 450.398438 112.1875 452.753906 112.371094 455.164062 112.191406 C 456.289062 112.28125 456.46875 112.515625 455.707031 112.886719 C 455.976562 113.027344 456.25 113.164062 456.523438 113.304688 C 457.5625 112.835938 458.738281 112.695312 460.054688 112.886719 C 459.171875 113.125 458.988281 113.402344 459.511719 113.722656 C 458.425781 113.816406 457.335938 113.90625 456.25 114 C 455.875 114.296875 455.601562 114.621094 455.433594 114.972656 C 452.535156 114.789062 449.636719 114.601562 446.738281 114.417969 C 443.148438 114.449219 439.34375 114.449219 435.324219 114.417969 C 434.566406 114.621094 433.75 114.757812 432.878906 114.835938 C 437.863281 115.785156 442.753906 116.804688 447.554688 117.894531 C 449.125 118.53125 448.851562 118.855469 446.738281 118.867188 C 444.265625 118.710938 441.820312 118.476562 439.402344 118.171875 C 436.621094 117.398438 433.722656 116.75 430.707031 116.222656 C 429.320312 115.988281 428.050781 116.082031 426.902344 116.503906 C 431.351562 118.5 435.609375 120.585938 439.675781 122.757812 C 440.566406 123.335938 441.199219 123.984375 441.574219 124.703125 C 441.285156 125.328125 440.5625 125.746094 439.402344 125.957031 C 437.574219 126.050781 435.765625 126.1875 433.96875 126.375 C 426.964844 125.925781 420.625 124.628906 414.945312 122.480469 C 413.03125 123.277344 412.125 124.25 412.226562 125.398438 C 421.15625 128.207031 430.214844 130.894531 439.402344 133.464844 C 438.089844 133.597656 436.824219 133.503906 435.597656 133.183594 C 432.863281 132.484375 430.144531 131.789062 427.445312 131.101562 C 427.082031 131.191406 426.722656 131.285156 426.359375 131.378906 C 422.734375 130.171875 419.113281 128.96875 415.488281 127.761719 C 414.941406 127.886719 414.941406 128.070312 415.488281 128.320312 C 415.214844 128.601562 414.855469 128.648438 414.402344 128.457031 C 413.222656 127.855469 412.046875 127.253906 410.871094 126.652344 C 409.316406 127.871094 408.046875 129.167969 407.066406 130.542969 C 406.296875 132.324219 405.390625 134.085938 404.347656 135.828125 C 403.199219 137.339844 401.117188 137.851562 398.097656 137.355469 C 395.023438 136.105469 391.761719 134.992188 388.316406 134.019531 C 383.046875 131.230469 377.609375 128.542969 372.011719 125.957031 C 361.441406 125.78125 350.9375 126.0625 340.488281 126.789062 C 336.527344 128.167969 333.082031 129.835938 330.164062 131.796875 C 326.980469 133.046875 323.355469 133.699219 319.292969 133.742188 C 316.574219 133.925781 313.859375 133.925781 311.140625 133.742188 C 310.539062 132.980469 310.449219 132.191406 310.871094 131.378906 C 314.457031 127.984375 317.902344 124.554688 321.195312 121.089844 C 321.488281 120.246094 321.851562 119.414062 322.28125 118.585938 C 323.984375 117.632812 325.34375 116.566406 326.359375 115.390625 C 322.902344 115.160156 319.460938 115.207031 316.03125 115.527344 C 313.929688 118.109375 310.488281 118.710938 305.707031 117.335938 C 304.835938 116.628906 304.109375 115.886719 303.53125 115.113281 C 302.15625 115.019531 300.796875 114.878906 299.457031 114.695312 C 296.671875 115 293.863281 115.046875 291.03125 114.835938 C 290.308594 114.648438 290.308594 114.464844 291.03125 114.277344 C 289.621094 114.214844 288.261719 114.078125 286.957031 113.859375 C 286.621094 114.125 286.710938 114.355469 287.226562 114.554688 C 286.15625 114.695312 285.070312 114.738281 283.96875 114.695312 C 284.738281 119.371094 280.753906 120.898438 272.011719 119.28125 C 269.582031 118.230469 268.402344 116.886719 268.476562 115.25 C 267.105469 114.808594 265.65625 114.4375 264.128906 114.140625 C 259.175781 114.671875 254.195312 114.761719 249.183594 114.417969 C 246.582031 114.25 245.132812 114.808594 244.835938 116.085938 C 245.210938 117.65625 245.484375 119.230469 245.652344 120.8125 C 246.796875 121.394531 247.429688 122.089844 247.554688 122.898438 C 246.4375 125.460938 246.074219 128.007812 246.46875 130.542969 C 246.613281 131.988281 246.160156 133.378906 245.109375 134.714844 C 244.925781 136.753906 244.746094 138.792969 244.566406 140.832031 C 243.164062 143.5 239.8125 144.75 234.511719 144.585938 C 233.988281 144.191406 233.535156 143.773438 233.152344 143.335938 C 231.84375 139.871094 234.015625 137.183594 239.675781 135.269531 C 240.058594 134.832031 240.511719 134.414062 241.03125 134.019531 C 235.667969 132.828125 234.128906 130.835938 236.414062 128.042969 C 237.878906 127.292969 239.324219 126.550781 240.761719 125.816406 C 242.179688 122.238281 242.996094 118.621094 243.207031 114.972656 C 236.683594 115.359375 230.160156 115.777344 223.640625 116.222656 C 225.996094 116.917969 228.351562 117.613281 230.707031 118.308594 C 233.71875 120.289062 234.171875 122.421875 232.066406 124.703125 C 227.609375 126.34375 223.625 126.066406 220.109375 123.871094 C 219.589844 123.15625 219.316406 122.414062 219.292969 121.644531 C 219.746094 120.257812 219.835938 118.867188 219.566406 117.476562 C 219.417969 116.96875 218.964844 116.550781 218.207031 116.222656 C 208.4375 116.382812 198.566406 116.617188 188.585938 116.917969 C 185.230469 116.785156 181.878906 116.738281 178.53125 116.78125 C 179.945312 118.644531 181.847656 120.359375 184.238281 121.925781 C 184.332031 120.511719 184.695312 119.121094 185.324219 117.753906 C 186.980469 119.132812 188.15625 120.617188 188.859375 122.203125 C 190.167969 122.46875 191.34375 122.839844 192.390625 123.316406 C 193.023438 124.476562 192.210938 125.265625 189.945312 125.679688 C 190.828125 127.476562 191.914062 129.234375 193.207031 130.960938 C 194.617188 131.089844 195.796875 130.855469 196.738281 130.265625 C 198.230469 128.644531 199.863281 127.070312 201.628906 125.539062 C 205 123.980469 208.710938 123.75 212.773438 124.84375 C 214.839844 125.980469 215.472656 127.324219 214.675781 128.875 C 211.054688 132 205.710938 133.109375 198.640625 132.210938 C 195.902344 132.324219 194.90625 133.066406 195.652344 134.4375 C 198.5 137.234375 201.039062 140.105469 203.261719 143.054688 C 204.398438 145.125 204.21875 147.164062 202.71875 149.171875 C 202.082031 149.496094 201.449219 149.820312 200.816406 150.144531 C 197.917969 150.796875 195.019531 151.445312 192.121094 152.09375 C 190.078125 153.132812 189.441406 154.382812 190.21875 155.847656 C 191.726562 157.882812 192.902344 159.96875 193.75 162.101562 C 193.148438 165.101562 191.609375 165.238281 189.128906 162.519531 C 190.554688 158.464844 188.742188 154.847656 183.695312 151.675781 C 181.421875 150.597656 179.339844 149.4375 177.445312 148.199219 C 178.796875 147.4375 180.425781 146.882812 182.335938 146.53125 C 183.046875 146.308594 183.40625 145.984375 183.425781 145.558594 C 181.875 143.78125 180.695312 141.929688 179.890625 139.996094 C 177.84375 138.800781 176.210938 138.894531 175 140.277344 C 174.636719 140.089844 174.277344 139.90625 173.914062 139.71875 C 171.285156 140.507812 168.660156 141.296875 166.03125 142.082031 C 163.953125 142.628906 161.777344 142.90625 159.511719 142.917969 C 164.222656 141.621094 168.753906 140.183594 173.097656 138.605469 C 172.652344 137.503906 171.835938 136.484375 170.652344 135.546875 C 170.136719 133.765625 169.410156 132.003906 168.476562 130.265625 C 168.050781 129.265625 168.140625 128.292969 168.75 127.347656 C 169.203125 127.15625 169.5625 127.203125 169.835938 127.484375 C 170.160156 127.84375 170.433594 128.214844 170.652344 128.597656 C 170.832031 130.359375 171.015625 132.121094 171.195312 133.878906 C 172.273438 135.222656 173.179688 136.613281 173.914062 138.050781 C 174.964844 138.140625 175.78125 137.863281 176.359375 137.21875 C 173.953125 130.375 170.332031 123.703125 165.488281 117.199219 C 159.519531 116.8125 153.628906 117 147.824219 117.753906 C 147.210938 117.445312 146.757812 117.539062 146.46875 118.03125 C 148.546875 119.691406 149.8125 121.5 150.273438 123.453125 C 150.085938 124.570312 149.179688 125.496094 147.554688 126.234375 C 148.636719 127.386719 150.179688 128.359375 152.175781 129.152344 C 152.988281 129.695312 153.078125 130.25 152.445312 130.820312 C 149.050781 129.78125 146.515625 128.34375 144.835938 126.511719 C 141.96875 126.0625 139.523438 125.273438 137.5 124.148438 C 134.949219 122.464844 132.953125 120.609375 131.523438 118.585938 C 130.972656 118.820312 130.339844 118.914062 129.621094 118.867188 C 129.820312 118.164062 129.367188 117.609375 128.261719 117.199219 C 126.527344 117.539062 124.804688 117.910156 123.097656 118.308594 C 122.121094 117.414062 120.851562 117.367188 119.292969 118.171875 C 113.273438 118.367188 107.113281 118.644531 100.816406 119.003906 C 101.253906 119.089844 101.617188 119.230469 101.902344 119.421875 C 101.207031 119.742188 100.484375 119.742188 99.726562 119.421875 C 98.703125 119.960938 97.613281 120.46875 96.46875 120.953125 C 92.941406 121.300781 92.035156 120.699219 93.75 119.144531 C 92.484375 118.804688 91.21875 118.804688 89.945312 119.144531 C 89.402344 118.957031 88.859375 118.773438 88.316406 118.585938 C 82.761719 118.820312 77.238281 119.191406 71.738281 119.699219 C 69.382812 119.328125 67.027344 119.328125 64.675781 119.699219 C 63.113281 119.5625 63.019531 119.375 64.402344 119.144531 C 67.683594 118.859375 70.945312 118.535156 74.183594 118.171875 C 68.363281 117.945312 62.566406 117.992188 56.792969 118.308594 C 56.199219 117.929688 56.378906 117.605469 57.335938 117.335938 C 65.46875 115.695312 65.195312 115.09375 56.523438 115.527344 C 56.148438 115.296875 56.238281 115.113281 56.792969 114.972656 C 57.851562 114.78125 58.9375 114.640625 60.054688 114.554688 C 59.417969 114.441406 58.875 114.253906 58.425781 114 C 64.550781 113.960938 69.988281 113.175781 74.726562 111.636719 C 75 111.941406 75.179688 112.222656 75.273438 112.472656 C 79.703125 111.714844 84.140625 111.34375 88.585938 111.359375 C 92.804688 111.035156 97.0625 110.757812 101.359375 110.523438 C 102.710938 110.441406 103.613281 110.070312 104.074219 109.414062 C 102.746094 109.019531 101.566406 109.113281 100.542969 109.691406 C 94.878906 109.371094 89.171875 109.324219 83.425781 109.550781 C 81.964844 109.691406 80.695312 110.015625 79.621094 110.523438 C 79.378906 110.191406 79.199219 109.867188 79.074219 109.550781 C 77.621094 109.429688 76.171875 109.476562 74.726562 109.691406 C 73.582031 109.695312 72.585938 109.507812 71.738281 109.132812 C 70.191406 109.464844 68.652344 109.464844 67.121094 109.132812 C 70.980469 108.675781 74.875 108.304688 78.804688 108.023438 C 80.121094 108.15625 81.296875 108.25 82.335938 108.300781 C 84.597656 107.835938 84.507812 107.558594 82.066406 107.464844 C 78.28125 107.414062 74.480469 107.507812 70.652344 107.742188 C 69.835938 107.699219 69.023438 107.652344 68.207031 107.605469 C 68.996094 107.488281 69.269531 107.253906 69.023438 106.910156 C 67.078125 107.335938 65.175781 107.800781 63.316406 108.300781 C 60.71875 107.824219 58.003906 107.59375 55.164062 107.605469 C 54.503906 107.355469 54.503906 107.125 55.164062 106.910156 C 56.511719 106.519531 57.960938 106.289062 59.511719 106.214844 C 58.0625 106.121094 56.613281 106.027344 55.164062 105.9375 C 58.339844 105.386719 61.601562 105.203125 64.945312 105.378906 C 65.613281 105.804688 66.429688 106.128906 67.390625 106.355469 C 68.269531 106.066406 68.359375 105.742188 67.664062 105.378906 C 68.113281 105.125 68.65625 104.941406 69.292969 104.824219 C 72.074219 104.519531 74.789062 104.332031 77.445312 104.269531 C 76.023438 103.527344 74.390625 103.296875 72.554688 103.574219 C 71.738281 103.585938 71.195312 103.402344 70.925781 103.015625 C 71.648438 102.738281 71.648438 102.460938 70.925781 102.183594 C 72.117188 101.832031 73.292969 101.832031 74.457031 102.183594 C 74.726562 102.042969 75 101.90625 75.273438 101.765625 C 71.597656 101.152344 68.15625 101.386719 64.945312 102.460938 C 64.15625 102.085938 63.796875 101.621094 63.859375 101.070312 C 62.773438 101.164062 61.683594 101.257812 60.597656 101.347656 C 60.566406 102.058594 59.839844 102.476562 58.425781 102.601562 C 55.910156 102.632812 53.554688 102.957031 51.359375 103.574219 C 50.089844 103.152344 49.726562 103.246094 50.273438 103.851562 C 48.671875 104.171875 47.039062 104.21875 45.378906 103.992188 C 48.429688 103.957031 48.792969 103.496094 46.46875 102.601562 C 44.136719 102.480469 41.871094 102.621094 39.675781 103.015625 C 39.582031 102.925781 39.492188 102.832031 39.402344 102.738281 C 39.878906 102.53125 40.421875 102.390625 41.03125 102.320312 C 39.039062 102.230469 37.046875 102.136719 35.054688 102.042969 C 35.777344 101.765625 36.503906 101.488281 37.226562 101.210938 C 39.503906 101.191406 41.679688 101.003906 43.75 100.652344 C 42.632812 100.566406 41.546875 100.429688 40.488281 100.238281 C 39.867188 98.976562 40.410156 98.839844 42.121094 99.820312 C 42.738281 100.027344 43.28125 99.980469 43.75 99.679688 C 42.664062 99.308594 41.574219 98.9375 40.488281 98.566406 C 40.601562 98.40625 40.785156 98.265625 41.03125 98.152344 C 40.125 98.058594 39.222656 97.964844 38.316406 97.875 C 39.949219 97.550781 41.398438 97.085938 42.664062 96.484375 C 41.964844 96.292969 41.332031 96.339844 40.761719 96.621094 C 39.882812 96.332031 39.792969 96.007812 40.488281 95.648438 C 39.359375 95.40625 38.179688 95.269531 36.957031 95.230469 C 33.976562 95.53125 30.988281 95.667969 27.988281 95.648438 C 29.027344 95.234375 30.113281 94.863281 31.25 94.535156 C 29.140625 94.207031 26.96875 94.019531 24.726562 93.980469 C 26.289062 93.730469 26.472656 93.5 25.273438 93.285156 C 23.910156 93.878906 22.460938 93.878906 20.925781 93.285156 C 22.242188 92.828125 23.691406 92.503906 25.273438 92.3125 C 23.839844 91.894531 22.390625 91.847656 20.925781 92.171875 C 20.324219 91.859375 20.503906 91.625 21.46875 91.476562 C 21.195312 91.429688 20.925781 91.386719 20.652344 91.339844 C 19.464844 91.46875 18.285156 91.5625 17.121094 91.617188 C 16.519531 91.300781 16.699219 91.070312 17.664062 90.921875 C 16.707031 90.105469 15.257812 89.640625 13.316406 89.53125 C 14.320312 89.300781 15.316406 89.066406 16.304688 88.835938 C 16.484375 88.40625 16.214844 88.035156 15.488281 87.722656 C 17.160156 87.230469 18.96875 86.90625 20.925781 86.75 C 23.132812 85.949219 22.769531 85.578125 19.835938 85.640625 C 20.085938 85.523438 20.265625 85.386719 20.378906 85.222656 C 16.8125 84.875 13.28125 84.96875 9.78125 85.5 C 9.511719 85.40625 9.238281 85.316406 8.96875 85.222656 C 9.875 84.851562 10.777344 84.480469 11.683594 84.109375 C 9.875 83.925781 8.0625 83.738281 6.25 83.554688 C 6.363281 83.390625 6.542969 83.25 6.792969 83.136719 C 5.589844 82.847656 4.320312 82.660156 2.988281 82.582031 C 4.015625 82.308594 5.105469 82.125 6.25 82.023438 C 4.398438 81.46875 2.40625 81.144531 0.273438 81.050781 C 0.402344 80.691406 0.21875 80.414062 -0.273438 80.21875 C -0.273438 79.105469 -0.273438 77.992188 -0.273438 76.878906 C 5.621094 76.449219 11.328125 76.539062 16.847656 77.160156 C 20.496094 76.585938 24.210938 76.492188 27.988281 76.878906 C 28.976562 76.839844 29.792969 76.652344 30.433594 76.324219 C 32.023438 76.59375 33.652344 76.59375 35.324219 76.324219 C 36.917969 76.402344 38.457031 76.585938 39.945312 76.878906 C 44.601562 76.441406 49.3125 76.207031 54.074219 76.183594 C 52.816406 75.449219 51.367188 74.800781 49.726562 74.238281 C 50.339844 74.167969 50.882812 74.03125 51.359375 73.820312 C 49.835938 73.652344 48.386719 73.421875 47.011719 73.125 C 48.777344 72.839844 50.589844 72.652344 52.445312 72.570312 C 53.082031 71.707031 52.8125 71.660156 51.628906 72.433594 C 50.324219 72.214844 48.964844 72.078125 47.554688 72.015625 C 47.035156 71.695312 47.214844 71.417969 48.097656 71.179688 C 46.648438 71.179688 45.199219 71.179688 43.75 71.179688 C 44.203125 70.898438 44.386719 70.574219 44.292969 70.207031 C 46.753906 69.667969 49.382812 69.296875 52.175781 69.09375 C 57.128906 69.546875 62.292969 69.683594 67.664062 69.511719 C 70.714844 68.917969 73.613281 68.175781 76.359375 67.289062 C 74.394531 67.042969 72.402344 66.902344 70.378906 66.871094 C 66.582031 67.121094 62.777344 67.167969 58.96875 67.007812 C 57.90625 65.882812 56.1875 65.1875 53.804688 64.925781 C 53.53125 65.0625 53.261719 65.203125 52.988281 65.339844 C 54.710938 65.503906 54.890625 65.78125 53.53125 66.175781 C 50.128906 66.21875 46.777344 66.449219 43.476562 66.871094 C 42.253906 66.835938 41.078125 66.695312 39.945312 66.453125 C 40.832031 66.316406 41.738281 66.269531 42.664062 66.316406 C 42.664062 66.035156 42.664062 65.757812 42.664062 65.480469 C 45.433594 65.554688 48.152344 65.554688 50.816406 65.480469 C 49.082031 65.175781 47.632812 64.667969 46.46875 63.953125 C 45.019531 63.859375 43.570312 63.765625 42.121094 63.671875 C 41.484375 63.558594 40.9375 63.371094 40.488281 63.117188 C 35.917969 63.074219 31.386719 62.84375 26.902344 62.421875 C 27.351562 62.15625 27.441406 61.878906 27.175781 61.585938 C 26.089844 62.109375 24.914062 62.203125 23.640625 61.867188 C 24.261719 61.609375 24.261719 61.375 23.640625 61.171875 C 24.945312 61.117188 26.214844 60.980469 27.445312 60.753906 C 27.160156 60.5625 26.796875 60.421875 26.359375 60.335938 C 28.683594 60.070312 31.039062 59.933594 33.425781 59.917969 C 44.300781 60.273438 55.171875 60.273438 66.03125 59.917969 C 66.03125 59.550781 66.03125 59.179688 66.03125 58.808594 C 67.003906 58.726562 67.910156 58.820312 68.75 59.085938 C 68.570312 59.269531 68.386719 59.457031 68.207031 59.640625 C 75.753906 60.234375 83.179688 60.558594 90.488281 60.613281 C 87.449219 58.898438 86.996094 57 89.128906 54.914062 C 89.839844 54.320312 90.65625 53.761719 91.574219 53.246094 C 89.742188 52.449219 88.023438 51.613281 86.414062 50.742188 C 85.898438 49.179688 85.625 47.601562 85.597656 46.015625 C 78.355469 46.273438 71.109375 46.414062 63.859375 46.433594 C 59.230469 45.636719 57.691406 44.015625 59.238281 41.566406 C 62.917969 39.996094 66.359375 40.089844 69.566406 41.847656 C 70.597656 42.875 71.414062 43.941406 72.011719 45.042969 C 75.84375 45.398438 79.648438 45.398438 83.425781 45.042969 C 81.535156 43.804688 79.992188 42.460938 78.804688 41.011719 C 78.078125 40.640625 77.355469 40.269531 76.628906 39.898438 C 76.421875 38.746094 75.878906 37.632812 75 36.5625 C 71.316406 32.886719 67.785156 29.179688 64.402344 25.441406 C 64.660156 25.167969 65.023438 24.9375 65.488281 24.746094 C 72.714844 24.003906 79.234375 24.742188 85.054688 26.972656 C 88.597656 28.644531 92.21875 30.265625 95.925781 31.835938 C 97.058594 31.414062 97.964844 31.503906 98.640625 32.113281 C 106.425781 32.34375 114.21875 32.527344 122.011719 32.671875 C 123.886719 32.691406 125.699219 32.554688 127.445312 32.253906 C 135.160156 28.023438 143.675781 24.316406 152.988281 21.132812 C 156.007812 20.636719 158.09375 21.148438 159.238281 22.660156 C 160.019531 24.152344 160.835938 25.636719 161.683594 27.109375 C 165.449219 26.578125 167.171875 27.320312 166.847656 29.335938 C 166.109375 29.871094 165.113281 30.242188 163.859375 30.445312 C 164.144531 30.925781 164.6875 31.296875 165.488281 31.558594 C 166.949219 30.855469 168.488281 30.207031 170.109375 29.613281 C 170.066406 29.957031 170.15625 30.234375 170.378906 30.445312 C 173.988281 29.296875 177.519531 28.089844 180.976562 26.832031 C 181.339844 27.015625 181.703125 27.203125 182.066406 27.386719 C 185.355469 26.40625 188.800781 25.574219 192.390625 24.886719 C 192.84375 24.976562 193.296875 25.070312 193.75 25.164062 C 193.660156 25.257812 193.570312 25.347656 193.476562 25.441406 C 192.597656 25.609375 191.78125 25.792969 191.03125 25.996094 Z M 129.621094 32.671875 C 129.4375 32.484375 129.257812 32.300781 129.074219 32.113281 C 134.796875 29.347656 140.773438 26.707031 147.011719 24.191406 C 147.527344 24.019531 147.980469 24.066406 148.371094 24.328125 C 148.625 25.574219 148.261719 26.777344 147.28125 27.945312 C 145.378906 29.707031 143.203125 31.375 140.761719 32.949219 C 137.539062 32.78125 133.824219 32.6875 129.621094 32.671875 Z M 69.292969 27.109375 C 70.757812 27.230469 71.9375 27.601562 72.824219 28.222656 C 73.777344 29.105469 74.863281 29.9375 76.085938 30.722656 C 79.300781 32.179688 82.105469 33.804688 84.511719 35.589844 C 86.703125 35.988281 88.785156 36.5 90.761719 37.121094 C 92.714844 39.023438 95.066406 40.785156 97.824219 42.402344 C 99.496094 44.355469 98.59375 45.933594 95.109375 47.128906 C 93.109375 46.746094 91.027344 46.511719 88.859375 46.433594 C 88.222656 46.316406 87.679688 46.132812 87.226562 45.878906 C 88.386719 45.492188 89.65625 45.214844 91.03125 45.042969 C 89.582031 44.953125 88.132812 44.859375 86.683594 44.765625 C 83.929688 42.738281 81.667969 40.558594 79.890625 38.230469 C 77.480469 37.441406 75.851562 36.328125 75 34.894531 C 72.628906 32.378906 70.726562 29.78125 69.292969 27.109375 Z M 151.902344 27.386719 C 158.304688 27.511719 161.566406 29.179688 161.683594 32.394531 C 160.507812 32.648438 159.421875 32.972656 158.425781 33.367188 C 153.632812 33.589844 148.921875 33.359375 144.292969 32.671875 C 146.457031 30.734375 148.996094 28.972656 151.902344 27.386719 Z M 184.511719 33.226562 C 187.179688 33.105469 189.714844 33.335938 192.121094 33.921875 C 193.460938 34.363281 193.550781 34.875 192.390625 35.453125 C 189.011719 37.078125 185.476562 38.609375 181.792969 40.039062 C 180.039062 40.753906 178.046875 41.171875 175.816406 41.289062 C 175.714844 40.714844 175.441406 40.160156 175 39.621094 C 173.359375 38.828125 171.820312 37.996094 170.378906 37.121094 C 174.660156 35.375 179.371094 34.078125 184.511719 33.226562 Z M 123.640625 33.503906 C 123.996094 33.667969 124.359375 33.855469 124.726562 34.0625 C 125.058594 34.027344 125.238281 33.933594 125.273438 33.78125 C 129.765625 33.507812 134.292969 33.507812 138.859375 33.78125 C 138.722656 35.054688 137.457031 35.796875 135.054688 36.007812 C 134.773438 33.917969 133.050781 33.457031 129.890625 34.617188 C 129.46875 34.957031 129.195312 35.328125 129.074219 35.730469 C 130.664062 37.925781 129.214844 39.175781 124.726562 39.484375 C 123.890625 40.003906 122.894531 40.421875 121.738281 40.734375 C 120.097656 42.605469 118.738281 44.550781 117.664062 46.574219 C 114.378906 47.183594 111.296875 48.015625 108.425781 49.074219 C 106.875 47.863281 105.609375 46.566406 104.621094 45.183594 C 105.039062 44.457031 105.945312 43.949219 107.335938 43.652344 C 104.804688 43.25 102.359375 42.738281 100 42.125 C 98.402344 40.660156 96.589844 39.269531 94.566406 37.953125 C 92.292969 36.066406 93.109375 34.628906 97.011719 33.644531 C 105.886719 33.503906 114.761719 33.457031 123.640625 33.503906 Z M 153.53125 35.453125 C 150.679688 36.410156 147.601562 37.152344 144.292969 37.675781 C 145.707031 37.21875 147.15625 36.753906 148.640625 36.285156 C 147.117188 36.109375 145.667969 36.292969 144.292969 36.839844 C 143.964844 36.539062 144.144531 36.214844 144.835938 35.867188 C 144.566406 35.730469 144.292969 35.589844 144.023438 35.453125 C 142.832031 35.976562 141.835938 36.578125 141.03125 37.257812 C 140.042969 37.476562 139.320312 37.335938 138.859375 36.839844 C 140.144531 35.953125 141.320312 35.023438 142.390625 34.0625 C 146.09375 34.242188 149.808594 34.472656 153.53125 34.757812 C 152.113281 35.054688 152.113281 35.285156 153.53125 35.453125 Z M 167.664062 37.953125 C 165.945312 38.878906 164.3125 39.855469 162.773438 40.875 C 159.089844 41.25 157.097656 42.40625 156.792969 44.347656 C 155.566406 44.09375 155.023438 43.628906 155.164062 42.957031 C 151.601562 42.714844 148.882812 41.789062 147.011719 40.179688 C 148.257812 39.578125 149.523438 38.976562 150.816406 38.371094 C 153.824219 37.554688 156.539062 36.535156 158.96875 35.3125 C 160.597656 35.21875 162.226562 35.125 163.859375 35.035156 C 164.199219 34.824219 164.46875 34.59375 164.675781 34.339844 C 165.875 35.054688 166.871094 35.84375 167.664062 36.703125 C 164.527344 37.703125 161.808594 38.957031 159.511719 40.457031 C 159.785156 40.738281 160.144531 40.785156 160.597656 40.59375 C 162.742188 39.539062 165.097656 38.660156 167.664062 37.953125 Z M 208.96875 34.894531 C 216.773438 34.8125 224.5625 34.953125 232.335938 35.3125 C 234.050781 36.09375 234.957031 37.066406 235.054688 38.230469 C 224.667969 37.902344 214.429688 38.367188 204.347656 39.621094 C 203.441406 39.53125 202.535156 39.4375 201.628906 39.34375 C 199.445312 39.746094 197.179688 39.976562 194.835938 40.039062 C 191.824219 40.566406 188.925781 41.214844 186.140625 41.984375 C 184.691406 42.171875 183.242188 42.171875 181.792969 41.984375 C 186.019531 40.191406 189.917969 38.199219 193.476562 36.007812 C 193.507812 36.671875 194.140625 37.042969 195.378906 37.121094 C 198.285156 36.8125 201.183594 36.488281 204.074219 36.144531 C 205.890625 35.867188 207.523438 35.449219 208.96875 34.894531 Z M 167.664062 37.953125 C 167.816406 37.734375 168.089844 37.546875 168.476562 37.398438 C 168.765625 37.761719 168.492188 37.949219 167.664062 37.953125 Z M 236.683594 37.398438 C 238.519531 37.449219 239.96875 37.867188 241.03125 38.648438 C 238.878906 38.824219 237.429688 38.410156 236.683594 37.398438 Z M 220.925781 39.34375 C 225.457031 39.296875 229.984375 39.34375 234.511719 39.484375 C 234.949219 39.570312 235.3125 39.707031 235.597656 39.898438 C 236.484375 40.875 237.117188 41.894531 237.5 42.957031 C 237.820312 46.453125 239.363281 49.789062 242.121094 52.96875 C 240.9375 53.164062 239.851562 53.441406 238.859375 53.800781 C 235.554688 53.582031 232.113281 53.257812 228.53125 52.828125 C 225.167969 51.433594 221.726562 50.089844 218.207031 48.796875 C 217.652344 48.9375 217.5625 49.121094 217.933594 49.355469 C 219.113281 49.957031 220.289062 50.558594 221.46875 51.160156 C 221.285156 51.207031 221.105469 51.253906 220.925781 51.300781 C 218.464844 50.457031 216.289062 49.484375 214.402344 48.378906 C 211.039062 48.160156 207.78125 48.253906 204.621094 48.660156 C 204.136719 47.542969 203.050781 46.617188 201.359375 45.878906 C 202.972656 45.746094 204.421875 45.421875 205.707031 44.90625 C 208.6875 46.765625 212.402344 47.320312 216.847656 46.574219 C 221.140625 47.886719 225.214844 49.367188 229.074219 51.023438 C 229.257812 50.929688 229.4375 50.835938 229.621094 50.742188 C 229.027344 50.023438 228.121094 49.421875 226.902344 48.9375 C 221.863281 47.191406 217.332031 45.152344 213.316406 42.820312 C 212.226562 42.632812 211.140625 42.632812 210.054688 42.820312 C 206.445312 43.277344 203.183594 44.066406 200.273438 45.183594 C 196.992188 44.792969 193.730469 44.839844 190.488281 45.320312 C 188.875 45.90625 187.878906 46.695312 187.5 47.683594 C 185.921875 46.980469 184.199219 46.378906 182.335938 45.878906 C 188.367188 43.859375 194.890625 42.375 201.902344 41.429688 C 208.175781 40.390625 214.515625 39.695312 220.925781 39.34375 Z M 238.316406 39.898438 C 245.761719 40.109375 250.382812 42.058594 252.175781 45.738281 C 252.621094 46.769531 252.53125 47.789062 251.902344 48.796875 C 248.328125 47.652344 244.523438 46.726562 240.488281 46.015625 C 239.070312 44.042969 238.347656 42.003906 238.316406 39.898438 Z M 136.683594 44.347656 C 137.226562 44.347656 137.773438 44.347656 138.316406 44.347656 C 138.367188 45.589844 138.636719 46.796875 139.128906 47.964844 C 135.941406 49.824219 132.042969 51.167969 127.445312 51.996094 C 125.917969 52.542969 124.46875 53.148438 123.097656 53.800781 C 119.84375 52.164062 120.386719 50.914062 124.726562 50.046875 C 129.203125 49.300781 133.550781 48.421875 137.773438 47.40625 C 133.761719 47.332031 129.867188 47.703125 126.085938 48.519531 C 129.804688 47.390625 133.339844 46 136.683594 44.347656 Z M 154.074219 46.015625 C 155.925781 45.914062 156.199219 46.191406 154.890625 46.851562 C 153.78125 47.746094 152.242188 48.164062 150.273438 48.101562 C 151.28125 47.261719 152.550781 46.566406 154.074219 46.015625 Z M 99.183594 46.296875 C 100.109375 46.25 101.015625 46.296875 101.902344 46.433594 C 103.6875 47.378906 105.136719 48.445312 106.25 49.632812 C 105.367188 50.046875 104.460938 50.464844 103.53125 50.882812 C 100.425781 50.878906 98.34375 50.089844 97.28125 48.519531 C 96.921875 48.148438 96.921875 47.777344 97.28125 47.40625 C 98.03125 47.074219 98.664062 46.703125 99.183594 46.296875 Z M 254.621094 46.574219 C 258.296875 48.03125 260.742188 49.886719 261.957031 52.132812 C 259.558594 51.265625 257.113281 50.429688 254.621094 49.632812 C 253.9375 48.601562 253.9375 47.582031 254.621094 46.574219 Z M 117.664062 46.851562 C 119.8125 47.507812 119.8125 48.203125 117.664062 48.9375 C 115.773438 49.722656 113.691406 50.324219 111.414062 50.742188 C 110.171875 50.617188 109.355469 50.25 108.96875 49.632812 C 112.261719 48.976562 115.160156 48.050781 117.664062 46.851562 Z M 176.902344 47.128906 C 180.308594 47.027344 183.390625 47.492188 186.140625 48.519531 C 186.761719 49.054688 186.851562 49.609375 186.414062 50.1875 C 183.761719 49.964844 181.132812 49.640625 178.53125 49.214844 C 177.046875 48.640625 176.503906 47.945312 176.902344 47.128906 Z M 241.574219 48.242188 C 244.964844 49.230469 248.226562 50.34375 251.359375 51.578125 C 251.890625 52.296875 252.074219 53.039062 251.902344 53.800781 C 248.890625 53.347656 245.808594 53.066406 242.664062 52.96875 C 242.765625 51.359375 242.402344 49.785156 241.574219 48.242188 Z M 139.945312 49.074219 C 143.828125 48.820312 144.191406 49.332031 141.03125 50.605469 C 139.121094 51.085938 137.128906 51.273438 135.054688 51.160156 C 136.523438 50.328125 138.152344 49.632812 139.945312 49.074219 Z M 106.25 50.464844 C 108.265625 50.539062 108.988281 51.050781 108.425781 51.996094 C 106.640625 52.269531 105.191406 52.035156 104.074219 51.300781 C 104.835938 51.015625 105.5625 50.738281 106.25 50.464844 Z M 99.183594 52.691406 C 100.800781 52.671875 102.25 52.902344 103.53125 53.386719 C 101.917969 53.855469 100.285156 53.808594 98.640625 53.246094 C 98.839844 53.054688 99.019531 52.871094 99.183594 52.691406 Z M 253.53125 52.691406 C 256.78125 53.9375 259.773438 55.328125 262.5 56.859375 C 262.953125 57.324219 263.40625 57.789062 263.859375 58.25 C 261.195312 58.640625 258.476562 58.828125 255.707031 58.808594 C 255.09375 56.757812 254.371094 54.71875 253.53125 52.691406 Z M 183.96875 53.246094 C 185.125 52.933594 186.390625 52.886719 187.773438 53.105469 C 187.488281 53.300781 187.125 53.4375 186.683594 53.523438 C 185.832031 53.300781 184.925781 53.207031 183.96875 53.246094 Z M 175.816406 53.523438 C 178.824219 54.292969 181.8125 54.476562 184.78125 54.082031 C 186.9375 54.386719 189.019531 54.804688 191.03125 55.332031 C 190.667969 56.433594 191.210938 56.527344 192.664062 55.609375 C 195.96875 55.535156 199.226562 55.71875 202.445312 56.164062 C 204.132812 56.523438 205.582031 57.03125 206.792969 57.695312 C 205.023438 58.308594 203.304688 58.957031 201.628906 59.640625 C 192.84375 58.621094 184.238281 57.277344 175.816406 55.609375 C 174.390625 54.898438 174.390625 54.203125 175.816406 53.523438 Z M 198.640625 54.914062 C 200.066406 54.496094 201.335938 54.632812 202.445312 55.332031 C 201.109375 55.398438 199.839844 55.257812 198.640625 54.914062 Z M 231.792969 56.582031 C 230.46875 56.476562 229.382812 56.152344 228.53125 55.609375 C 229.996094 55.566406 231.085938 55.894531 231.792969 56.582031 Z M 233.96875 55.75 C 234.851562 55.519531 235.757812 55.613281 236.683594 56.027344 C 236.515625 56.25 236.246094 56.4375 235.871094 56.582031 C 235.304688 56.246094 234.671875 55.96875 233.96875 55.75 Z M 105.707031 59.085938 C 106.671875 57.570312 108.664062 56.644531 111.683594 56.304688 C 111.683594 56.582031 111.683594 56.859375 111.683594 57.140625 C 110.9375 57.09375 110.214844 57.140625 109.511719 57.277344 C 108.3125 57.9375 107.046875 58.539062 105.707031 59.085938 Z M 225.816406 56.859375 C 228.9375 57.375 231.472656 58.441406 233.425781 60.058594 C 231.796875 60.144531 230.164062 60.097656 228.53125 59.917969 C 227 59.933594 225.550781 60.121094 224.183594 60.476562 C 222.566406 60.136719 221.027344 60.230469 219.566406 60.753906 C 218.03125 60.359375 217.9375 59.941406 219.292969 59.503906 C 223.015625 59.589844 225.1875 58.707031 225.816406 56.859375 Z M 160.054688 57.140625 C 165.464844 57.09375 171.078125 57.371094 176.902344 57.972656 C 175.8125 58.390625 174.90625 58.902344 174.183594 59.503906 C 163.488281 59.636719 152.800781 59.730469 142.121094 59.78125 C 145.003906 58.972656 147.992188 58.277344 151.085938 57.695312 C 152.695312 59.011719 154.957031 59.519531 157.878906 59.222656 C 159.253906 58.699219 159.976562 58.003906 160.054688 57.140625 Z M 114.402344 57.695312 C 116.089844 57.597656 117.628906 57.785156 119.023438 58.25 C 119.730469 59.300781 120.90625 60.179688 122.554688 60.894531 C 122.214844 61.101562 121.941406 61.332031 121.738281 61.585938 C 120.578125 60.933594 119.128906 60.65625 117.390625 60.753906 C 112.808594 61.382812 108.1875 61.425781 103.53125 60.894531 C 106.191406 59.902344 109.089844 59.164062 112.226562 58.667969 C 112.898438 58.277344 113.621094 57.953125 114.402344 57.695312 Z M 120.378906 58.25 C 120.414062 58.101562 120.59375 58.007812 120.925781 57.972656 C 121.914062 58.320312 123 58.503906 124.183594 58.527344 C 124.082031 59.101562 123.8125 59.660156 123.371094 60.199219 C 122.363281 59.53125 121.367188 58.878906 120.378906 58.25 Z M 179.621094 58.25 C 183.878906 58.542969 188.046875 59.050781 192.121094 59.78125 C 188.496094 59.964844 184.875 59.964844 181.25 59.78125 C 180.347656 59.367188 179.804688 58.855469 179.621094 58.25 Z M 215.488281 59.640625 C 214.851562 59.582031 214.308594 59.671875 213.859375 59.917969 C 213.925781 60.089844 214.105469 60.179688 214.402344 60.199219 C 213.054688 60.84375 211.695312 60.84375 210.324219 60.199219 C 208.195312 60.636719 206.292969 60.453125 204.621094 59.640625 C 206.835938 58.558594 209.007812 58.558594 211.140625 59.640625 C 211.46875 59.339844 211.289062 59.015625 210.597656 58.667969 C 211.285156 58.582031 211.921875 58.441406 212.5 58.25 C 214.117188 58.386719 215.113281 58.847656 215.488281 59.640625 Z M 407.335938 62.976562 C 405.753906 63.375 404.03125 63.652344 402.175781 63.8125 C 401.601562 64.085938 401.328125 64.410156 401.359375 64.785156 C 400.523438 64.921875 399.710938 64.878906 398.914062 64.644531 C 398.113281 65.308594 396.9375 65.585938 395.378906 65.480469 C 392.507812 65.449219 389.882812 65.078125 387.5 64.367188 C 384.546875 64.621094 384.457031 64.855469 387.226562 65.0625 C 387.046875 65.15625 386.867188 65.25 386.683594 65.339844 C 382.867188 65.574219 379.0625 65.527344 375.273438 65.203125 C 374.636719 64.726562 373.730469 64.539062 372.554688 64.644531 C 375.441406 64.132812 378.339844 64.132812 381.25 64.644531 C 389.878906 63.851562 398.574219 63.292969 407.335938 62.976562 Z M 371.46875 64.925781 C 368.289062 65.207031 365.027344 65.34375 361.683594 65.339844 C 363.855469 64.863281 366.121094 64.539062 368.476562 64.367188 C 369.464844 64.574219 370.460938 64.761719 371.46875 64.925781 Z M 62.226562 65.480469 C 64.261719 65.46875 64.351562 65.65625 62.5 66.035156 C 62.246094 65.871094 62.15625 65.6875 62.226562 65.480469 Z M 91.03125 66.59375 C 93.039062 67.292969 95.121094 67.941406 97.28125 68.539062 C 100.609375 68.257812 103.960938 68.304688 107.335938 68.679688 C 107.878906 68.910156 108.425781 69.140625 108.96875 69.375 C 104.871094 69.769531 100.886719 69.585938 97.011719 68.816406 C 94.144531 69.484375 91.246094 69.484375 88.316406 68.816406 C 89.226562 68.066406 90.132812 67.328125 91.03125 66.59375 Z M 347.554688 66.59375 C 348.246094 66.753906 348.246094 66.9375 347.554688 67.148438 C 347.03125 67.019531 347.03125 66.832031 347.554688 66.59375 Z M 82.878906 66.871094 C 84.550781 66.78125 86.179688 66.875 87.773438 67.148438 C 87.09375 67.695312 86.1875 68.109375 85.054688 68.398438 C 85.777344 68.585938 85.777344 68.769531 85.054688 68.957031 C 80.710938 69.207031 76.363281 69.296875 72.011719 69.234375 C 75.484375 68.195312 79.105469 67.410156 82.878906 66.871094 Z M 377.445312 66.871094 C 377.847656 66.835938 378.210938 66.878906 378.53125 67.007812 C 377.945312 67.277344 377.3125 67.507812 376.628906 67.703125 C 376.5 67.347656 376.773438 67.070312 377.445312 66.871094 Z M 127.988281 68.816406 C 129.644531 68.816406 129.917969 69.09375 128.804688 69.652344 C 128.238281 69.445312 127.96875 69.167969 127.988281 68.816406 Z M 113.859375 69.09375 C 116.761719 69.050781 119.660156 69.09375 122.554688 69.234375 C 119.496094 69.726562 116.417969 69.863281 113.316406 69.652344 C 113.511719 69.460938 113.695312 69.277344 113.859375 69.09375 Z M 444.292969 72.433594 C 443.941406 72.796875 443.398438 73.074219 442.664062 73.265625 C 441.441406 72.886719 440.351562 72.980469 439.402344 73.542969 C 439.878906 73.753906 440.421875 73.890625 441.03125 73.960938 C 437.066406 74.828125 432.898438 75.105469 428.53125 74.796875 C 430.210938 74.632812 431.660156 74.261719 432.878906 73.683594 C 430.894531 73.542969 428.902344 73.496094 426.902344 73.542969 C 426.902344 73.453125 426.902344 73.359375 426.902344 73.265625 C 432.867188 73.058594 438.664062 72.78125 444.292969 72.433594 Z M 416.574219 73.820312 C 415.996094 74.082031 415.269531 74.175781 414.402344 74.101562 C 412.578125 74.414062 410.765625 74.414062 408.96875 74.101562 C 411.359375 73.460938 413.894531 73.371094 416.574219 73.820312 Z M 406.792969 74.101562 C 406.25 74.285156 405.707031 74.46875 405.164062 74.65625 C 400.382812 74.4375 400.289062 74.160156 404.890625 73.820312 C 405.574219 73.863281 406.207031 73.957031 406.792969 74.101562 Z M 70.925781 76.046875 C 70.925781 76.140625 70.925781 76.230469 70.925781 76.324219 C 71.367188 76.578125 72.273438 76.714844 73.640625 76.742188 C 68.1875 76.941406 62.753906 76.847656 57.335938 76.464844 C 58.683594 75.722656 60.316406 75.304688 62.226562 75.210938 C 62.226562 75.582031 62.226562 75.953125 62.226562 76.324219 C 63.570312 76.449219 64.929688 76.539062 66.304688 76.601562 C 67.875 76.433594 69.414062 76.25 70.925781 76.046875 Z M 419.835938 76.601562 C 418.898438 76.507812 418.628906 76.230469 419.023438 75.769531 C 419.300781 76.054688 419.574219 76.332031 419.835938 76.601562 Z M 412.226562 76.601562 C 415.820312 76.539062 416.089844 76.722656 413.042969 77.160156 C 412.484375 77.066406 412.210938 76.878906 412.226562 76.601562 Z M 450.273438 81.605469 C 451.042969 81.664062 451.769531 81.804688 452.445312 82.023438 C 451.378906 82.257812 450.65625 82.121094 450.273438 81.605469 Z M 448.640625 82.996094 C 449.871094 83.207031 451.140625 83.253906 452.445312 83.136719 C 450.714844 83.589844 448.90625 83.773438 447.011719 83.691406 C 447.792969 83.585938 448.339844 83.355469 448.640625 82.996094 Z M 442.664062 83.554688 C 443.066406 83.515625 443.425781 83.5625 443.75 83.691406 C 442.734375 84.335938 441.648438 84.429688 440.488281 83.972656 C 441.335938 83.914062 442.058594 83.773438 442.664062 83.554688 Z M 31.792969 84.945312 C 33.878906 84.976562 33.878906 85.160156 31.792969 85.5 C 31.269531 85.371094 31.269531 85.183594 31.792969 84.945312 Z M 462.226562 86.335938 C 458.789062 85.792969 458.789062 85.511719 462.226562 85.5 C 462.226562 85.777344 462.226562 86.054688 462.226562 86.335938 Z M 55.164062 95.507812 C 55.949219 95.199219 56.855469 95.152344 57.878906 95.371094 C 56.988281 95.792969 56.082031 95.839844 55.164062 95.507812 Z M 409.511719 99.402344 C 410.203125 99.5625 410.203125 99.75 409.511719 99.957031 C 408.988281 99.828125 408.988281 99.640625 409.511719 99.402344 Z M 45.925781 99.957031 C 48.402344 99.558594 48.585938 99.742188 46.46875 100.515625 C 46.3125 100.320312 46.128906 100.132812 45.925781 99.957031 Z M 82.878906 102.183594 C 83.421875 101.84375 83.964844 101.890625 84.511719 102.320312 C 83.925781 102.453125 83.382812 102.40625 82.878906 102.183594 Z M 392.121094 102.183594 C 392.980469 102.363281 393.886719 102.503906 394.835938 102.601562 C 394.382812 102.644531 393.929688 102.691406 393.476562 102.738281 C 392.730469 102.6875 392.277344 102.503906 392.121094 102.183594 Z M 331.792969 102.738281 C 332.554688 102.871094 333.28125 103.054688 333.96875 103.296875 C 332.898438 103.539062 331.8125 103.492188 330.707031 103.15625 C 331.203125 103.078125 331.566406 102.941406 331.792969 102.738281 Z M 389.402344 106.910156 C 385.628906 106.609375 381.824219 106.375 377.988281 106.214844 C 376.945312 106.113281 376.039062 105.882812 375.273438 105.519531 C 375.917969 105.261719 376.640625 105.167969 377.445312 105.242188 C 377.445312 104.964844 377.445312 104.683594 377.445312 104.40625 C 379.441406 104.183594 380.890625 104.507812 381.792969 105.378906 C 384.152344 105.40625 386.507812 105.40625 388.859375 105.378906 C 388.894531 105.890625 389.074219 106.398438 389.402344 106.910156 Z M 398.640625 104.964844 C 400.066406 105.230469 400.066406 105.511719 398.640625 105.796875 C 398.324219 105.59375 398.324219 105.316406 398.640625 104.964844 Z M 432.335938 107.464844 C 431.878906 107.792969 431.515625 108.164062 431.25 108.578125 C 428.789062 108.722656 428.605469 109.046875 430.707031 109.550781 C 428.324219 109.550781 425.96875 109.363281 423.640625 108.996094 C 425.226562 108.417969 425.042969 108.046875 423.097656 107.882812 C 418.285156 107.671875 413.484375 107.71875 408.695312 108.023438 C 407.160156 107.867188 405.621094 107.730469 404.074219 107.605469 C 413.492188 106.921875 422.824219 106.039062 432.066406 104.964844 C 432.519531 105.011719 432.972656 105.054688 433.425781 105.101562 C 432.765625 105.847656 432.402344 106.636719 432.335938 107.464844 Z M 367.121094 105.796875 C 368.355469 105.445312 369.621094 105.492188 370.925781 105.9375 C 369.628906 106.089844 368.359375 106.046875 367.121094 105.796875 Z M 389.402344 106.910156 C 390.082031 106.886719 390.535156 106.703125 390.761719 106.355469 C 391.136719 106.5 391.410156 106.683594 391.574219 106.910156 C 390.785156 107.265625 390.058594 107.265625 389.402344 106.910156 Z M 107.335938 107.1875 C 107.878906 107.375 108.425781 107.558594 108.96875 107.742188 C 107.832031 107.691406 106.742188 107.785156 105.707031 108.023438 C 105.382812 107.476562 105.925781 107.195312 107.335938 107.1875 Z M 100.273438 108.023438 C 100.871094 107.714844 101.59375 107.671875 102.445312 107.882812 C 101.828125 108.164062 102.011719 108.351562 102.988281 108.4375 C 101.746094 108.972656 100.84375 108.832031 100.273438 108.023438 Z M 137.226562 108.300781 C 138.667969 108.425781 138.941406 108.707031 138.042969 109.132812 C 137.480469 108.925781 137.207031 108.648438 137.226562 108.300781 Z M 419.835938 109.132812 C 420.433594 108.828125 421.160156 108.78125 422.011719 108.996094 C 421.367188 109.488281 420.644531 109.53125 419.835938 109.132812 Z M 350.816406 113.304688 C 354.558594 113.34375 358.183594 113.34375 361.683594 113.304688 C 363.136719 113.351562 364.402344 113.628906 365.488281 114.140625 C 365.9375 115.050781 366.207031 115.980469 366.304688 116.917969 C 366.558594 117.316406 367.011719 117.640625 367.664062 117.894531 C 369.96875 118.460938 372.234375 119.0625 374.457031 119.699219 C 374.589844 121.109375 374.953125 122.496094 375.542969 123.871094 C 375.933594 124.304688 376.570312 124.582031 377.445312 124.703125 C 377.445312 124.796875 377.445312 124.890625 377.445312 124.984375 C 374.941406 125.128906 372.585938 124.945312 370.378906 124.425781 C 365.757812 124.789062 361.046875 124.976562 356.25 124.984375 C 351.722656 124.9375 347.191406 124.890625 342.664062 124.84375 C 340.746094 124.28125 339.296875 123.492188 338.316406 122.480469 C 340.503906 120.195312 343.039062 118.019531 345.925781 115.945312 C 348.210938 115.472656 350.566406 115.101562 352.988281 114.835938 C 352.550781 114.75 352.1875 114.609375 351.902344 114.417969 C 352.808594 114.230469 353.714844 114.046875 354.621094 113.859375 C 352.945312 113.703125 351.675781 113.519531 350.816406 113.304688 Z M 400.816406 114.417969 C 402.527344 114.335938 404.15625 114.476562 405.707031 114.835938 C 407.097656 117.28125 409.816406 119.226562 413.859375 120.671875 C 412.890625 120.660156 411.988281 120.476562 411.140625 120.117188 C 409.492188 119.179688 407.679688 118.347656 405.707031 117.613281 C 405.253906 117.421875 404.890625 117.46875 404.621094 117.753906 C 407.15625 119.238281 409.875 120.625 412.773438 121.925781 C 412.136719 122.757812 411.230469 123.5 410.054688 124.148438 C 409.40625 124.050781 409.40625 123.914062 410.054688 123.730469 C 407.402344 123.433594 404.863281 122.96875 402.445312 122.339844 C 399.003906 120.953125 395.5625 119.5625 392.121094 118.171875 C 394.425781 117.039062 396.960938 116.0625 399.726562 115.25 C 400.046875 115.308594 400.320312 115.402344 400.542969 115.527344 C 400.351562 115.125 400.441406 114.753906 400.816406 114.417969 Z M 338.316406 114.695312 C 340.199219 114.707031 342.191406 114.75 344.292969 114.835938 C 341.644531 116.757812 339.199219 118.75 336.957031 120.8125 C 334.8125 121.847656 332.367188 122.636719 329.621094 123.175781 C 324.996094 125.957031 320.285156 128.691406 315.488281 131.378906 C 314.867188 130.84375 314.777344 130.289062 315.21875 129.710938 C 317.671875 126.820312 320.207031 123.949219 322.824219 121.089844 C 323.886719 120.824219 324.792969 120.453125 325.542969 119.976562 C 326.851562 118.359375 328.300781 116.785156 329.890625 115.25 C 332.644531 115.121094 335.449219 114.933594 338.316406 114.695312 Z M 141.03125 115.808594 C 143.253906 115.730469 143.527344 115.914062 141.847656 116.363281 C 141.289062 116.269531 141.015625 116.085938 141.03125 115.808594 Z M 174.726562 116.640625 C 175.746094 116.742188 176.558594 117.019531 177.175781 117.476562 C 178.417969 119.863281 180.773438 121.902344 184.238281 123.59375 C 184.964844 125.074219 185.6875 126.558594 186.414062 128.042969 C 188.277344 129.230469 189.816406 130.527344 191.03125 131.933594 C 189.179688 133.207031 186.914062 134.226562 184.238281 134.992188 C 183.160156 134.855469 182.257812 134.578125 181.523438 134.160156 C 180.933594 133.464844 180.210938 132.816406 179.347656 132.210938 C 175.523438 127.363281 171.8125 122.496094 168.207031 117.613281 C 169.234375 116.902344 170.503906 116.765625 172.011719 117.199219 C 173.007812 117.050781 173.914062 116.867188 174.726562 116.640625 Z M 420.925781 117.199219 C 423.65625 117.253906 426.011719 117.761719 427.988281 118.726562 C 430.007812 119.667969 432.183594 120.503906 434.511719 121.230469 C 436.160156 121.980469 437.613281 122.816406 438.859375 123.730469 C 437.957031 124.242188 436.871094 124.609375 435.597656 124.84375 C 427.816406 125.261719 421.292969 124.011719 416.03125 121.089844 C 417.46875 120.378906 418.828125 119.636719 420.109375 118.867188 C 420.722656 118.351562 420.992188 117.796875 420.925781 117.199219 Z M 389.945312 120.8125 C 393.402344 121.1875 396.480469 121.929688 399.183594 123.035156 C 398.492188 123.226562 398.492188 123.460938 399.183594 123.730469 C 395.21875 124.1875 391.230469 124.234375 387.226562 123.871094 C 385.800781 123.148438 384.984375 122.316406 384.78125 121.367188 C 385.15625 121.128906 385.609375 120.945312 386.140625 120.8125 C 387.1875 121.605469 388.367188 122.347656 389.675781 123.035156 C 390.066406 122.589844 389.976562 122.171875 389.402344 121.785156 C 390.511719 121.773438 391.601562 121.910156 392.664062 122.203125 C 392.84375 122.109375 393.027344 122.015625 393.207031 121.925781 C 392.085938 121.546875 390.996094 121.175781 389.945312 120.8125 Z M 379.621094 124.703125 C 379.082031 124.753906 378.71875 124.660156 378.53125 124.425781 C 379.800781 123.960938 380.34375 123.3125 380.164062 122.480469 C 382.488281 122.507812 383.9375 123.113281 384.511719 124.289062 C 384.011719 124.390625 383.558594 124.53125 383.152344 124.703125 C 382.089844 124.625 380.910156 124.625 379.621094 124.703125 Z M 398.097656 124.703125 C 401.929688 124.429688 405.191406 124.988281 407.878906 126.375 C 406.835938 128.066406 405.023438 129.503906 402.445312 130.683594 C 399.011719 131.394531 396.203125 130.976562 394.023438 129.433594 C 392.6875 128.109375 391.144531 126.859375 389.402344 125.679688 C 392.394531 125.398438 395.292969 125.074219 398.097656 124.703125 Z M 376.902344 125.539062 C 380.082031 125.558594 383.433594 125.652344 386.957031 125.816406 C 389.5625 127.523438 391.738281 129.378906 393.476562 131.378906 C 393.925781 132.410156 393.835938 133.429688 393.207031 134.4375 C 391.136719 133.886719 389.507812 133.101562 388.316406 132.074219 C 387.226562 131.796875 386.140625 131.515625 385.054688 131.238281 C 381.316406 129.558594 377.695312 127.84375 374.183594 126.09375 C 375.15625 125.910156 376.0625 125.722656 376.902344 125.539062 Z M 191.574219 134.4375 C 192.117188 134.414062 192.570312 134.503906 192.933594 134.714844 C 195.886719 137.738281 197.785156 140.933594 198.640625 144.308594 C 198.746094 144.960938 198.386719 145.515625 197.554688 145.976562 C 193.671875 146.945312 189.867188 146.898438 186.140625 145.835938 C 185.414062 143.453125 184.507812 141.089844 183.425781 138.746094 C 183.460938 138.027344 183.730469 137.332031 184.238281 136.660156 C 186.675781 135.878906 189.121094 135.136719 191.574219 134.4375 Z M 191.574219 134.4375 "/>
<use xlink:href="#surface5" mask="url(#mask0)"/>
<use xlink:href="#surface8" mask="url(#mask1)"/>
<use xlink:href="#surface11" mask="url(#mask2)"/>
<use xlink:href="#surface14" mask="url(#mask3)"/>
<use xlink:href="#surface17" mask="url(#mask4)"/>
<use xlink:href="#surface20" mask="url(#mask5)"/>
<use xlink:href="#surface23" mask="url(#mask6)"/>
<use xlink:href="#surface26" mask="url(#mask7)"/>
<use xlink:href="#surface29" mask="url(#mask8)"/>
<use xlink:href="#surface32" mask="url(#mask9)"/>
<use xlink:href="#surface35" mask="url(#mask10)"/>
<use xlink:href="#surface38" mask="url(#mask11)"/>
<use xlink:href="#surface41" mask="url(#mask12)"/>
<use xlink:href="#surface44" mask="url(#mask13)"/>
<use xlink:href="#surface47" mask="url(#mask14)"/>
<use xlink:href="#surface50" mask="url(#mask15)"/>
<use xlink:href="#surface53" mask="url(#mask16)"/>
<use xlink:href="#surface56" mask="url(#mask17)"/>
<use xlink:href="#surface59" mask="url(#mask18)"/>
</g>
</svg>
