<?xml version="1.0" encoding="UTF-8"?>
<svg xmlns="http://www.w3.org/2000/svg" xmlns:xlink="http://www.w3.org/1999/xlink" width="500px" height="171px" viewBox="0 0 1161 397" version="1.1">
<defs>
<filter id="alpha" filterUnits="objectBoundingBox" x="0%" y="0%" width="100%" height="100%">
  <feColorMatrix type="matrix" in="SourceGraphic" values="0 0 0 0 1 0 0 0 0 1 0 0 0 0 1 0 0 0 1 0"/>
</filter>
<mask id="mask0">
  <g filter="url(#alpha)">
<rect x="0" y="0" width="1161" height="397" style="fill:rgb(0%,0%,0%);fill-opacity:0.980392;stroke:none;"/>
  </g>
</mask>
<clipPath id="clip1">
  <rect x="0" y="0" width="1161" height="397"/>
</clipPath>
<g id="surface5" clip-path="url(#clip1)">
<path style=" stroke:none;fill-rule:evenodd;fill:rgb(6.666667%,6.666667%,6.666667%);fill-opacity:1;" d="M 425.5 21.5 C 436.949219 20.988281 448.28125 21.824219 459.5 24 C 467.164062 27.328125 474.828125 30.660156 482.5 34 C 522.972656 41.414062 561.308594 54.746094 597.5 74 C 601.402344 77.734375 605.070312 81.566406 608.5 85.5 C 611.613281 83.816406 614.945312 83.148438 618.5 83.5 C 618.660156 85.199219 618.492188 86.867188 618 88.5 C 616.777344 89.773438 615.945312 91.273438 615.5 93 C 626.191406 122.710938 626.027344 152.210938 615 181.5 C 598.796875 216.457031 579.796875 249.789062 558 281.5 C 549.996094 291.335938 541.496094 300.667969 532.5 309.5 C 530.324219 314.199219 527.160156 318.199219 523 321.5 C 523.964844 329.558594 520.464844 334.558594 512.5 336.5 C 512.5 335.5 512.5 334.5 512.5 333.5 C 511.5 333.5 510.5 333.5 509.5 333.5 C 510.09375 330.140625 511.261719 327.140625 513 324.5 C 507.519531 327.96875 502.019531 331.46875 496.5 335 C 494.25 335.863281 492.417969 335.363281 491 333.5 C 480.375 342.730469 468.210938 349.230469 454.5 353 C 435.875 357.984375 417.207031 362.320312 398.5 366 C 378.085938 369.644531 357.75 369.3125 337.5 365 C 328.308594 362.910156 320.972656 358.074219 315.5 350.5 C 308.859375 336.8125 305.191406 322.3125 304.5 307 C 306.097656 275.460938 310.261719 244.296875 317 213.5 C 321.257812 201.300781 325.257812 188.964844 329 176.5 C 341.46875 148.554688 353.136719 120.222656 364 91.5 C 368.417969 84.929688 372.085938 77.929688 375 70.5 C 379.566406 63.378906 385.066406 57.046875 391.5 51.5 C 392.230469 47.539062 393.898438 44.039062 396.5 41 C 399.230469 40.585938 401.898438 39.921875 404.5 39 C 406.988281 35.222656 409.652344 31.554688 412.5 28 C 417.171875 26.332031 421.507812 24.164062 425.5 21.5 Z M 436.5 84.5 C 455.011719 83.726562 471.34375 89.226562 485.5 101 C 491.316406 108.816406 497.816406 115.984375 505 122.5 C 507.238281 134.253906 506.90625 145.917969 504 157.5 C 495.96875 180.609375 486.96875 203.277344 477 225.5 C 471.640625 245.761719 463.472656 264.761719 452.5 282.5 C 448.980469 286.851562 444.980469 290.6875 440.5 294 C 430.289062 300.269531 419.957031 306.269531 409.5 312 C 398.347656 317.164062 386.683594 319.164062 374.5 318 C 368.898438 313.398438 364.398438 307.898438 361 301.5 C 357.199219 289.96875 353.867188 278.300781 351 266.5 C 349.035156 250.796875 349.367188 235.128906 352 219.5 C 359.152344 184.375 371.152344 151.039062 388 119.5 C 396.269531 106.5625 407.101562 96.394531 420.5 89 C 425.875 87.160156 431.207031 85.660156 436.5 84.5 Z M 436.5 84.5 "/>
</g>
<mask id="mask1">
  <g filter="url(#alpha)">
<rect x="0" y="0" width="1161" height="397" style="fill:rgb(0%,0%,0%);fill-opacity:0.960784;stroke:none;"/>
  </g>
</mask>
<clipPath id="clip2">
  <rect x="0" y="0" width="1161" height="397"/>
</clipPath>
<g id="surface8" clip-path="url(#clip2)">
<path style=" stroke:none;fill-rule:evenodd;fill:rgb(12.156863%,12.156863%,12.156863%);fill-opacity:1;" d="M 8.5 27.5 C 9.5 27.5 10.5 27.5 11.5 27.5 C 13.3125 34.753906 14.8125 42.085938 16 49.5 C 18.945312 44.617188 20.445312 39.28125 20.5 33.5 C 26.507812 32.421875 32.507812 32.421875 38.5 33.5 C 39.230469 36.109375 39.730469 38.777344 40 41.5 C 41.847656 38.964844 43.515625 36.300781 45 33.5 C 46.214844 31.953125 47.714844 30.785156 49.5 30 C 66.816406 24.976562 76.316406 31.476562 78 49.5 C 80.808594 44.699219 84.308594 40.53125 88.5 37 C 93.753906 35.730469 99.085938 35.230469 104.5 35.5 C 111.804688 60.515625 113.472656 86.015625 109.5 112 C 110.117188 120.824219 110.617188 129.660156 111 138.5 C 111.804688 135.757812 112.804688 133.089844 114 130.5 C 119.332031 122.832031 124.667969 115.167969 130 107.5 C 142.503906 93.75 154.503906 79.75 166 65.5 C 170.804688 61.359375 175.304688 56.859375 179.5 52 C 188.988281 44.609375 198.988281 37.941406 209.5 32 C 212.832031 31.332031 216.167969 31.332031 219.5 32 C 231.210938 42.714844 243.210938 53.046875 255.5 63 C 269.269531 76.996094 281.769531 92.160156 293 108.5 C 296.355469 116.082031 293.855469 119.914062 285.5 120 C 274.277344 126.296875 262.609375 131.628906 250.5 136 C 208.484375 144.355469 169.816406 160.355469 134.5 184 C 144.488281 189.996094 154.488281 195.996094 164.5 202 C 194.152344 215.328125 221.816406 231.992188 247.5 252 C 257.386719 261.886719 267.222656 271.722656 277 281.5 C 277.78125 282.945312 277.613281 284.277344 276.5 285.5 C 256.3125 293.925781 236.648438 303.425781 217.5 314 C 216.054688 314.78125 214.722656 314.613281 213.5 313.5 C 204.214844 297.929688 195.714844 281.929688 188 265.5 C 175.757812 247.761719 162.59375 230.761719 148.5 214.5 C 145.976562 212.144531 143.3125 209.976562 140.5 208 C 137.5625 206.953125 134.5625 206.121094 131.5 205.5 C 130.679688 208.445312 130.179688 211.445312 130 214.5 C 129.667969 234.5 129.332031 254.5 129 274.5 C 126.308594 292.167969 123.140625 309.667969 119.5 327 C 120.484375 330.113281 121.148438 333.277344 121.5 336.5 C 116.820312 336.664062 112.15625 336.5 107.5 336 C 99.507812 332.679688 91.507812 329.347656 83.5 326 C 79.5 325.332031 75.5 325.332031 71.5 326 C 62.25 332.246094 53.917969 339.578125 46.5 348 C 43.167969 348.667969 39.832031 348.667969 36.5 348 C 27.347656 343.925781 18.683594 339.09375 10.5 333.5 C 9.367188 331.925781 9.203125 330.257812 10 328.5 C 13.199219 327.265625 16.367188 325.933594 19.5 324.5 C 21.003906 323.15625 21.671875 321.492188 21.5 319.5 C 23.167969 319.5 24.832031 319.5 26.5 319.5 C 23.5 299.644531 22 279.644531 22 259.5 C 19.789062 253.609375 17.789062 247.609375 16 241.5 C 13.25 170.164062 10.75 98.832031 8.5 27.5 Z M 8.5 27.5 "/>
</g>
<mask id="mask2">
  <g filter="url(#alpha)">
<rect x="0" y="0" width="1161" height="397" style="fill:rgb(0%,0%,0%);fill-opacity:0.960784;stroke:none;"/>
  </g>
</mask>
<clipPath id="clip3">
  <rect x="0" y="0" width="1161" height="397"/>
</clipPath>
<g id="surface11" clip-path="url(#clip3)">
<path style=" stroke:none;fill-rule:evenodd;fill:rgb(5.098039%,5.098039%,5.098039%);fill-opacity:1;" d="M 776.5 39.5 C 806.582031 39.863281 835.914062 44.363281 864.5 53 C 865.667969 53.5 866.5 54.332031 867 55.5 C 867.796875 59.753906 867.628906 63.921875 866.5 68 C 859.816406 68.390625 853.148438 68.890625 846.5 69.5 C 846.964844 73.0625 848.132812 76.394531 850 79.5 C 861.230469 92.535156 867.730469 107.703125 869.5 125 C 869.726562 129.078125 868.894531 132.910156 867 136.5 C 850.101562 143.464844 834.265625 152.296875 819.5 163 C 804.863281 164.699219 790.199219 166.199219 775.5 167.5 C 773.601562 174.359375 772.101562 181.359375 771 188.5 C 768.804688 191.125 765.96875 192.125 762.5 191.5 C 763.4375 194.960938 765.4375 197.792969 768.5 200 C 794.527344 210.078125 821.527344 216.746094 849.5 220 C 850.949219 221.117188 852.617188 221.785156 854.5 222 C 863.296875 229.128906 871.796875 236.628906 880 244.5 C 885.945312 253.84375 885.945312 263.175781 880 272.5 C 868.445312 283.679688 863.777344 297.347656 866 313.5 C 856.886719 333.28125 842.386719 347.78125 822.5 357 C 792.210938 357.683594 762.042969 359.183594 732 361.5 C 713.546875 359.71875 695.046875 358.71875 676.5 358.5 C 674.953125 316.023438 673.953125 273.523438 673.5 231 C 674.953125 205.816406 676.617188 180.648438 678.5 155.5 C 676.710938 131.53125 676.210938 107.53125 677 83.5 C 679.980469 72.691406 681.3125 61.691406 681 50.5 C 678.433594 52.179688 675.601562 52.847656 672.5 52.5 C 672.328125 51.179688 672.664062 50.011719 673.5 49 C 678.023438 47.933594 682.355469 46.433594 686.5 44.5 C 687.429688 45.6875 687.761719 47.023438 687.5 48.5 C 716.335938 44.167969 745.335938 41.667969 774.5 41 C 775.414062 40.722656 776.082031 40.222656 776.5 39.5 Z M 735.5 80.5 C 749.171875 80.332031 762.835938 80.5 776.5 81 C 784.628906 81.945312 792.296875 84.28125 799.5 88 C 802.363281 90.207031 805.195312 92.371094 808 94.5 C 810.40625 98.140625 811.074219 102.140625 810 106.5 C 808.050781 112.398438 805.550781 118.066406 802.5 123.5 C 799.613281 127.71875 795.949219 131.21875 791.5 134 C 778.917969 138.78125 765.917969 142.113281 752.5 144 C 738.222656 147.140625 725.222656 152.972656 713.5 161.5 C 709.890625 177.957031 712.058594 193.621094 720 208.5 C 724.074219 216.3125 728.910156 223.648438 734.5 230.5 C 759.234375 230.199219 783.570312 233.035156 807.5 239 C 817.71875 243.199219 826.21875 249.699219 833 258.5 C 834.085938 264.179688 835.253906 269.847656 836.5 275.5 C 835.628906 281.410156 832.628906 285.910156 827.5 289 C 816.484375 295.507812 805.148438 301.507812 793.5 307 C 776.96875 312.839844 760.632812 318.839844 744.5 325 C 734.097656 326.511719 723.761719 328.34375 713.5 330.5 C 709.191406 329.800781 704.859375 329.464844 700.5 329.5 C 700.140625 325.492188 699.640625 321.492188 699 317.5 C 698.332031 257.832031 698.332031 198.167969 699 138.5 C 701.917969 119.949219 703.085938 101.285156 702.5 82.5 C 712.171875 82.667969 721.839844 82.5 731.5 82 C 733.058594 81.789062 734.390625 81.289062 735.5 80.5 Z M 735.5 80.5 "/>
</g>
<mask id="mask3">
  <g filter="url(#alpha)">
<rect x="0" y="0" width="1161" height="397" style="fill:rgb(0%,0%,0%);fill-opacity:0.968627;stroke:none;"/>
  </g>
</mask>
<clipPath id="clip4">
  <rect x="0" y="0" width="1161" height="397"/>
</clipPath>
<g id="surface14" clip-path="url(#clip4)">
<path style=" stroke:none;fill-rule:evenodd;fill:rgb(8.235294%,8.627451%,8.235294%);fill-opacity:1;" d="M 1031.5 41.5 C 1059.550781 39.375 1086.890625 42.542969 1113.5 51 C 1118.449219 52.050781 1123.449219 52.550781 1128.5 52.5 C 1126.5 59.671875 1125 67.003906 1124 74.5 C 1122.828125 78.332031 1120.328125 80.832031 1116.5 82 C 1104.828125 82.667969 1093.171875 82.667969 1081.5 82 C 1079.378906 80.417969 1077.210938 80.25 1075 81.5 C 1074.5 84.816406 1074.328125 88.148438 1074.5 91.5 C 1063.75 89.253906 1053.75 85.253906 1044.5 79.5 C 1043.738281 80.628906 1043.070312 81.792969 1042.5 83 C 1044.441406 83.90625 1045.441406 85.40625 1045.5 87.5 C 1041.910156 87.730469 1038.75 86.730469 1036 84.5 C 1033.289062 87.121094 1032.789062 90.121094 1034.5 93.5 C 1033.878906 97.007812 1032.878906 100.339844 1031.5 103.5 C 1033.019531 107.621094 1033.851562 111.957031 1034 116.5 C 1037.878906 118.710938 1039.378906 122.046875 1038.5 126.5 C 1040.480469 126.382812 1042.148438 127.050781 1043.5 128.5 C 1044.390625 132.210938 1045.390625 135.878906 1046.5 139.5 C 1044.75 142.296875 1045.421875 144.464844 1048.5 146 C 1054.050781 148.601562 1059.050781 151.9375 1063.5 156 C 1066.390625 156.632812 1069.230469 157.464844 1072 158.5 C 1079.230469 163.558594 1085.730469 169.558594 1091.5 176.5 C 1102.859375 186.523438 1114.519531 196.1875 1126.5 205.5 C 1128.890625 206.523438 1129.890625 205.523438 1129.5 202.5 C 1130.828125 202.5 1132.171875 202.5 1133.5 202.5 C 1132.671875 205.46875 1132.5 208.46875 1133 211.5 C 1136.328125 213.5 1139 216.167969 1141 219.5 C 1142.511719 225.207031 1144.179688 230.875 1146 236.5 C 1146.929688 254.171875 1147.769531 269.171875 1148.5 281.5 C 1149.5 281.5 1150.5 281.5 1151.5 281.5 C 1152.121094 286.085938 1150.949219 290.085938 1148 293.5 C 1148.558594 307.703125 1143.230469 319.035156 1132 327.5 C 1131.710938 329.042969 1131.039062 330.378906 1130 331.5 C 1130.449219 334.4375 1130.949219 337.4375 1131.5 340.5 C 1129.089844 340.078125 1127.261719 338.746094 1126 336.5 C 1124.808594 338.675781 1122.980469 339.675781 1120.5 339.5 C 1120.738281 336.738281 1122.078125 334.570312 1124.5 333 C 1124.171875 332.832031 1123.828125 332.667969 1123.5 332.5 C 1116.671875 336.1875 1110 340.023438 1103.5 344 C 1101.191406 344.660156 1098.851562 345.160156 1096.5 345.5 C 1096.5 346.5 1096.5 347.5 1096.5 348.5 C 1090.140625 348.679688 1084.140625 350.179688 1078.5 353 C 1082.859375 353.535156 1087.191406 353.367188 1091.5 352.5 C 1091.640625 354.125 1090.96875 355.289062 1089.5 356 C 1083.5 356.988281 1077.671875 356.488281 1072 354.5 C 1062.320312 357.617188 1052.480469 360.117188 1042.5 362 C 1038.859375 365.394531 1034.691406 366.226562 1030 364.5 C 1022.328125 365.167969 1014.671875 365.832031 1007 366.5 C 1004.28125 368.394531 1002.109375 370.894531 1000.5 374 C 997.9375 375.078125 995.269531 375.578125 992.5 375.5 C 992.5 374.5 992.5 373.5 992.5 372.5 C 996.355469 372.40625 999.019531 370.570312 1000.5 367 C 990.21875 367.589844 979.886719 367.589844 969.5 367 C 954.167969 361.667969 944.335938 351.167969 940 335.5 C 939.230469 327.804688 939.398438 320.136719 940.5 312.5 C 938.476562 308.453125 936.476562 304.453125 934.5 300.5 C 934.667969 299.5 934.832031 298.5 935 297.5 C 937.226562 299.605469 939.226562 301.941406 941 304.5 C 941.691406 303.976562 942.191406 303.308594 942.5 302.5 C 940.863281 299.695312 939.027344 297.027344 937 294.5 C 935.976562 280.671875 936.976562 267.007812 940 253.5 C 941.417969 252.539062 942.917969 251.707031 944.5 251 C 954.207031 250.214844 963.875 250.546875 973.5 252 C 974.667969 253.167969 975.832031 254.332031 977 255.5 C 978.546875 260.046875 978.878906 264.714844 978 269.5 C 974.390625 275.28125 970.558594 280.949219 966.5 286.5 C 971.5 299.167969 976.5 311.835938 981.5 324.5 C 980.167969 324.5 978.832031 324.5 977.5 324.5 C 973.746094 314.722656 969.910156 305.058594 966 295.5 C 965.667969 300.167969 965.332031 304.832031 965 309.5 C 960.984375 315.945312 959.652344 322.945312 961 330.5 C 965.402344 331.46875 969.902344 331.800781 974.5 331.5 C 974.5 332.5 974.5 333.5 974.5 334.5 C 971.101562 334.179688 967.769531 334.511719 964.5 335.5 C 967.171875 337.671875 969.507812 340.171875 971.5 343 C 985.496094 343.5 999.496094 343.667969 1013.5 343.5 C 1013.5 342.5 1013.5 341.5 1013.5 340.5 C 1032.789062 338.5625 1051.789062 335.230469 1070.5 330.5 C 1070.71875 331.675781 1070.390625 332.675781 1069.5 333.5 C 1053.160156 338.277344 1036.5 341.445312 1019.5 343 C 1036.441406 344.207031 1053.101562 342.707031 1069.5 338.5 C 1069.5 337.167969 1069.5 335.832031 1069.5 334.5 C 1071.449219 334.226562 1072.949219 334.894531 1074 336.5 C 1086.78125 331.382812 1098.28125 324.214844 1108.5 315 C 1123.5 295.675781 1130.660156 273.84375 1130 249.5 C 1128.660156 245.28125 1127.820312 240.945312 1127.5 236.5 C 1125.5 236.5 1123.5 236.5 1121.5 236.5 C 1121.289062 234.855469 1121.621094 233.355469 1122.5 232 C 1121.210938 231.511719 1119.871094 231.34375 1118.5 231.5 C 1117.828125 227.65625 1115.5 225.15625 1111.5 224 C 1090.621094 215.578125 1069.621094 208.578125 1048.5 203 C 1034.671875 197.171875 1023.171875 188.335938 1014 176.5 C 1006.800781 160.570312 999.464844 144.570312 992 128.5 C 989.996094 120.472656 989.164062 112.308594 989.5 104 C 988.382812 92.640625 990.21875 81.808594 995 71.5 C 1001.351562 63.648438 1008.519531 56.648438 1016.5 50.5 C 1014.660156 48.019531 1013.320312 45.351562 1012.5 42.5 C 1016 43.058594 1018.5 45.058594 1020 48.5 C 1023.761719 45.875 1027.601562 43.542969 1031.5 41.5 Z M 1031.5 41.5 "/>
</g>
<mask id="mask4">
  <g filter="url(#alpha)">
<rect x="0" y="0" width="1161" height="397" style="fill:rgb(0%,0%,0%);fill-opacity:0.960784;stroke:none;"/>
  </g>
</mask>
<clipPath id="clip5">
  <rect x="0" y="0" width="1161" height="397"/>
</clipPath>
<g id="surface17" clip-path="url(#clip5)">
<path style=" stroke:none;fill-rule:evenodd;fill:rgb(5.882353%,5.882353%,5.882353%);fill-opacity:1;" d="M 700.5 68.5 C 701.117188 68.609375 701.617188 68.945312 702 69.5 C 702.496094 72.816406 702.664062 76.148438 702.5 79.5 C 727.113281 77.816406 751.78125 77.316406 776.5 78 C 785.269531 78.941406 793.601562 81.273438 801.5 85 C 805.863281 87.875 809.699219 91.375 813 95.5 C 813.933594 109.089844 809.933594 121.089844 801 131.5 C 800.511719 132.792969 800.34375 134.128906 800.5 135.5 C 791.257812 138.621094 781.925781 141.453125 772.5 144 C 752.816406 146.339844 734.480469 152.671875 717.5 163 C 715.054688 166.59375 714.054688 170.59375 714.5 175 C 715.097656 182.996094 716.597656 190.828125 719 198.5 C 722.984375 205.800781 726.984375 213.136719 731 220.5 C 733.363281 223.035156 735.863281 225.367188 738.5 227.5 C 762.21875 227.484375 785.550781 230.316406 808.5 236 C 820.742188 240.582031 830.242188 248.414062 837 259.5 C 837.675781 265.195312 838.507812 270.863281 839.5 276.5 C 839.703125 279.796875 838.871094 282.796875 837 285.5 C 834.40625 287.550781 831.90625 289.714844 829.5 292 C 821.886719 295.96875 814.554688 300.300781 807.5 305 C 787.035156 312.421875 766.699219 320.085938 746.5 328 C 730.734375 332.09375 714.734375 333.425781 698.5 332 C 697.207031 327.964844 696.375 323.796875 696 319.5 C 695.332031 258.832031 695.332031 198.167969 696 137.5 C 698.765625 114.535156 700.265625 91.535156 700.5 68.5 Z M 735.5 80.5 C 734.390625 81.289062 733.058594 81.789062 731.5 82 C 721.839844 82.5 712.171875 82.667969 702.5 82.5 C 703.085938 101.285156 701.917969 119.949219 699 138.5 C 698.332031 198.167969 698.332031 257.832031 699 317.5 C 699.640625 321.492188 700.140625 325.492188 700.5 329.5 C 704.859375 329.464844 709.191406 329.800781 713.5 330.5 C 723.761719 328.34375 734.097656 326.511719 744.5 325 C 760.632812 318.839844 776.96875 312.839844 793.5 307 C 805.148438 301.507812 816.484375 295.507812 827.5 289 C 832.628906 285.910156 835.628906 281.410156 836.5 275.5 C 835.253906 269.847656 834.085938 264.179688 833 258.5 C 826.21875 249.699219 817.71875 243.199219 807.5 239 C 783.570312 233.035156 759.234375 230.199219 734.5 230.5 C 728.910156 223.648438 724.074219 216.3125 720 208.5 C 712.058594 193.621094 709.890625 177.957031 713.5 161.5 C 725.222656 152.972656 738.222656 147.140625 752.5 144 C 765.917969 142.113281 778.917969 138.78125 791.5 134 C 795.949219 131.21875 799.613281 127.71875 802.5 123.5 C 805.550781 118.066406 808.050781 112.398438 810 106.5 C 811.074219 102.140625 810.40625 98.140625 808 94.5 C 805.195312 92.371094 802.363281 90.207031 799.5 88 C 792.296875 84.28125 784.628906 81.945312 776.5 81 C 762.835938 80.5 749.171875 80.332031 735.5 80.5 Z M 735.5 80.5 "/>
</g>
<mask id="mask5">
  <g filter="url(#alpha)">
<rect x="0" y="0" width="1161" height="397" style="fill:rgb(0%,0%,0%);fill-opacity:0.960784;stroke:none;"/>
  </g>
</mask>
<clipPath id="clip6">
  <rect x="0" y="0" width="1161" height="397"/>
</clipPath>
<g id="surface20" clip-path="url(#clip6)">
<path style=" stroke:none;fill-rule:evenodd;fill:rgb(8.235294%,8.235294%,8.235294%);fill-opacity:1;" d="M 438.5 79.5 C 454.671875 81.234375 469.671875 86.402344 483.5 95 C 490.390625 103.421875 497.890625 111.253906 506 118.5 C 507.867188 120.808594 508.867188 123.476562 509 126.5 C 509.894531 136.5625 509.5625 146.5625 508 156.5 C 501.964844 168.9375 497.296875 181.9375 494 195.5 C 485.382812 212.015625 478.714844 229.347656 474 247.5 C 468.628906 260.59375 462.296875 273.261719 455 285.5 C 437.441406 302.363281 416.941406 314.199219 393.5 321 C 386.5 321.667969 379.5 321.667969 372.5 321 C 368 317.832031 364.167969 314 361 309.5 C 347.089844 280.554688 343.089844 250.222656 349 218.5 C 351.910156 206.890625 354.574219 195.222656 357 183.5 C 362.710938 167.742188 368.710938 152.074219 375 136.5 C 382.582031 120.515625 392.746094 106.347656 405.5 94 C 410.15625 91.886719 414.488281 89.222656 418.5 86 C 423.691406 84.160156 429.023438 82.828125 434.5 82 C 436.320312 81.800781 437.652344 80.964844 438.5 79.5 Z M 436.5 84.5 C 431.207031 85.660156 425.875 87.160156 420.5 89 C 407.101562 96.394531 396.269531 106.5625 388 119.5 C 371.152344 151.039062 359.152344 184.375 352 219.5 C 349.367188 235.128906 349.035156 250.796875 351 266.5 C 353.867188 278.300781 357.199219 289.96875 361 301.5 C 364.398438 307.898438 368.898438 313.398438 374.5 318 C 386.683594 319.164062 398.347656 317.164062 409.5 312 C 419.957031 306.269531 430.289062 300.269531 440.5 294 C 444.980469 290.6875 448.980469 286.851562 452.5 282.5 C 463.472656 264.761719 471.640625 245.761719 477 225.5 C 486.96875 203.277344 495.96875 180.609375 504 157.5 C 506.90625 145.917969 507.238281 134.253906 505 122.5 C 497.816406 115.984375 491.316406 108.816406 485.5 101 C 471.34375 89.226562 455.011719 83.726562 436.5 84.5 Z M 436.5 84.5 "/>
</g>
<mask id="mask6">
  <g filter="url(#alpha)">
<rect x="0" y="0" width="1161" height="397" style="fill:rgb(0%,0%,0%);fill-opacity:0.352941;stroke:none;"/>
  </g>
</mask>
<clipPath id="clip7">
  <rect x="0" y="0" width="1161" height="397"/>
</clipPath>
<g id="surface23" clip-path="url(#clip7)">
<path style=" stroke:none;fill-rule:evenodd;fill:rgb(44.313725%,44.313725%,44.313725%);fill-opacity:1;" d="M 1150.5 208.5 C 1152.339844 208.640625 1152.671875 209.304688 1151.5 210.5 C 1150.699219 210.042969 1150.371094 209.375 1150.5 208.5 Z M 1150.5 208.5 "/>
</g>
<mask id="mask7">
  <g filter="url(#alpha)">
<rect x="0" y="0" width="1161" height="397" style="fill:rgb(0%,0%,0%);fill-opacity:0.156863;stroke:none;"/>
  </g>
</mask>
<clipPath id="clip8">
  <rect x="0" y="0" width="1161" height="397"/>
</clipPath>
<g id="surface26" clip-path="url(#clip8)">
<path style=" stroke:none;fill-rule:evenodd;fill:rgb(72.156863%,72.54902%,72.156863%);fill-opacity:1;" d="M 874.5 304.5 C 875.832031 305.167969 875.832031 305.167969 874.5 304.5 Z M 874.5 304.5 "/>
</g>
<mask id="mask8">
  <g filter="url(#alpha)">
<rect x="0" y="0" width="1161" height="397" style="fill:rgb(0%,0%,0%);fill-opacity:0.0627451;stroke:none;"/>
  </g>
</mask>
<clipPath id="clip9">
  <rect x="0" y="0" width="1161" height="397"/>
</clipPath>
<g id="surface29" clip-path="url(#clip9)">
<path style=" stroke:none;fill-rule:evenodd;fill:rgb(81.568627%,81.960784%,81.568627%);fill-opacity:1;" d="M 767.5 371.5 C 768.832031 372.167969 768.832031 372.167969 767.5 371.5 Z M 767.5 371.5 "/>
</g>
</defs>
<g id="surface1">
<use xlink:href="#surface5" mask="url(#mask0)"/>
<path style=" stroke:none;fill-rule:evenodd;fill:rgb(98.039216%,69.411765%,79.607843%);fill-opacity:1;" d="M 428.5 24.5 C 439.886719 23.574219 450.886719 25.074219 461.5 29 C 440.179688 38.109375 418.179688 44.773438 395.5 49 C 398.066406 44.394531 402.066406 42.058594 407.5 42 C 409.664062 38.015625 412.332031 34.347656 415.5 31 C 419.980469 28.910156 424.3125 26.742188 428.5 24.5 Z M 428.5 24.5 "/>
<use xlink:href="#surface8" mask="url(#mask1)"/>
<path style=" stroke:none;fill-rule:evenodd;fill:rgb(100%,94.901961%,0.784314%);fill-opacity:1;" d="M 55.5 31.5 C 62.125 30.652344 67.289062 32.984375 71 38.5 C 73.382812 43.597656 74.882812 48.929688 75.5 54.5 C 76.875 54.65625 78.207031 54.488281 79.5 54 C 82.628906 49.039062 86.296875 44.539062 90.5 40.5 C 93.984375 38.90625 97.652344 38.238281 101.5 38.5 C 103.121094 41.96875 104.285156 45.632812 105 49.5 C 105.675781 55.882812 106.675781 62.21875 108 68.5 C 106.574219 96.476562 106.074219 124.476562 106.5 152.5 C 107.820312 152.671875 108.988281 152.335938 110 151.5 C 112.195312 145.910156 114.195312 140.242188 116 134.5 C 130.980469 112.226562 147.648438 91.226562 166 71.5 C 179.488281 55.496094 195.652344 43.160156 214.5 34.5 C 215.554688 34.679688 216.554688 35.011719 217.5 35.5 C 234.433594 49.265625 250.601562 63.929688 266 79.5 C 273.679688 90.496094 281.679688 101.164062 290 111.5 C 290.683594 112.785156 290.515625 113.949219 289.5 115 C 280.328125 118.949219 271.328125 123.28125 262.5 128 C 245.667969 133.195312 228.667969 137.863281 211.5 142 C 199.238281 146.96875 186.902344 151.636719 174.5 156 C 159.308594 164.09375 144.308594 172.425781 129.5 181 C 128.941406 181.726562 128.609375 182.558594 128.5 183.5 C 129.953125 185.457031 131.621094 187.289062 133.5 189 C 161.226562 203.191406 188.5625 217.859375 215.5 233 C 236.398438 247.425781 255.398438 264.09375 272.5 283 C 253.28125 290.84375 234.78125 300.007812 217 310.5 C 205.867188 293.085938 195.867188 275.085938 187 256.5 C 176.667969 243.167969 166.332031 229.832031 156 216.5 C 151.261719 212.214844 146.425781 208.046875 141.5 204 C 136.882812 203.007812 132.214844 202.507812 127.5 202.5 C 129.207031 242.699219 125.707031 282.367188 117 321.5 C 116.207031 325.421875 116.375 329.257812 117.5 333 C 112.675781 333.617188 108.007812 332.949219 103.5 331 C 97.882812 328.132812 92.21875 325.464844 86.5 323 C 78.441406 321.585938 70.773438 322.585938 63.5 326 C 56.6875 333.214844 49.355469 339.714844 41.5 345.5 C 31.523438 342.011719 22.191406 337.175781 13.5 331 C 19.308594 330.585938 23.308594 327.75 25.5 322.5 C 26.386719 323.324219 26.71875 324.324219 26.5 325.5 C 27.5 325.5 28.5 325.5 29.5 325.5 C 27.234375 302.921875 25.734375 280.253906 25 257.5 C 22.875 251.21875 20.875 244.882812 19 238.5 C 18.539062 198.445312 16.871094 158.445312 14 118.5 C 13.574219 96.148438 13.242188 73.8125 13 51.5 C 14.007812 53.023438 14.507812 54.691406 14.5 56.5 C 16.449219 56.773438 17.949219 56.105469 19 54.5 C 21.429688 48.78125 22.929688 42.78125 23.5 36.5 C 27.519531 35.496094 31.519531 35.496094 35.5 36.5 C 36.933594 42.421875 37.933594 48.421875 38.5 54.5 C 39.5 54.5 40.5 54.5 41.5 54.5 C 41.980469 47.5625 44.148438 41.230469 48 35.5 C 50.515625 33.996094 53.015625 32.664062 55.5 31.5 Z M 55.5 31.5 "/>
<path style=" stroke:none;fill-rule:evenodd;fill:rgb(95.686275%,69.411765%,78.823529%);fill-opacity:1;" d="M 463.5 31.5 C 467.738281 31.78125 471.738281 32.949219 475.5 35 C 468.539062 36.332031 461.539062 36.664062 454.5 36 C 457.722656 34.640625 460.722656 33.140625 463.5 31.5 Z M 463.5 31.5 "/>
<path style=" stroke:none;fill-rule:evenodd;fill:rgb(96.470588%,69.019608%,78.823529%);fill-opacity:1;" d="M 506.5 43.5 C 500.976562 44.195312 495.640625 45.53125 490.5 47.5 C 484.589844 45.683594 478.589844 44.183594 472.5 43 C 475.972656 41.855469 478.472656 39.691406 480 36.5 C 489.089844 38.277344 497.921875 40.609375 506.5 43.5 Z M 506.5 43.5 "/>
<path style=" stroke:none;fill-rule:evenodd;fill:rgb(97.254902%,69.803922%,79.607843%);fill-opacity:1;" d="M 445.5 38.5 C 454.824219 39.605469 464.160156 39.773438 473.5 39 C 471.546875 39.953125 469.878906 41.285156 468.5 43 C 456.167969 43.667969 443.832031 43.667969 431.5 43 C 436.242188 41.363281 440.910156 39.863281 445.5 38.5 Z M 445.5 38.5 "/>
<use xlink:href="#surface11" mask="url(#mask2)"/>
<use xlink:href="#surface14" mask="url(#mask3)"/>
<path style=" stroke:none;fill-rule:evenodd;fill:rgb(96.470588%,68.627451%,78.431373%);fill-opacity:1;" d="M 506.5 43.5 C 518.148438 45.414062 529.484375 48.582031 540.5 53 C 532.027344 55.589844 523.359375 56.589844 514.5 56 C 511.523438 54.511719 508.523438 53.011719 505.5 51.5 C 507.476562 48.957031 507.8125 46.289062 506.5 43.5 Z M 506.5 43.5 "/>
<path style=" stroke:none;fill-rule:evenodd;fill:rgb(6.666667%,64.705882%,92.941176%);fill-opacity:1;" d="M 774.5 43.5 C 804.683594 42.605469 834.015625 46.769531 862.5 56 C 864.339844 58.828125 865.007812 61.992188 864.5 65.5 C 857.777344 65.289062 851.113281 65.789062 844.5 67 C 843 72.148438 843.832031 76.980469 847 81.5 C 857.910156 93.914062 864.410156 108.414062 866.5 125 C 866.507812 128.484375 865.507812 131.652344 863.5 134.5 C 847.113281 141.191406 831.78125 149.691406 817.5 160 C 802.835938 161.585938 788.167969 163.25 773.5 165 C 771.417969 171.394531 769.917969 177.894531 769 184.5 C 767.289062 187.894531 764.457031 189.394531 760.5 189 C 759.398438 191.402344 759.230469 193.902344 760 196.5 C 763.359375 200.757812 767.523438 203.925781 772.5 206 C 795.273438 213.527344 818.609375 218.859375 842.5 222 C 846.007812 222.421875 849.34375 223.421875 852.5 225 C 860.988281 231.824219 869.15625 238.988281 877 246.5 C 881.136719 251.472656 882.46875 257.140625 881 263.5 C 876.824219 270.515625 872.160156 277.183594 867 283.5 C 866.527344 285.246094 865.863281 286.914062 865 288.5 C 863.808594 296.105469 863.144531 303.769531 863 311.5 C 854.921875 331.246094 841.085938 345.414062 821.5 354 C 791.589844 354.21875 761.757812 355.71875 732 358.5 C 714.539062 356.804688 697.039062 355.804688 679.5 355.5 C 677.960938 314.191406 676.960938 272.855469 676.5 231.5 C 678.105469 205.988281 679.773438 180.488281 681.5 155 C 679.796875 131.863281 679.296875 108.695312 680 85.5 C 682.488281 73.949219 684.320312 62.285156 685.5 50.5 C 701.84375 50.066406 718.175781 48.566406 734.5 46 C 748.015625 45.558594 761.347656 44.722656 774.5 43.5 Z M 735.5 80.5 C 734.390625 81.289062 733.058594 81.789062 731.5 82 C 721.839844 82.5 712.171875 82.667969 702.5 82.5 C 703.085938 101.285156 701.917969 119.949219 699 138.5 C 698.332031 198.167969 698.332031 257.832031 699 317.5 C 699.640625 321.492188 700.140625 325.492188 700.5 329.5 C 704.859375 329.464844 709.191406 329.800781 713.5 330.5 C 723.761719 328.34375 734.097656 326.511719 744.5 325 C 760.632812 318.839844 776.96875 312.839844 793.5 307 C 805.148438 301.507812 816.484375 295.507812 827.5 289 C 832.628906 285.910156 835.628906 281.410156 836.5 275.5 C 835.253906 269.847656 834.085938 264.179688 833 258.5 C 826.21875 249.699219 817.71875 243.199219 807.5 239 C 783.570312 233.035156 759.234375 230.199219 734.5 230.5 C 728.910156 223.648438 724.074219 216.3125 720 208.5 C 712.058594 193.621094 709.890625 177.957031 713.5 161.5 C 725.222656 152.972656 738.222656 147.140625 752.5 144 C 765.917969 142.113281 778.917969 138.78125 791.5 134 C 795.949219 131.21875 799.613281 127.71875 802.5 123.5 C 805.550781 118.066406 808.050781 112.398438 810 106.5 C 811.074219 102.140625 810.40625 98.140625 808 94.5 C 805.195312 92.371094 802.363281 90.207031 799.5 88 C 792.296875 84.28125 784.628906 81.945312 776.5 81 C 762.835938 80.5 749.171875 80.332031 735.5 80.5 Z M 735.5 80.5 "/>
<path style=" stroke:none;fill-rule:evenodd;fill:rgb(5.490196%,69.411765%,20%);fill-opacity:1;" d="M 1034.5 44.5 C 1037.851562 44.335938 1041.179688 44.5 1044.5 45 C 1043.789062 46.253906 1042.960938 47.421875 1042 48.5 C 1041.050781 54.21875 1039.878906 59.886719 1038.5 65.5 C 1035.898438 66.714844 1033.398438 68.046875 1031 69.5 C 1026.519531 65.183594 1023.019531 60.183594 1020.5 54.5 C 1020.53125 52.96875 1021.199219 51.804688 1022.5 51 C 1026.691406 48.925781 1030.691406 46.757812 1034.5 44.5 Z M 1034.5 44.5 "/>
<path style=" stroke:none;fill-rule:evenodd;fill:rgb(0%,70.196078%,19.215686%);fill-opacity:1;" d="M 1092.5 48.5 C 1092.5 48.832031 1092.5 49.167969 1092.5 49.5 C 1087.488281 49.335938 1082.488281 49.5 1077.5 50 C 1075.179688 51.488281 1075.011719 53.320312 1077 55.5 C 1084.101562 56.371094 1091.261719 56.371094 1098.5 55.5 C 1098.839844 53.515625 1098.179688 52.183594 1096.5 51.5 C 1096.5 51.167969 1096.5 50.832031 1096.5 50.5 C 1105.410156 52.753906 1114.410156 54.421875 1123.5 55.5 C 1123.210938 62.851562 1121.550781 69.851562 1118.5 76.5 C 1116.890625 77.425781 1115.21875 78.261719 1113.5 79 C 1100.789062 80.300781 1088.289062 79.464844 1076 76.5 C 1074.289062 76.4375 1072.960938 77.105469 1072 78.5 C 1071.820312 81.554688 1071.320312 84.554688 1070.5 87.5 C 1063.300781 85.382812 1056.640625 82.214844 1050.5 78 C 1048.261719 77.023438 1045.929688 76.523438 1043.5 76.5 C 1042.949219 73.191406 1042.621094 69.859375 1042.5 66.5 C 1044.699219 66.433594 1046.699219 65.769531 1048.5 64.5 C 1048.109375 63.28125 1047.28125 62.613281 1046 62.5 C 1044.839844 63.1875 1043.671875 63.351562 1042.5 63 C 1043.488281 59.242188 1044.320312 55.40625 1045 51.5 C 1046.878906 49.472656 1048.050781 47.140625 1048.5 44.5 C 1063.328125 44.296875 1078 45.628906 1092.5 48.5 Z M 1092.5 48.5 "/>
<path style=" stroke:none;fill-rule:evenodd;fill:rgb(99.215686%,69.411765%,80%);fill-opacity:1;" d="M 425.5 46.5 C 438.832031 46.5 452.167969 46.5 465.5 46.5 C 465.285156 48.144531 465.621094 49.644531 466.5 51 C 474.019531 51.710938 481.519531 51.542969 489 50.5 C 493.289062 51.113281 497.457031 52.113281 501.5 53.5 C 501.285156 55.144531 501.621094 56.644531 502.5 58 C 507.082031 59.144531 511.75 59.8125 516.5 60 C 528.691406 65.910156 540.027344 72.910156 550.5 81 C 551.6875 82.019531 552.6875 83.1875 553.5 84.5 C 549.707031 88.078125 548.207031 92.410156 549 97.5 C 554.6875 99.019531 560.523438 99.851562 566.5 100 C 577.007812 114.207031 580.507812 130.039062 577 147.5 C 576.519531 151.59375 575.355469 155.425781 573.5 159 C 573.832031 160 574.167969 161 574.5 162 C 571.464844 178.890625 566.296875 195.058594 559 210.5 C 554.367188 216.136719 549.367188 221.46875 544 226.5 C 543.28125 228.113281 543.445312 229.613281 544.5 231 C 546.472656 231.496094 548.472656 231.660156 550.5 231.5 C 539.359375 270.960938 518.691406 304.460938 488.5 332 C 477.949219 340.078125 466.28125 346.078125 453.5 350 C 429.25 357.128906 404.585938 362.128906 379.5 365 C 360.257812 367.015625 341.925781 364.015625 324.5 356 C 317.734375 348.398438 313.234375 339.5625 311 329.5 C 309.019531 322.125 307.855469 314.625 307.5 307 C 309.144531 275.796875 313.308594 244.964844 320 214.5 C 325.480469 196.894531 331.480469 179.5625 338 162.5 C 345.160156 149.027344 351.160156 135.027344 356 120.5 C 360.417969 111.933594 364.085938 102.933594 367 93.5 C 371.136719 85.457031 375.46875 77.457031 380 69.5 C 384.046875 64.574219 388.214844 59.738281 392.5 55 C 394.972656 53.539062 397.640625 52.539062 400.5 52 C 413.425781 50.71875 426.09375 51.882812 438.5 55.5 C 439.730469 54.347656 439.730469 53.183594 438.5 52 C 432.800781 50.449219 427.136719 49.117188 421.5 48 C 423.058594 47.789062 424.390625 47.289062 425.5 46.5 Z M 436.5 84.5 C 431.207031 85.660156 425.875 87.160156 420.5 89 C 407.101562 96.394531 396.269531 106.5625 388 119.5 C 371.152344 151.039062 359.152344 184.375 352 219.5 C 349.367188 235.128906 349.035156 250.796875 351 266.5 C 353.867188 278.300781 357.199219 289.96875 361 301.5 C 364.398438 307.898438 368.898438 313.398438 374.5 318 C 386.683594 319.164062 398.347656 317.164062 409.5 312 C 419.957031 306.269531 430.289062 300.269531 440.5 294 C 444.980469 290.6875 448.980469 286.851562 452.5 282.5 C 463.472656 264.761719 471.640625 245.761719 477 225.5 C 486.96875 203.277344 495.96875 180.609375 504 157.5 C 506.90625 145.917969 507.238281 134.253906 505 122.5 C 497.816406 115.984375 491.316406 108.816406 485.5 101 C 471.34375 89.226562 455.011719 83.726562 436.5 84.5 Z M 436.5 84.5 "/>
<path style=" stroke:none;fill-rule:evenodd;fill:rgb(99.607843%,73.333333%,82.745098%);fill-opacity:1;" d="M 469.5 46.5 C 473.246094 46.390625 476.914062 46.890625 480.5 48 C 476.5 48.667969 472.5 48.667969 468.5 48 C 469.054688 47.617188 469.390625 47.117188 469.5 46.5 Z M 469.5 46.5 "/>
<path style=" stroke:none;fill-rule:evenodd;fill:rgb(87.45098%,68.627451%,75.294118%);fill-opacity:1;" d="M 502.5 46.5 C 504.488281 46.992188 504.488281 48.160156 502.5 50 C 500.15625 50.167969 497.820312 49.835938 495.5 49 C 498.105469 48.609375 500.4375 47.777344 502.5 46.5 Z M 502.5 46.5 "/>
<path style=" stroke:none;fill-rule:evenodd;fill:rgb(10.196078%,7.058824%,6.27451%);fill-opacity:1;" d="M 1092.5 49.5 C 1093.671875 50.34375 1095 51.011719 1096.5 51.5 C 1098.179688 52.183594 1098.839844 53.515625 1098.5 55.5 C 1091.261719 56.371094 1084.101562 56.371094 1077 55.5 C 1075.011719 53.320312 1075.179688 51.488281 1077.5 50 C 1082.488281 49.5 1087.488281 49.335938 1092.5 49.5 Z M 1092.5 49.5 "/>
<path style=" stroke:none;fill-rule:evenodd;fill:rgb(83.137255%,83.137255%,83.137255%);fill-opacity:1;" d="M 1092.5 48.5 C 1094.148438 48.660156 1095.488281 49.328125 1096.5 50.5 C 1096.5 50.832031 1096.5 51.167969 1096.5 51.5 C 1095 51.011719 1093.671875 50.34375 1092.5 49.5 C 1092.5 49.167969 1092.5 48.832031 1092.5 48.5 Z M 1092.5 48.5 "/>
<path style=" stroke:none;fill-rule:evenodd;fill:rgb(1.568627%,69.803922%,19.607843%);fill-opacity:1;" d="M 1010.5 61.5 C 1011.78125 59.054688 1013.609375 57.054688 1016 55.5 C 1020.210938 60.714844 1024.039062 66.214844 1027.5 72 C 1023.691406 76.816406 1019.519531 81.316406 1015 85.5 C 1012.949219 87.519531 1013.109375 89.1875 1015.5 90.5 C 1016.851562 87.804688 1018.679688 85.46875 1021 83.5 C 1020.019531 85.898438 1018.851562 88.398438 1017.5 91 C 1017.890625 93.199219 1018.890625 93.699219 1020.5 92.5 C 1022.800781 88.367188 1025.300781 84.367188 1028 80.5 C 1028.488281 78.867188 1028.660156 77.199219 1028.5 75.5 C 1031.191406 76.664062 1033.519531 78.496094 1035.5 81 C 1032.671875 81.167969 1031.171875 82.667969 1031 85.5 C 1030.699219 91.777344 1029.871094 97.945312 1028.5 104 C 1029.839844 108.992188 1030.671875 114.160156 1031 119.5 C 1034.878906 121.710938 1036.378906 125.046875 1035.5 129.5 C 1037.480469 129.382812 1039.148438 130.050781 1040.5 131.5 C 1041.878906 136.398438 1042.710938 141.398438 1043 146.5 C 1043.828125 147.332031 1044.671875 148.167969 1045.5 149 C 1051.050781 151.601562 1056.050781 154.9375 1060.5 159 C 1065.660156 159.988281 1070.328125 161.824219 1074.5 164.5 C 1073.308594 170.101562 1072.648438 175.765625 1072.5 181.5 C 1068.859375 182.148438 1065.53125 183.648438 1062.5 186 C 1060.210938 189.960938 1057.050781 192.796875 1053 194.5 C 1043.359375 191.796875 1034.191406 187.964844 1025.5 183 C 1022.628906 180.464844 1020.128906 177.628906 1018 174.5 C 1013.179688 163.523438 1007.851562 152.855469 1002 142.5 C 998.464844 134.75 995.464844 126.75 993 118.5 C 991.855469 106.035156 992.519531 93.703125 995 81.5 C 997.550781 72.699219 1002.71875 66.03125 1010.5 61.5 Z M 1010.5 61.5 "/>
<path style=" stroke:none;fill-rule:evenodd;fill:rgb(93.333333%,68.627451%,77.254902%);fill-opacity:1;" d="M 539.5 56.5 C 540.871094 56.34375 542.207031 56.511719 543.5 57 C 540.582031 60.242188 538.082031 63.742188 536 67.5 C 532.066406 64.558594 527.902344 62.058594 523.5 60 C 528.96875 58.871094 534.300781 57.703125 539.5 56.5 Z M 539.5 56.5 "/>
<path style=" stroke:none;fill-rule:evenodd;fill:rgb(98.039216%,69.411765%,79.607843%);fill-opacity:1;" d="M 548.5 55.5 C 561.402344 61.082031 574.402344 66.582031 587.5 72 C 594.078125 75.246094 599.414062 79.914062 603.5 86 C 603.09375 86.945312 602.429688 87.613281 601.5 88 C 596.335938 89.351562 591.335938 91.019531 586.5 93 C 580.226562 94.753906 573.890625 95.753906 567.5 96 C 564 92 561 87.664062 558.5 83 C 560.9375 79.722656 563.601562 76.554688 566.5 73.5 C 567.746094 71.957031 567.746094 70.457031 566.5 69 C 560.425781 69.246094 554.425781 70.082031 548.5 71.5 C 544.9375 71.96875 541.9375 70.96875 539.5 68.5 C 542.273438 63.933594 545.273438 59.601562 548.5 55.5 Z M 548.5 55.5 "/>
<path style=" stroke:none;fill-rule:evenodd;fill:rgb(0%,0.784314%,0%);fill-opacity:1;" d="M 1010.5 61.5 C 1012 61.414062 1013 62.082031 1013.5 63.5 C 1011.390625 67.171875 1010.230469 71.171875 1010 75.5 C 1009.328125 90.5 1009.328125 105.5 1010 120.5 C 1010.308594 121.765625 1010.808594 122.933594 1011.5 124 C 1014.890625 124.246094 1018.21875 124.746094 1021.5 125.5 C 1022.210938 121.324219 1024.210938 117.988281 1027.5 115.5 C 1028.089844 115.710938 1028.589844 116.042969 1029 116.5 C 1023.449219 127.488281 1022.109375 139.152344 1025 151.5 C 1027.070312 152.265625 1029.238281 152.765625 1031.5 153 C 1031.960938 153.414062 1032.289062 153.914062 1032.5 154.5 C 1029.550781 155.65625 1026.550781 155.820312 1023.5 155 C 1022.539062 153.582031 1021.710938 152.082031 1021 150.5 C 1020.398438 142.421875 1020.398438 134.421875 1021 126.5 C 1017.589844 127.621094 1014.089844 127.789062 1010.5 127 C 1008.460938 125.765625 1007.289062 123.929688 1007 121.5 C 1006.328125 105.832031 1006.328125 90.167969 1007 74.5 C 1007.109375 69.796875 1008.28125 65.460938 1010.5 61.5 Z M 1010.5 61.5 "/>
<path style=" stroke:none;fill-rule:evenodd;fill:rgb(7.843137%,66.666667%,19.607843%);fill-opacity:1;" d="M 1037.5 68.5 C 1039.390625 70.792969 1040.390625 73.628906 1040.5 77 C 1040.371094 78.625 1039.871094 80.125 1039 81.5 C 1036.761719 78.925781 1034.921875 76.09375 1033.5 73 C 1034.699219 71.300781 1036.039062 69.800781 1037.5 68.5 Z M 1037.5 68.5 "/>
<use xlink:href="#surface17" mask="url(#mask4)"/>
<path style=" stroke:none;fill-rule:evenodd;fill:rgb(89.411765%,67.058824%,74.901961%);fill-opacity:1;" d="M 561.5 71.5 C 562.238281 71.367188 562.90625 71.535156 563.5 72 C 560.296875 74.867188 557.464844 78.035156 555 81.5 C 552.796875 78.960938 550.296875 76.792969 547.5 75 C 552.507812 74.710938 557.175781 73.542969 561.5 71.5 Z M 561.5 71.5 "/>
<use xlink:href="#surface20" mask="url(#mask5)"/>
<path style=" stroke:none;fill-rule:evenodd;fill:rgb(94.117647%,70.196078%,78.431373%);fill-opacity:1;" d="M 555.5 85.5 C 558.492188 88.5 561.160156 91.835938 563.5 95.5 C 559.507812 96.613281 555.507812 96.613281 551.5 95.5 C 552.292969 91.921875 553.625 88.589844 555.5 85.5 Z M 555.5 85.5 "/>
<path style=" stroke:none;fill-rule:evenodd;fill:rgb(98.431373%,98.431373%,98.431373%);fill-opacity:1;" d="M 611.5 87.5 C 613.335938 87.640625 613.671875 88.304688 612.5 89.5 C 611.703125 89.042969 611.367188 88.375 611.5 87.5 Z M 611.5 87.5 "/>
<path style=" stroke:none;fill-rule:evenodd;fill:rgb(97.254902%,69.019608%,79.215686%);fill-opacity:1;" d="M 603.5 89.5 C 607.125 88.859375 608.960938 90.195312 609 93.5 C 603.96875 97.898438 599.636719 102.898438 596 108.5 C 592.464844 114.40625 589.296875 120.570312 586.5 127 C 586.644531 127.773438 586.976562 128.4375 587.5 129 C 588.832031 129.167969 590.167969 129.332031 591.5 129.5 C 598.214844 128.410156 604.546875 126.578125 610.5 124 C 600.996094 133.332031 590.996094 142.167969 580.5 150.5 C 580.601562 141.007812 580.433594 131.339844 580 121.5 C 577.628906 113.765625 574.464844 106.433594 570.5 99.5 C 575.828125 98.335938 581.160156 97.167969 586.5 96 C 591.644531 93.914062 596.976562 92.246094 602.5 91 C 603.054688 90.617188 603.390625 90.117188 603.5 89.5 Z M 603.5 89.5 "/>
<path style=" stroke:none;fill-rule:evenodd;fill:rgb(98.823529%,69.803922%,80%);fill-opacity:1;" d="M 610.5 95.5 C 611.496094 95.414062 612.328125 95.746094 613 96.5 C 623.207031 124.386719 622.875 152.050781 612 179.5 C 598.074219 210.019531 582.074219 239.351562 564 267.5 C 559.761719 272.316406 555.761719 277.316406 552 282.5 C 553.339844 279.425781 553.671875 276.09375 553 272.5 C 549.925781 271.710938 546.757812 271.210938 543.5 271 C 551.878906 263.621094 560.542969 256.621094 569.5 250 C 571.464844 247.832031 571.796875 245.5 570.5 243 C 567.5 242.667969 564.5 242.332031 561.5 242 C 563.863281 238.113281 566.363281 234.28125 569 230.5 C 569.667969 228.167969 569.667969 225.832031 569 223.5 C 567.9375 222.902344 566.773438 222.570312 565.5 222.5 C 562.003906 223.289062 558.671875 224.121094 555.5 225 C 557.664062 221.183594 559.832031 217.351562 562 213.5 C 570.035156 206.292969 577.871094 198.960938 585.5 191.5 C 586.957031 189.121094 586.621094 187.121094 584.5 185.5 C 581.238281 186.722656 577.902344 187.222656 574.5 187 C 580.476562 179.851562 587.476562 174.015625 595.5 169.5 C 595.113281 168.28125 594.28125 167.613281 593 167.5 C 589.222656 168.394531 585.390625 168.726562 581.5 168.5 C 581.359375 164.851562 582.023438 161.351562 583.5 158 C 583.011719 156.414062 582.011719 155.25 580.5 154.5 C 592.847656 144.3125 604.683594 133.648438 616 122.5 C 616.78125 120.679688 616.28125 119.347656 614.5 118.5 C 607.871094 121.097656 601.203125 123.597656 594.5 126 C 593.054688 126.78125 591.722656 126.613281 590.5 125.5 C 591.761719 122.398438 593.261719 119.398438 595 116.5 C 599.699219 109.070312 604.867188 102.070312 610.5 95.5 Z M 610.5 95.5 "/>
<path style=" stroke:none;fill-rule:evenodd;fill:rgb(0.392157%,2.745098%,0%);fill-opacity:1;" d="M 1031.5 135.5 C 1037.96875 147.359375 1043.808594 159.695312 1049 172.5 C 1049.828125 173.5 1050.671875 174.5 1051.5 175.5 C 1060.578125 177.78125 1060.578125 178.949219 1051.5 179 C 1049.449219 178.070312 1047.949219 176.570312 1047 174.5 C 1040.929688 162.363281 1035.429688 150.027344 1030.5 137.5 C 1030.859375 136.816406 1031.199219 136.148438 1031.5 135.5 Z M 1031.5 135.5 "/>
<path style=" stroke:none;fill-rule:evenodd;fill:rgb(91.764706%,68.627451%,76.862745%);fill-opacity:1;" d="M 577.5 161.5 C 578.382812 164.355469 578.546875 167.355469 578 170.5 C 580.40625 171.273438 582.90625 171.773438 585.5 172 C 581.03125 175.464844 576.867188 179.296875 573 183.5 C 574.167969 176.171875 575.667969 168.839844 577.5 161.5 Z M 577.5 161.5 "/>
<path style=" stroke:none;fill-rule:evenodd;fill:rgb(0.392157%,70.196078%,19.215686%);fill-opacity:1;" d="M 1077.5 168.5 C 1090.761719 180.421875 1104.101562 192.421875 1117.5 204.5 C 1118.660156 210.808594 1118.828125 217.140625 1118 223.5 C 1103.960938 216.703125 1089.460938 211.203125 1074.5 207 C 1072.890625 205.949219 1072.230469 204.449219 1072.5 202.5 C 1077.328125 203.101562 1082.171875 203.765625 1087 204.5 C 1088.5 204.167969 1090 203.832031 1091.5 203.5 C 1091.289062 202.914062 1090.960938 202.414062 1090.5 202 C 1084.789062 201.359375 1079.128906 200.523438 1073.5 199.5 C 1073.839844 194.777344 1074.511719 190.109375 1075.5 185.5 C 1076.5 185.167969 1077.5 184.832031 1078.5 184.5 C 1080.660156 184.765625 1082.328125 185.765625 1083.5 187.5 C 1084.851562 185.390625 1084.519531 183.554688 1082.5 182 C 1080.191406 181.503906 1077.859375 181.335938 1075.5 181.5 C 1075.269531 176.988281 1075.941406 172.65625 1077.5 168.5 Z M 1077.5 168.5 "/>
<path style=" stroke:none;fill-rule:evenodd;fill:rgb(0%,68.235294%,18.431373%);fill-opacity:1;" d="M 1070.5 184.5 C 1071.378906 184.367188 1072.039062 184.703125 1072.5 185.5 C 1071.460938 189.769531 1070.789062 194.101562 1070.5 198.5 C 1066.769531 197.808594 1063.109375 196.808594 1059.5 195.5 C 1061.238281 193.679688 1062.738281 191.679688 1064 189.5 C 1066.070312 187.5625 1068.238281 185.894531 1070.5 184.5 Z M 1070.5 184.5 "/>
<path style=" stroke:none;fill-rule:evenodd;fill:rgb(91.764706%,68.627451%,76.862745%);fill-opacity:1;" d="M 570.5 189.5 C 574.464844 190.503906 578.464844 190.671875 582.5 190 C 576.660156 196.171875 570.496094 202.003906 564 207.5 C 565.859375 201.441406 568.027344 195.441406 570.5 189.5 Z M 570.5 189.5 "/>
<path style=" stroke:none;fill-rule:evenodd;fill:rgb(1.176471%,65.882353%,18.039216%);fill-opacity:1;" d="M 1033.5 191.5 C 1038.898438 192.136719 1044.230469 193.96875 1049.5 197 C 1056.460938 197.574219 1063.128906 199.074219 1069.5 201.5 C 1069.761719 202.976562 1069.429688 204.3125 1068.5 205.5 C 1056.160156 202.390625 1044.488281 197.722656 1033.5 191.5 Z M 1033.5 191.5 "/>
<path style=" stroke:none;fill-rule:evenodd;fill:rgb(9.803922%,70.588235%,21.176471%);fill-opacity:1;" d="M 1121.5 206.5 C 1124.488281 208.253906 1126.988281 210.589844 1129 213.5 C 1129.839844 218.921875 1129.511719 224.253906 1128 229.5 C 1126 228.167969 1124 226.832031 1122 225.5 C 1121.5 219.175781 1121.328125 212.84375 1121.5 206.5 Z M 1121.5 206.5 "/>
<use xlink:href="#surface23" mask="url(#mask6)"/>
<path style=" stroke:none;fill-rule:evenodd;fill:rgb(9.803922%,69.803922%,21.176471%);fill-opacity:1;" d="M 1132.5 217.5 C 1133.5 217.414062 1134.328125 217.746094 1135 218.5 C 1136.328125 220.5 1137.671875 222.5 1139 224.5 C 1143.460938 236.828125 1144.960938 249.492188 1143.5 262.5 C 1141.160156 260.414062 1138.828125 260.25 1136.5 262 C 1138.921875 263.625 1141.421875 265.125 1144 266.5 C 1144.671875 275.5 1144.671875 284.5 1144 293.5 C 1142.671875 295.5 1141 297.167969 1139 298.5 C 1136.5 294.753906 1135.339844 295.421875 1135.5 300.5 C 1132.738281 298.453125 1129.738281 296.953125 1126.5 296 C 1126.171875 296.332031 1125.828125 296.667969 1125.5 297 C 1131.558594 303.90625 1130.730469 309.738281 1123 314.5 C 1122.039062 313.421875 1121.210938 312.253906 1120.5 311 C 1119.28125 310.4375 1118.28125 310.769531 1117.5 312 C 1120.320312 314.71875 1119.988281 317.050781 1116.5 319 C 1113.820312 319.25 1111.488281 320.25 1109.5 322 C 1099.488281 332.175781 1087.488281 339.011719 1073.5 342.5 C 1073.5 341.5 1073.5 340.5 1073.5 339.5 C 1093.261719 333.882812 1108.761719 322.546875 1120 305.5 C 1125.320312 294.523438 1129.660156 283.191406 1133 271.5 C 1134.039062 257.90625 1133.539062 244.40625 1131.5 231 C 1132.261719 226.53125 1132.601562 222.03125 1132.5 217.5 Z M 1132.5 217.5 "/>
<path style=" stroke:none;fill-rule:evenodd;fill:rgb(89.803922%,89.803922%,89.803922%);fill-opacity:1;" d="M 554.5 219.5 C 555.042969 219.558594 555.375 219.894531 555.5 220.5 C 553.296875 222.296875 552.132812 224.628906 552 227.5 C 550.613281 228.554688 549.113281 228.71875 547.5 228 C 549.722656 225.042969 552.054688 222.210938 554.5 219.5 Z M 554.5 219.5 "/>
<path style=" stroke:none;fill-rule:evenodd;fill:rgb(96.078431%,69.411765%,78.823529%);fill-opacity:1;" d="M 564.5 225.5 C 566.226562 225.84375 566.726562 226.84375 566 228.5 C 562.636719 232.527344 560.136719 237.027344 558.5 242 C 558.585938 243.105469 558.917969 244.105469 559.5 245 C 562.5 245.332031 565.5 245.667969 568.5 246 C 559.792969 254.097656 550.625 261.597656 541 268.5 C 545.816406 256.160156 550.148438 243.492188 554 230.5 C 557.675781 228.902344 561.175781 227.234375 564.5 225.5 Z M 564.5 225.5 "/>
<path style=" stroke:none;fill-rule:evenodd;fill:rgb(0.784314%,69.411765%,19.215686%);fill-opacity:1;" d="M 949.5 327.5 C 948.601562 326.402344 947.769531 326.402344 947 327.5 C 946.332031 329.5 946.332031 331.5 947 333.5 C 950.410156 334.292969 953.910156 334.792969 957.5 335 C 960.339844 339.328125 963.339844 343.496094 966.5 347.5 C 967.25 346.625 967.75 345.625 968 344.5 C 991.941406 346.320312 1016.109375 347.152344 1040.5 347 C 1030 353.386719 1018.839844 358.21875 1007 361.5 C 1005.519531 348.179688 1004.351562 348.179688 1003.5 361.5 C 983.765625 368.734375 966.597656 365.066406 952 350.5 C 948.046875 344.972656 945.046875 338.972656 943 332.5 C 942.332031 327.167969 942.332031 321.832031 943 316.5 C 943.585938 314.871094 944.417969 313.371094 945.5 312 C 944.425781 308.425781 944.761719 304.925781 946.5 301.5 C 945.761719 298.90625 945.761719 296.238281 946.5 293.5 C 944.5 293.832031 942.5 294.167969 940.5 294.5 C 939.207031 281.714844 940.039062 269.046875 943 256.5 C 944.171875 255.105469 945.671875 254.273438 947.5 254 C 955.207031 253.292969 962.875 253.628906 970.5 255 C 975.066406 257.585938 976.566406 261.421875 975 266.5 C 972.96875 271.855469 969.800781 276.355469 965.5 280 C 964.667969 280.6875 964.003906 280.519531 963.5 279.5 C 961.984375 276.46875 960.484375 273.46875 959 270.5 C 958.128906 271.109375 957.628906 271.941406 957.5 273 C 962.078125 280.945312 963.578125 289.445312 962 298.5 C 956.910156 291.320312 951.574219 284.320312 946 277.5 C 945.332031 276.167969 944.667969 276.167969 944 277.5 C 943.332031 278.5 943.332031 279.5 944 280.5 C 950.949219 288.109375 957.117188 296.277344 962.5 305 C 958.246094 312.90625 956.414062 321.40625 957 330.5 C 955.183594 328.59375 953.183594 326.929688 951 325.5 C 950.28125 326.042969 949.78125 326.710938 949.5 327.5 Z M 949.5 327.5 "/>
<path style=" stroke:none;fill-rule:evenodd;fill:rgb(96.470588%,70.588235%,79.607843%);fill-opacity:1;" d="M 537.5 272.5 C 541.527344 274.359375 545.859375 275.023438 550.5 274.5 C 549.515625 278.808594 547.679688 282.808594 545 286.5 C 539.039062 291.738281 534.539062 298.070312 531.5 305.5 C 526.167969 310.671875 520.167969 314.839844 513.5 318 C 506.65625 322.589844 499.988281 327.421875 493.5 332.5 C 493.167969 332.332031 492.832031 332.167969 492.5 332 C 511.554688 315.128906 526.554688 295.292969 537.5 272.5 Z M 537.5 272.5 "/>
<path style=" stroke:none;fill-rule:evenodd;fill:rgb(0%,69.019608%,18.823529%);fill-opacity:1;" d="M 1141.5 299.5 C 1142.5 299.5 1143.5 299.5 1144.5 299.5 C 1143.46875 305.574219 1141.300781 311.238281 1138 316.5 C 1137.390625 313.285156 1136.230469 310.285156 1134.5 307.5 C 1136.171875 304.171875 1138.5 301.503906 1141.5 299.5 Z M 1141.5 299.5 "/>
<use xlink:href="#surface26" mask="url(#mask7)"/>
<path style=" stroke:none;fill-rule:evenodd;fill:rgb(0%,61.176471%,15.686275%);fill-opacity:1;" d="M 1132.5 310.5 C 1134.519531 312.726562 1134.691406 315.058594 1133 317.5 C 1132.5 315.191406 1132.339844 312.855469 1132.5 310.5 Z M 1132.5 310.5 "/>
<path style=" stroke:none;fill-rule:evenodd;fill:rgb(0%,68.235294%,18.823529%);fill-opacity:1;" d="M 1128.5 313.5 C 1129.640625 316.976562 1129.808594 320.640625 1129 324.5 C 1128.328125 325.167969 1127.671875 325.832031 1127 326.5 C 1125.238281 323.390625 1124.410156 320.058594 1124.5 316.5 C 1126.621094 316.53125 1127.949219 315.53125 1128.5 313.5 Z M 1128.5 313.5 "/>
<path style=" stroke:none;fill-rule:evenodd;fill:rgb(0%,69.019608%,18.823529%);fill-opacity:1;" d="M 1118.5 320.5 C 1119.679688 320.28125 1120.679688 320.613281 1121.5 321.5 C 1124.199219 324.902344 1123.859375 327.734375 1120.5 330 C 1111.140625 336.179688 1101.140625 341.011719 1090.5 344.5 C 1089.171875 343.5 1087.828125 342.5 1086.5 341.5 C 1097.949219 335.457031 1108.621094 328.457031 1118.5 320.5 Z M 1118.5 320.5 "/>
<path style=" stroke:none;fill-rule:evenodd;fill:rgb(83.529412%,83.529412%,83.529412%);fill-opacity:1;" d="M 514.5 324.5 C 514.9375 322.925781 515.9375 321.757812 517.5 321 C 518.167969 320.332031 518.832031 320.332031 519.5 321 C 518.210938 322.800781 516.542969 323.96875 514.5 324.5 Z M 514.5 324.5 "/>
<path style=" stroke:none;fill-rule:evenodd;fill:rgb(0%,64.705882%,17.254902%);fill-opacity:1;" d="M 949.5 327.5 C 950.316406 329.144531 951.648438 330.308594 953.5 331 C 952.207031 331.488281 950.871094 331.65625 949.5 331.5 C 949.5 330.167969 949.5 328.832031 949.5 327.5 Z M 949.5 327.5 "/>
<path style=" stroke:none;fill-rule:evenodd;fill:rgb(3.529412%,68.627451%,19.215686%);fill-opacity:1;" d="M 1066.5 341.5 C 1067.980469 341.238281 1069.308594 341.570312 1070.5 342.5 C 1069.730469 343.710938 1068.890625 343.710938 1068 342.5 C 1066.128906 345.820312 1067.300781 347.15625 1071.5 346.5 C 1071.5 348.167969 1071.5 349.832031 1071.5 351.5 C 1062.738281 353.421875 1054.070312 355.753906 1045.5 358.5 C 1045.171875 358.332031 1044.828125 358.167969 1044.5 358 C 1047.789062 354.359375 1051.460938 351.195312 1055.5 348.5 C 1055.109375 347.28125 1054.28125 346.613281 1053 346.5 C 1047.859375 350.257812 1043.019531 354.421875 1038.5 359 C 1036.441406 359.3125 1034.441406 359.8125 1032.5 360.5 C 1031.910156 360.289062 1031.410156 359.957031 1031 359.5 C 1026.539062 362.082031 1021.710938 362.914062 1016.5 362 C 1027.570312 357.507812 1038.238281 352.175781 1048.5 346 C 1054.878906 345.449219 1060.878906 343.949219 1066.5 341.5 Z M 1066.5 341.5 "/>
<path style=" stroke:none;fill-rule:evenodd;fill:rgb(0%,69.019608%,18.823529%);fill-opacity:1;" d="M 1079.5 343.5 C 1082.421875 343.460938 1085.089844 344.292969 1087.5 346 C 1083.050781 346.925781 1078.890625 348.425781 1075 350.5 C 1074.511719 348.867188 1074.339844 347.199219 1074.5 345.5 C 1076.550781 345.597656 1078.21875 344.929688 1079.5 343.5 Z M 1079.5 343.5 "/>
<path style=" stroke:none;fill-rule:evenodd;fill:rgb(0.392157%,2.352941%,0%);fill-opacity:1;" d="M 979.5 347.5 C 984.996094 350.832031 988.328125 355.664062 989.5 362 C 989.167969 362.5 988.832031 363 988.5 363.5 C 986.058594 358.136719 982.722656 353.304688 978.5 349 C 979.054688 348.617188 979.390625 348.117188 979.5 347.5 Z M 979.5 347.5 "/>
<use xlink:href="#surface29" mask="url(#mask8)"/>
</g>
</svg>
