<?xml version="1.0" encoding="UTF-8"?>
<!DOCTYPE svg PUBLIC "-//W3C//DTD SVG 1.1//EN" "http://www.w3.org/Graphics/SVG/1.1/DTD/svg11.dtd">
<svg xmlns="http://www.w3.org/2000/svg" version="1.1" width="500px" height="500px" style="shape-rendering:geometricPrecision; text-rendering:geometricPrecision; image-rendering:optimizeQuality; fill-rule:evenodd; clip-rule:evenodd" xmlns:xlink="http://www.w3.org/1999/xlink">
<g><path style="opacity:0.997" fill="#858585" d="M 296.5,54.5 C 296.821,56.0481 297.821,56.7148 299.5,56.5C 302.513,57.3383 305.18,58.8383 307.5,61C 312.027,64.6987 316.361,68.532 320.5,72.5C 320.973,73.9063 321.973,74.573 323.5,74.5C 325.647,76.7368 327.98,78.7368 330.5,80.5C 331.545,81.8776 332.878,82.8776 334.5,83.5C 338.078,88.3197 341.412,93.3197 344.5,98.5C 344.285,100.179 344.952,101.179 346.5,101.5C 347.802,103.672 348.968,106.006 350,108.5C 353.082,111.076 355.582,114.076 357.5,117.5C 358.517,119.911 360.184,121.578 362.5,122.5C 363.833,123.167 364.833,124.167 365.5,125.5C 365.427,127.027 366.094,128.027 367.5,128.5C 368.34,130.853 369.674,132.853 371.5,134.5C 372.167,134.5 372.5,134.833 372.5,135.5C 373.11,137.434 374.11,139.101 375.5,140.5C 376.833,140.5 377.5,141.167 377.5,142.5C 378.628,145.438 379.795,148.438 381,151.5C 381.179,155.025 381.679,158.359 382.5,161.5C 383.026,163.23 384.026,164.564 385.5,165.5C 386.71,165.932 387.71,166.599 388.5,167.5C 389.99,169.28 391.99,169.946 394.5,169.5C 402.401,169.791 410.067,170.791 417.5,172.5C 418.167,173.833 419.167,174.833 420.5,175.5C 421.092,178.127 421.425,180.794 421.5,183.5C 421.5,184.167 421.167,184.5 420.5,184.5C 419.167,185.167 418.167,186.167 417.5,187.5C 417.5,188.833 416.833,189.5 415.5,189.5C 413.738,190.262 412.738,191.596 412.5,193.5C 411.003,195.29 410.336,197.456 410.5,200C 410.667,201.5 410.833,203 411,204.5C 411.383,205.056 411.883,205.389 412.5,205.5C 413.338,205.842 413.672,206.508 413.5,207.5C 413.75,209.674 414.75,211.341 416.5,212.5C 417.167,212.5 417.5,212.833 417.5,213.5C 418.329,216.469 418.495,219.469 418,222.5C 415.689,223.397 413.856,224.73 412.5,226.5C 410.62,226.229 409.287,226.896 408.5,228.5C 406.952,228.821 406.285,229.821 406.5,231.5C 406.5,232.167 406.167,232.5 405.5,232.5C 404.848,233.449 404.514,234.615 404.5,236C 404.307,238.008 404.974,239.508 406.5,240.5C 407.5,240.833 408.167,241.5 408.5,242.5C 408.427,244.027 409.094,245.027 410.5,245.5C 413.817,249.419 414.817,253.752 413.5,258.5C 412.094,258.973 411.427,259.973 411.5,261.5C 411.5,262.167 411.167,262.5 410.5,262.5C 408.167,262.833 406.833,264.167 406.5,266.5C 404.973,266.427 403.973,267.094 403.5,268.5C 403.167,269.5 402.5,270.167 401.5,270.5C 399.5,270.5 398.5,271.5 398.5,273.5C 395.749,277.689 396.083,281.689 399.5,285.5C 401.104,286.287 401.771,287.62 401.5,289.5C 402.026,291.23 403.026,292.564 404.5,293.5C 405.906,293.973 406.573,294.973 406.5,296.5C 407.265,299.633 407.932,302.8 408.5,306C 408.518,308.41 407.851,310.577 406.5,312.5C 406.167,313.5 405.5,314.167 404.5,314.5C 402.368,314.554 401.035,315.554 400.5,317.5C 400.5,318.167 400.167,318.5 399.5,318.5C 397.62,318.229 396.287,318.896 395.5,320.5C 395.5,321.833 394.833,322.5 393.5,322.5C 392.903,322.735 392.57,323.235 392.5,324C 394.882,325.543 396.215,327.71 396.5,330.5C 396.003,332.818 395.67,335.152 395.5,337.5C 392.889,344.14 392.889,350.807 395.5,357.5C 395.81,359.144 396.81,360.144 398.5,360.5C 398.953,362.565 399.953,364.232 401.5,365.5C 403.179,370.384 402.179,374.717 398.5,378.5C 397.599,379.29 396.932,380.29 396.5,381.5C 394.211,386.729 390.545,390.729 385.5,393.5C 384.094,393.973 383.427,394.973 383.5,396.5C 380.97,398.33 381.303,399.996 384.5,401.5C 384.259,403.898 384.926,405.898 386.5,407.5C 390.121,415.917 391.121,424.583 389.5,433.5C 387.896,434.287 387.229,435.62 387.5,437.5C 385.979,440.723 384.646,444.057 383.5,447.5C 383.34,449.153 382.674,450.486 381.5,451.5C 379.025,454.251 378.025,457.584 378.5,461.5C 378.5,463.167 378.5,464.833 378.5,466.5C 379.7,469.969 379.7,473.302 378.5,476.5C 370.174,465.839 361.84,455.172 353.5,444.5C 351.773,442.433 349.773,440.767 347.5,439.5C 338.863,432.969 330.196,426.636 321.5,420.5C 320.965,418.554 319.632,417.554 317.5,417.5C 316.833,417.5 316.5,417.167 316.5,416.5C 315.71,415.599 314.71,414.932 313.5,414.5C 309.951,413.277 306.951,411.277 304.5,408.5C 303.713,406.896 302.38,406.229 300.5,406.5C 294.71,402.433 288.71,398.599 282.5,395C 280.604,392.932 278.604,391.099 276.5,389.5C 275.33,387.721 273.664,386.721 271.5,386.5C 260.477,377.84 250.143,368.506 240.5,358.5C 241.745,356.011 240.745,354.678 237.5,354.5C 226.901,345.228 217.235,334.895 208.5,323.5C 208.068,322.29 207.401,321.29 206.5,320.5C 204.351,318.954 202.184,317.288 200,315.5C 195.825,310.469 191.659,305.469 187.5,300.5C 186.878,298.878 185.878,297.545 184.5,296.5C 178.012,290.903 171.512,285.237 165,279.5C 159.88,273.559 154.547,267.892 149,262.5C 147.25,260.266 145.75,257.932 144.5,255.5C 144.511,253.983 145.177,252.816 146.5,252C 144.934,251.7 143.601,252.2 142.5,253.5C 137.809,248.643 133.309,243.643 129,238.5C 126.579,234.929 124.413,231.262 122.5,227.5C 122.068,226.29 121.401,225.29 120.5,224.5C 119.167,223.833 118.167,222.833 117.5,221.5C 117.36,219.876 118.027,218.71 119.5,218C 118.207,217.51 116.873,217.343 115.5,217.5C 111.896,211.689 108.396,205.689 105,199.5C 104.338,197.187 103.838,194.854 103.5,192.5C 104.609,191.71 105.942,191.21 107.5,191C 105.497,190.665 103.83,189.832 102.5,188.5C 101.596,187.791 101.263,186.791 101.5,185.5C 101.178,179.642 101.511,173.975 102.5,168.5C 101.834,160.517 101.501,152.517 101.5,144.5C 101.116,140.511 101.783,136.845 103.5,133.5C 104.581,130.373 105.247,127.04 105.5,123.5C 107.163,121.562 107.829,119.228 107.5,116.5C 109.882,108 113.215,100 117.5,92.5C 118.906,92.0269 119.573,91.0269 119.5,89.5C 123.144,84.3373 126.644,79.004 130,73.5C 131.731,70.9319 133.898,68.9319 136.5,67.5C 138.833,66.5 140.5,64.8333 141.5,62.5C 143.19,62.1436 144.19,61.1436 144.5,59.5C 145.5,58.5 146.5,57.5 147.5,56.5C 149.801,55.9396 152.134,55.4396 154.5,55C 153.5,54.6667 152.5,54.3333 151.5,54C 152.381,53.2917 153.047,52.4584 153.5,51.5C 155.412,48.5389 158.079,46.5389 161.5,45.5C 163.38,45.7709 164.713,45.1042 165.5,43.5C 167.987,42.6772 170.321,41.6772 172.5,40.5C 175.023,39.6156 177.69,38.7823 180.5,38C 211.942,36.0219 242.942,38.6885 273.5,46C 281.601,47.9744 289.268,50.8078 296.5,54.5 Z"/></g>
<g><path style="opacity:0.875" fill="#000000" d="M 172.5,40.5 C 170.321,41.6772 167.987,42.6772 165.5,43.5C 167.09,41.179 169.423,40.179 172.5,40.5 Z"/></g>
<g><path style="opacity:0.875" fill="#000000" d="M 165.5,43.5 C 164.713,45.1042 163.38,45.7709 161.5,45.5C 162.514,44.3263 163.847,43.6596 165.5,43.5 Z"/></g>
<g><path style="opacity:0.894" fill="#000000" d="M 153.5,51.5 C 153.047,52.4584 152.381,53.2917 151.5,54C 152.5,54.3333 153.5,54.6667 154.5,55C 152.134,55.4396 149.801,55.9396 147.5,56.5C 144.375,55.5206 141.042,55.1872 137.5,55.5C 137.5,57.8333 137.5,60.1667 137.5,62.5C 137.5,62.8333 137.5,63.1667 137.5,63.5C 136.523,60.7131 136.19,57.7131 136.5,54.5C 141.214,54.8266 145.88,54.4933 150.5,53.5C 151.005,52.0815 152.005,51.4148 153.5,51.5 Z"/></g>
<g><path style="opacity:0.875" fill="#000000" d="M 296.5,54.5 C 297.71,54.9321 298.71,55.5987 299.5,56.5C 297.821,56.7148 296.821,56.0481 296.5,54.5 Z"/></g>
<g><path style="opacity:1" fill="#fefffe" d="M 147.5,56.5 C 146.5,57.5 145.5,58.5 144.5,59.5C 142.81,59.8564 141.81,60.8564 141.5,62.5C 140.25,62.5774 139.417,63.244 139,64.5C 138.601,64.2716 138.435,63.9382 138.5,63.5C 138.5,62.8333 138.167,62.5 137.5,62.5C 137.5,60.1667 137.5,57.8333 137.5,55.5C 141.042,55.1872 144.375,55.5206 147.5,56.5 Z"/></g>
<g><path style="opacity:1" fill="#000000" d="M 144.5,59.5 C 144.19,61.1436 143.19,62.1436 141.5,62.5C 141.81,60.8564 142.81,59.8564 144.5,59.5 Z"/></g>
<g><path style="opacity:0.937" fill="#000000" d="M 141.5,62.5 C 140.5,64.8333 138.833,66.5 136.5,67.5C 136.833,66.1667 137.167,64.8333 137.5,63.5C 137.833,63.5 138.167,63.5 138.5,63.5C 138.435,63.9382 138.601,64.2716 139,64.5C 139.417,63.244 140.25,62.5774 141.5,62.5 Z"/></g>
<g><path style="opacity:1" fill="#4c4c4c" d="M 191.5,68.5 C 194.253,67.3414 196.919,67.8414 199.5,70C 198.234,70.3095 197.067,70.8095 196,71.5C 194.32,70.5301 192.82,69.5301 191.5,68.5 Z"/></g>
<g><path style="opacity:0.875" fill="#000000" d="M 320.5,72.5 C 322.027,72.427 323.027,73.0937 323.5,74.5C 321.973,74.573 320.973,73.9063 320.5,72.5 Z"/></g>
<g><path style="opacity:0.875" fill="#000000" d="M 330.5,80.5 C 332.619,80.4677 333.952,81.4677 334.5,83.5C 332.878,82.8776 331.545,81.8776 330.5,80.5 Z"/></g>
<g><path style="opacity:0.875" fill="#000000" d="M 119.5,89.5 C 119.573,91.0269 118.906,92.0269 117.5,92.5C 117.427,90.9731 118.094,89.9731 119.5,89.5 Z"/></g>
<g><path style="opacity:0.875" fill="#000000" d="M 344.5,98.5 C 345.401,99.2905 346.068,100.29 346.5,101.5C 344.952,101.179 344.285,100.179 344.5,98.5 Z"/></g>
<g><path style="opacity:0.875" fill="#000000" d="M 107.5,116.5 C 107.829,119.228 107.163,121.562 105.5,123.5C 105.721,120.933 106.388,118.599 107.5,116.5 Z"/></g>
<g><path style="opacity:0.875" fill="#000000" d="M 357.5,117.5 C 359.816,118.422 361.483,120.089 362.5,122.5C 360.184,121.578 358.517,119.911 357.5,117.5 Z"/></g>
<g><path style="opacity:1" fill="#000000" d="M 226.5,119.5 C 226.56,118.957 226.893,118.624 227.5,118.5C 228.795,119.098 230.128,119.598 231.5,120C 229.735,120.64 228.068,120.473 226.5,119.5 Z"/></g>
<g><path style="opacity:0.875" fill="#000000" d="M 105.5,123.5 C 105.247,127.04 104.581,130.373 103.5,133.5C 103.159,129.84 103.825,126.507 105.5,123.5 Z"/></g>
<g><path style="opacity:0.875" fill="#000000" d="M 365.5,125.5 C 366.906,125.973 367.573,126.973 367.5,128.5C 366.094,128.027 365.427,127.027 365.5,125.5 Z"/></g>
<g><path style="opacity:0.875" fill="#000000" d="M 367.5,128.5 C 369.822,129.802 371.155,131.802 371.5,134.5C 369.674,132.853 368.34,130.853 367.5,128.5 Z"/></g>
<g><path style="opacity:0.875" fill="#000000" d="M 372.5,135.5 C 374.727,136.401 375.727,138.067 375.5,140.5C 374.11,139.101 373.11,137.434 372.5,135.5 Z"/></g>
<g><path style="opacity:1" fill="#000000" d="M 276.5,141.5 C 278.496,140.312 279.329,140.979 279,143.5C 278.292,142.619 277.458,141.953 276.5,141.5 Z"/></g>
<g><path style="opacity:0.875" fill="#000000" d="M 377.5,142.5 C 381.957,147.944 383.624,154.277 382.5,161.5C 381.679,158.359 381.179,155.025 381,151.5C 379.795,148.438 378.628,145.438 377.5,142.5 Z"/></g>
<g><path style="opacity:0.895" fill="#000000" d="M 101.5,144.5 C 101.501,152.517 101.834,160.517 102.5,168.5C 101.511,173.975 101.178,179.642 101.5,185.5C 100.167,171.833 100.167,158.167 101.5,144.5 Z"/></g>
<g><path style="opacity:1" fill="#000000" d="M 112.5,145.5 C 113.043,145.56 113.376,145.893 113.5,146.5C 110.23,148.959 109.897,148.625 112.5,145.5 Z"/></g>
<g><path style="opacity:1" fill="#000000" d="M 284.5,149.5 C 282.915,148.998 282.415,147.998 283,146.5C 284.039,147.244 284.539,148.244 284.5,149.5 Z"/></g>
<g><path style="opacity:1" fill="#333333" d="M 284.5,149.5 C 286.476,150.427 286.809,151.76 285.5,153.5C 284.328,153.081 283.328,152.415 282.5,151.5C 282.846,150.304 283.346,150.304 284,151.5C 284.464,150.906 284.631,150.239 284.5,149.5 Z"/></g>
<g><path style="opacity:1" fill="#000000" d="M 125.5,159.5 C 130.179,159.334 134.845,159.501 139.5,160C 135.471,160.303 131.471,160.803 127.5,161.5C 126.287,161.253 125.62,160.586 125.5,159.5 Z"/></g>
<g><path style="opacity:0.875" fill="#000000" d="M 382.5,161.5 C 384.446,162.035 385.446,163.368 385.5,165.5C 384.026,164.564 383.026,163.23 382.5,161.5 Z"/></g>
<g><path style="opacity:0.875" fill="#000000" d="M 388.5,167.5 C 390.698,167.875 392.698,168.542 394.5,169.5C 391.99,169.946 389.99,169.28 388.5,167.5 Z"/></g>
<g><path style="opacity:1" fill="#000000" d="M 102.5,168.5 C 103.968,169.806 105.301,171.306 106.5,173C 104.053,172.712 102.72,171.212 102.5,168.5 Z"/></g>
<g><path style="opacity:1" fill="#000000" d="M 363.5,173.5 C 363.56,172.957 363.893,172.624 364.5,172.5C 367.25,173.716 368.417,175.716 368,178.5C 367.004,176.34 365.504,174.673 363.5,173.5 Z"/></g>
<g><path style="opacity:0.875" fill="#000000" d="M 417.5,172.5 C 419.5,172.5 420.5,173.5 420.5,175.5C 419.167,174.833 418.167,173.833 417.5,172.5 Z"/></g>
<g><path style="opacity:0.875" fill="#000000" d="M 420.5,175.5 C 422.584,177.993 422.917,180.66 421.5,183.5C 421.425,180.794 421.092,178.127 420.5,175.5 Z"/></g>
<g><path style="opacity:1" fill="#000000" d="M 322.5,185.5 C 320.775,185.157 320.275,184.157 321,182.5C 321.513,183.527 322.013,184.527 322.5,185.5 Z"/></g>
<g><path style="opacity:1" fill="#000000" d="M 262.5,185.5 C 266.351,184.191 270.351,184.191 274.5,185.5C 270.78,185.612 266.78,185.612 262.5,185.5 Z"/></g>
<g><path style="opacity:0.875" fill="#000000" d="M 420.5,184.5 C 420.5,186.5 419.5,187.5 417.5,187.5C 418.167,186.167 419.167,185.167 420.5,184.5 Z"/></g>
<g><path style="opacity:0.875" fill="#1c1c1c" d="M 89.5,186.5 C 88.8333,186.5 88.5,186.833 88.5,187.5C 87.8333,187.5 87.1667,187.5 86.5,187.5C 86.1667,186.167 85.8333,186.167 85.5,187.5C 83.2495,187.819 81.2495,187.319 79.5,186C 83.0267,185.192 86.3601,185.359 89.5,186.5 Z"/></g>
<g><path style="opacity:1" fill="#000000" d="M 322.5,185.5 C 323.267,186.172 323.934,187.005 324.5,188C 322.939,188.188 322.272,187.355 322.5,185.5 Z"/></g>
<g><path style="opacity:0.875" fill="#000000" d="M 89.5,186.5 C 91.4123,187.799 93.4123,188.799 95.5,189.5C 91.9219,189.451 88.5885,188.785 85.5,187.5C 85.8333,187.5 86.1667,187.5 86.5,187.5C 87.1667,187.5 87.8333,187.5 88.5,187.5C 89.1667,187.5 89.5,187.167 89.5,186.5 Z"/></g>
<g><path style="opacity:0.913" fill="#000000" d="M 102.5,188.5 C 103.83,189.832 105.497,190.665 107.5,191C 105.942,191.21 104.609,191.71 103.5,192.5C 101.374,191.952 99.3736,191.285 97.5,190.5C 99.7812,190.923 101.448,190.256 102.5,188.5 Z"/></g>
<g><path style="opacity:0.875" fill="#000000" d="M 95.5,189.5 C 96.4916,189.328 97.1583,189.662 97.5,190.5C 96.5084,190.672 95.8417,190.338 95.5,189.5 Z"/></g>
<g><path style="opacity:0.875" fill="#000000" d="M 415.5,189.5 C 415.262,191.404 414.262,192.738 412.5,193.5C 412.738,191.596 413.738,190.262 415.5,189.5 Z"/></g>
<g><path style="opacity:1" fill="#000000" d="M 297.5,195.5 C 296.078,195.291 294.745,194.791 293.5,194C 295.352,193.227 296.686,193.727 297.5,195.5 Z"/></g>
<g><path style="opacity:0.875" fill="#000000" d="M 412.5,193.5 C 411.257,197.516 411.257,201.516 412.5,205.5C 411.883,205.389 411.383,205.056 411,204.5C 410.833,203 410.667,201.5 410.5,200C 410.336,197.456 411.003,195.29 412.5,193.5 Z"/></g>
<g><path style="opacity:1" fill="#000000" d="M 297.5,195.5 C 298.756,195.461 299.756,195.961 300.5,197C 299.002,197.585 298.002,197.085 297.5,195.5 Z"/></g>
<g><path style="opacity:0.875" fill="#000000" d="M 413.5,207.5 C 415.25,208.659 416.25,210.326 416.5,212.5C 414.75,211.341 413.75,209.674 413.5,207.5 Z"/></g>
<g><path style="opacity:1" fill="#0a0a0a" d="M 179.5,208.5 C 191.886,209.524 204.219,211.024 216.5,213C 208.357,214.711 200.357,214.044 192.5,211C 177.833,210.667 163.167,210.333 148.5,210C 159.008,209.83 169.341,209.33 179.5,208.5 Z"/></g>
<g><path style="opacity:0.875" fill="#000000" d="M 417.5,213.5 C 418.222,213.918 418.722,214.584 419,215.5C 421.267,221.94 419.101,225.606 412.5,226.5C 413.856,224.73 415.689,223.397 418,222.5C 418.495,219.469 418.329,216.469 417.5,213.5 Z"/></g>
<g><path style="opacity:0.901" fill="#000000" d="M 115.5,217.5 C 116.873,217.343 118.207,217.51 119.5,218C 118.027,218.71 117.36,219.876 117.5,221.5C 115.2,219.798 112.533,219.132 109.5,219.5C 111.5,218.833 113.5,218.167 115.5,217.5 Z"/></g>
<g><path style="opacity:0.875" fill="#000000" d="M 109.5,219.5 C 108.833,220.167 108.833,220.167 109.5,219.5 Z"/></g>
<g><path style="opacity:0.875" fill="#000000" d="M 103.5,221.5 C 104.919,220.549 106.585,220.216 108.5,220.5C 107.081,221.451 105.415,221.784 103.5,221.5 Z"/></g>
<g><path style="opacity:0.875" fill="#000000" d="M 103.5,221.5 C 102.833,222.167 102.167,222.833 101.5,223.5C 100.957,223.44 100.624,223.107 100.5,222.5C 101.325,221.614 102.325,221.281 103.5,221.5 Z"/></g>
<g><path style="opacity:1" fill="#020202" d="M 251.5,220.5 C 262.09,222.98 272.756,225.147 283.5,227C 277.638,228.796 271.971,228.129 266.5,225C 260.436,224.387 254.436,223.387 248.5,222C 249.737,221.768 250.737,221.268 251.5,220.5 Z"/></g>
<g><path style="opacity:0.875" fill="#000000" d="M 101.5,223.5 C 102.492,223.328 103.158,223.662 103.5,224.5C 102.508,224.672 101.842,224.338 101.5,223.5 Z"/></g>
<g><path style="opacity:0.875" fill="#000000" d="M 103.5,224.5 C 104.791,224.263 105.791,224.596 106.5,225.5C 105.209,225.737 104.209,225.404 103.5,224.5 Z"/></g>
<g><path style="opacity:0.875" fill="#000000" d="M 120.5,224.5 C 121.401,225.29 122.068,226.29 122.5,227.5C 120.952,227.179 120.285,226.179 120.5,224.5 Z"/></g>
<g><path style="opacity:0.875" fill="#000000" d="M 106.5,225.5 C 108.099,225.232 109.432,225.566 110.5,226.5C 108.901,226.768 107.568,226.434 106.5,225.5 Z"/></g>
<g><path style="opacity:0.875" fill="#000000" d="M 110.5,226.5 C 111.239,226.369 111.906,226.536 112.5,227C 111.563,227.692 110.897,227.525 110.5,226.5 Z"/></g>
<g><path style="opacity:0.875" fill="#000000" d="M 412.5,226.5 C 411.486,227.674 410.153,228.34 408.5,228.5C 409.287,226.896 410.62,226.229 412.5,226.5 Z"/></g>
<g><path style="opacity:0.875" fill="#000000" d="M 408.5,228.5 C 408.068,229.71 407.401,230.71 406.5,231.5C 406.285,229.821 406.952,228.821 408.5,228.5 Z"/></g>
<g><path style="opacity:0.875" fill="#000000" d="M 405.5,232.5 C 405.401,235.237 405.735,237.904 406.5,240.5C 404.974,239.508 404.307,238.008 404.5,236C 404.514,234.615 404.848,233.449 405.5,232.5 Z"/></g>
<g><path style="opacity:1" fill="#000000" d="M 314.5,234.5 C 317.53,233.163 320.53,233.497 323.5,235.5C 323.333,235.833 323.167,236.167 323,236.5C 320.379,235.009 317.545,234.342 314.5,234.5 Z"/></g>
<g><path style="opacity:1" fill="#020202" d="M 215.5,234.5 C 229.504,234.333 243.504,234.5 257.5,235C 243.833,235.333 230.167,235.667 216.5,236C 209.38,238.304 206.713,243.137 208.5,250.5C 214.8,251.207 221.133,251.707 227.5,252C 221.782,252.211 216.115,252.711 210.5,253.5C 207.763,251.898 204.763,251.064 201.5,251C 203.473,250.505 205.473,250.338 207.5,250.5C 207.335,247.15 207.502,243.817 208,240.5C 210.134,237.847 212.634,235.847 215.5,234.5 Z"/></g>
<g><path style="opacity:1" fill="#000000" d="M 295.5,236.5 C 297.093,235.133 298.426,235.466 299.5,237.5C 299.333,237.833 299.167,238.167 299,238.5C 298.184,237.177 297.017,236.511 295.5,236.5 Z"/></g>
<g><path style="opacity:0.875" fill="#000000" d="M 408.5,242.5 C 409.906,242.973 410.573,243.973 410.5,245.5C 409.094,245.027 408.427,244.027 408.5,242.5 Z"/></g>
<g><path style="opacity:1" fill="#000000" d="M 359.5,245.5 C 361.347,245.234 362.014,245.568 361.5,246.5C 349.931,248.497 338.264,248.997 326.5,248C 335.5,247.667 344.5,247.333 353.5,247C 355.708,246.809 357.708,246.309 359.5,245.5 Z"/></g>
<g><path style="opacity:0.946" fill="#000000" d="M 144.5,255.5 C 143.5,255.167 142.833,254.5 142.5,253.5C 143.601,252.2 144.934,251.7 146.5,252C 145.177,252.816 144.511,253.983 144.5,255.5 Z"/></g>
<g><path style="opacity:0.875" fill="#000000" d="M 413.5,258.5 C 413.573,260.027 412.906,261.027 411.5,261.5C 411.427,259.973 412.094,258.973 413.5,258.5 Z"/></g>
<g><path style="opacity:0.875" fill="#000000" d="M 410.5,262.5 C 409.5,264.167 408.167,265.5 406.5,266.5C 406.833,264.167 408.167,262.833 410.5,262.5 Z"/></g>
<g><path style="opacity:0.875" fill="#000000" d="M 406.5,266.5 C 406.027,267.906 405.027,268.573 403.5,268.5C 403.973,267.094 404.973,266.427 406.5,266.5 Z"/></g>
<g><path style="opacity:0.875" fill="#000000" d="M 401.5,270.5 C 400.833,271.833 399.833,272.833 398.5,273.5C 398.5,271.5 399.5,270.5 401.5,270.5 Z"/></g>
<g><path style="opacity:0.875" fill="#000000" d="M 398.5,273.5 C 398.38,275.199 398.046,276.865 397.5,278.5C 398.467,280.762 399.134,283.095 399.5,285.5C 396.083,281.689 395.749,277.689 398.5,273.5 Z"/></g>
<g><path style="opacity:0.875" fill="#000000" d="M 401.5,289.5 C 403.446,290.035 404.446,291.368 404.5,293.5C 403.026,292.564 402.026,291.23 401.5,289.5 Z"/></g>
<g><path style="opacity:0.875" fill="#000000" d="M 184.5,296.5 C 185.878,297.545 186.878,298.878 187.5,300.5C 185.468,299.952 184.468,298.619 184.5,296.5 Z"/></g>
<g><path style="opacity:0.875" fill="#000000" d="M 406.5,296.5 C 409.252,300.701 410.086,305.368 409,310.5C 408.583,311.756 407.75,312.423 406.5,312.5C 407.851,310.577 408.518,308.41 408.5,306C 407.932,302.8 407.265,299.633 406.5,296.5 Z"/></g>
<g><path style="opacity:0.875" fill="#000000" d="M 404.5,314.5 C 403.564,315.974 402.23,316.974 400.5,317.5C 401.035,315.554 402.368,314.554 404.5,314.5 Z"/></g>
<g><path style="opacity:1" fill="#000000" d="M 361.5,319.5 C 365.486,318.834 369.653,318.501 374,318.5C 378.674,318.36 383.174,318.86 387.5,320C 378.917,319.561 370.251,319.394 361.5,319.5 Z"/></g>
<g><path style="opacity:0.875" fill="#000000" d="M 399.5,318.5 C 398.486,319.674 397.153,320.34 395.5,320.5C 396.287,318.896 397.62,318.229 399.5,318.5 Z"/></g>
<g><path style="opacity:0.875" fill="#000000" d="M 206.5,320.5 C 207.401,321.29 208.068,322.29 208.5,323.5C 206.952,323.179 206.285,322.179 206.5,320.5 Z"/></g>
<g><path style="opacity:0.875" fill="#000000" d="M 393.5,322.5 C 394.207,324.134 395.373,325.468 397,326.5C 397.879,330.477 397.379,334.144 395.5,337.5C 395.67,335.152 396.003,332.818 396.5,330.5C 396.215,327.71 394.882,325.543 392.5,324C 392.57,323.235 392.903,322.735 393.5,322.5 Z"/></g>
<g><path style="opacity:1" fill="#000000" d="M 308.5,333.5 C 305.924,333.278 305.09,331.945 306,329.5C 306.662,330.984 307.496,332.317 308.5,333.5 Z"/></g>
<g><path style="opacity:1" fill="#000000" d="M 375.5,330.5 C 379.243,330.459 379.41,331.126 376,332.5C 375.536,331.906 375.369,331.239 375.5,330.5 Z"/></g>
<g><path style="opacity:1" fill="#000000" d="M 308.5,333.5 C 309.552,333.351 310.552,333.517 311.5,334C 310.829,334.986 310.829,336.153 311.5,337.5C 310.026,336.564 309.026,335.23 308.5,333.5 Z"/></g>
<g><path style="opacity:1" fill="#000000" d="M 311.5,337.5 C 317.138,336.541 322.805,336.374 328.5,337C 323.643,337.307 318.81,337.807 314,338.5C 312.93,338.472 312.097,338.139 311.5,337.5 Z"/></g>
<g><path style="opacity:1" fill="#000000" d="M 295.5,338.5 C 301.824,338.447 301.991,339.114 296,340.5C 295.167,340.333 294.333,340.167 293.5,340C 294.416,339.722 295.082,339.222 295.5,338.5 Z"/></g>
<g><path style="opacity:0.892" fill="#000000" d="M 237.5,354.5 C 240.745,354.678 241.745,356.011 240.5,358.5C 239.778,357.449 238.778,356.782 237.5,356.5C 237.5,355.833 237.5,355.167 237.5,354.5 Z"/></g>
<g><path style="opacity:0.875" fill="#000000" d="M 234.5,357.5 C 232.307,358.797 229.973,358.797 227.5,357.5C 229.655,357.162 231.989,357.162 234.5,357.5 Z"/></g>
<g><path style="opacity:0.875" fill="#000000" d="M 234.5,357.5 C 235.209,356.596 236.209,356.263 237.5,356.5C 236.791,357.404 235.791,357.737 234.5,357.5 Z"/></g>
<g><path style="opacity:0.875" fill="#000000" d="M 395.5,357.5 C 397.19,357.856 398.19,358.856 398.5,360.5C 396.81,360.144 395.81,359.144 395.5,357.5 Z"/></g>
<g><path style="opacity:0.875" fill="#000000" d="M 398.5,360.5 C 400.408,361.486 401.408,363.152 401.5,365.5C 399.953,364.232 398.953,362.565 398.5,360.5 Z"/></g>
<g><path style="opacity:0.875" fill="#000000" d="M 398.5,378.5 C 398.715,380.179 398.048,381.179 396.5,381.5C 396.932,380.29 397.599,379.29 398.5,378.5 Z"/></g>
<g><path style="opacity:0.875" fill="#000000" d="M 271.5,386.5 C 273.664,386.721 275.33,387.721 276.5,389.5C 274.336,389.279 272.67,388.279 271.5,386.5 Z"/></g>
<g><path style="opacity:0.875" fill="#000000" d="M 385.5,393.5 C 385.573,395.027 384.906,396.027 383.5,396.5C 383.427,394.973 384.094,393.973 385.5,393.5 Z"/></g>
<g><path style="opacity:0.875" fill="#000000" d="M 383.5,396.5 C 383.389,397.117 383.056,397.617 382.5,398C 383.823,398.816 384.489,399.983 384.5,401.5C 381.303,399.996 380.97,398.33 383.5,396.5 Z"/></g>
<g><path style="opacity:0.875" fill="#000000" d="M 384.5,401.5 C 385.738,403.214 386.405,405.214 386.5,407.5C 384.926,405.898 384.259,403.898 384.5,401.5 Z"/></g>
<g><path style="opacity:0.875" fill="#000000" d="M 300.5,406.5 C 302.38,406.229 303.713,406.896 304.5,408.5C 302.847,408.34 301.514,407.674 300.5,406.5 Z"/></g>
<g><path style="opacity:0.875" fill="#000000" d="M 313.5,414.5 C 314.71,414.932 315.71,415.599 316.5,416.5C 314.821,416.715 313.821,416.048 313.5,414.5 Z"/></g>
<g><path style="opacity:0.875" fill="#000000" d="M 317.5,417.5 C 319.632,417.554 320.965,418.554 321.5,420.5C 319.77,419.974 318.436,418.974 317.5,417.5 Z"/></g>
<g><path style="opacity:0.875" fill="#000000" d="M 389.5,433.5 C 389.34,435.153 388.674,436.486 387.5,437.5C 387.229,435.62 387.896,434.287 389.5,433.5 Z"/></g>
<g><path style="opacity:0.875" fill="#000000" d="M 387.5,437.5 C 387.514,441.475 386.181,444.808 383.5,447.5C 384.646,444.057 385.979,440.723 387.5,437.5 Z"/></g>
<g><path style="opacity:0.875" fill="#000000" d="M 347.5,439.5 C 349.773,440.767 351.773,442.433 353.5,444.5C 350.593,443.927 348.593,442.261 347.5,439.5 Z"/></g>
<g><path style="opacity:0.875" fill="#000000" d="M 381.5,451.5 C 380.489,454.94 379.489,458.274 378.5,461.5C 378.025,457.584 379.025,454.251 381.5,451.5 Z"/></g>
<g><path style="opacity:0.875" fill="#000000" d="M 378.5,466.5 C 379.117,466.611 379.617,466.944 380,467.5C 380.223,472.25 380.723,476.916 381.5,481.5C 379.592,480.514 378.592,478.848 378.5,476.5C 379.7,473.302 379.7,469.969 378.5,466.5 Z"/></g>
<g><path style="opacity:0.875" fill="#000000" d="M 381.5,481.5 C 382.848,482.527 383.348,483.86 383,485.5C 381.812,484.437 381.312,483.103 381.5,481.5 Z"/></g>
</svg>
