<?xml version="1.0" encoding="UTF-8"?>
<!DOCTYPE svg PUBLIC "-//W3C//DTD SVG 1.1//EN" "http://www.w3.org/Graphics/SVG/1.1/DTD/svg11.dtd">
<svg xmlns="http://www.w3.org/2000/svg" version="1.1" width="500px" height="500px" style="shape-rendering:geometricPrecision; text-rendering:geometricPrecision; image-rendering:optimizeQuality; fill-rule:evenodd; clip-rule:evenodd" xmlns:xlink="http://www.w3.org/1999/xlink">
<g><path style="opacity:0.997" fill="#f65762" d="M 322.5,55.5 C 323.671,56.3446 325.005,57.0113 326.5,57.5C 327.71,57.9321 328.71,58.5987 329.5,59.5C 330.29,60.4013 331.29,61.0679 332.5,61.5C 342.806,67.1391 350.806,75.1391 356.5,85.5C 356.285,87.1788 356.952,88.1788 358.5,88.5C 359.167,88.5 359.5,88.8333 359.5,89.5C 358.185,90.8946 358.519,91.8946 360.5,92.5C 363.388,99.0891 365.221,106.089 366,113.5C 367.848,136.671 365.515,159.338 359,181.5C 350.302,203.888 340.302,225.555 329,246.5C 320.271,259.567 311.938,272.901 304,286.5C 294.771,297.277 285.771,308.277 277,319.5C 253.035,341.298 230.368,364.632 209,389.5C 201.599,397.405 193.765,404.738 185.5,411.5C 184.167,411.5 183.5,412.167 183.5,413.5C 179.342,416.414 175.009,419.081 170.5,421.5C 166.759,422.954 163.425,424.954 160.5,427.5C 158.973,427.427 157.973,428.094 157.5,429.5C 153.779,431.354 150.446,433.687 147.5,436.5C 145.973,436.427 144.973,437.094 144.5,438.5C 138.907,439.761 135.241,443.094 133.5,448.5C 131.379,451.103 129.046,453.436 126.5,455.5C 125.723,450.916 125.223,446.25 125,441.5C 124.617,440.944 124.117,440.611 123.5,440.5C 122.167,438.833 122.167,437.167 123.5,435.5C 124.489,432.274 125.489,428.94 126.5,425.5C 126.66,423.847 127.326,422.514 128.5,421.5C 131.181,418.808 132.514,415.475 132.5,411.5C 133.674,410.486 134.34,409.153 134.5,407.5C 134.8,398.672 133.8,390.005 131.5,381.5C 131.405,379.214 130.738,377.214 129.5,375.5C 129.489,373.983 128.823,372.816 127.5,372C 128.056,371.617 128.389,371.117 128.5,370.5C 129.906,370.027 130.573,369.027 130.5,367.5C 134.623,363.921 138.29,359.921 141.5,355.5C 143.048,355.179 143.715,354.179 143.5,352.5C 145.881,348.519 146.881,344.186 146.5,339.5C 146.408,337.152 145.408,335.486 143.5,334.5C 143.19,332.856 142.19,331.856 140.5,331.5C 138.218,328.476 137.218,324.976 137.5,321C 137.105,317.287 138.105,314.12 140.5,311.5C 142.379,308.144 142.879,304.477 142,300.5C 140.373,299.468 139.207,298.134 138.5,296.5C 139.833,296.5 140.5,295.833 140.5,294.5C 142.153,294.34 143.486,293.674 144.5,292.5C 144.5,291.833 144.833,291.5 145.5,291.5C 147.23,290.974 148.564,289.974 149.5,288.5C 149.833,287.5 150.5,286.833 151.5,286.5C 152.75,286.423 153.583,285.756 154,284.5C 155.086,279.368 154.252,274.701 151.5,270.5C 150.599,269.71 149.932,268.71 149.5,267.5C 149.446,265.368 148.446,264.035 146.5,263.5C 145.655,262.329 144.989,260.995 144.5,259.5C 144.134,257.095 143.467,254.762 142.5,252.5C 143.046,250.865 143.38,249.199 143.5,247.5C 144.833,246.833 145.833,245.833 146.5,244.5C 146.833,243.5 147.5,242.833 148.5,242.5C 150.027,242.573 151.027,241.906 151.5,240.5C 153.167,239.5 154.5,238.167 155.5,236.5C 155.5,235.833 155.833,235.5 156.5,235.5C 157.906,235.027 158.573,234.027 158.5,232.5C 158.526,227.915 157.526,223.581 155.5,219.5C 155.573,217.973 154.906,216.973 153.5,216.5C 152.5,216.167 151.833,215.5 151.5,214.5C 150.735,211.904 150.401,209.237 150.5,206.5C 150.5,205.833 150.833,205.5 151.5,205.5C 152.401,204.71 153.068,203.71 153.5,202.5C 155.153,202.34 156.486,201.674 157.5,200.5C 164.101,199.606 166.267,195.94 164,189.5C 163.722,188.584 163.222,187.918 162.5,187.5C 161.833,187.5 161.5,187.167 161.5,186.5C 161.25,184.326 160.25,182.659 158.5,181.5C 157.662,181.158 157.328,180.492 157.5,179.5C 156.257,175.516 156.257,171.516 157.5,167.5C 159.262,166.738 160.262,165.404 160.5,163.5C 161.833,163.5 162.5,162.833 162.5,161.5C 164.5,161.5 165.5,160.5 165.5,158.5C 165.5,157.833 165.833,157.5 166.5,157.5C 167.917,154.66 167.584,151.993 165.5,149.5C 165.5,147.5 164.5,146.5 162.5,146.5C 154.617,146.1 146.95,145.1 139.5,143.5C 137.698,142.542 135.698,141.875 133.5,141.5C 132.508,141.672 131.842,141.338 131.5,140.5C 131.5,139.833 131.5,139.167 131.5,138.5C 132.906,138.027 133.573,137.027 133.5,135.5C 133.833,134.5 134.5,133.833 135.5,133.5C 136.833,133.5 137.5,132.833 137.5,131.5C 137.973,130.094 138.973,129.427 140.5,129.5C 141.5,129.167 142.167,128.5 142.5,127.5C 142.833,126.5 143.5,125.833 144.5,125.5C 145.5,125.167 146.167,124.5 146.5,123.5C 147.708,120.956 149.708,119.622 152.5,119.5C 153.5,119.167 154.167,118.5 154.5,117.5C 155.401,115.273 157.067,114.273 159.5,114.5C 160.5,114.167 161.167,113.5 161.5,112.5C 164.601,109.067 168.268,106.4 172.5,104.5C 173.5,104.167 174.167,103.5 174.5,102.5C 180.467,98.1588 186.134,93.3255 191.5,88C 220.348,69.714 251.681,57.714 285.5,52C 295.5,51.3333 305.5,51.3333 315.5,52C 318.084,52.8602 320.417,54.0269 322.5,55.5 Z"/></g>
<g><path style="opacity:0.875" fill="#000000" d="M 322.5,55.5 C 324.483,55.1568 325.817,55.8235 326.5,57.5C 325.005,57.0113 323.671,56.3446 322.5,55.5 Z"/></g>
<g><path style="opacity:0.875" fill="#000000" d="M 329.5,59.5 C 331.179,59.2852 332.179,59.9519 332.5,61.5C 331.29,61.0679 330.29,60.4013 329.5,59.5 Z"/></g>
<g><path style="opacity:1" fill="#000000" d="M 280.5,72.5 C 282.379,72.3932 282.712,72.8932 281.5,74C 278.125,74.6316 277.791,74.1316 280.5,72.5 Z"/></g>
<g><path style="opacity:0.875" fill="#000000" d="M 356.5,85.5 C 357.401,86.2905 358.068,87.2905 358.5,88.5C 356.952,88.1788 356.285,87.1788 356.5,85.5 Z"/></g>
<g><path style="opacity:0.875" fill="#000000" d="M 364.5,89.5 C 365.601,88.4017 366.934,88.235 368.5,89C 367.207,89.49 365.873,89.6567 364.5,89.5 Z"/></g>
<g><path style="opacity:0.895" fill="#000000" d="M 359.5,89.5 C 360.391,90.1098 361.391,90.4431 362.5,90.5C 361.833,91.1667 361.167,91.8333 360.5,92.5C 358.519,91.8946 358.185,90.8946 359.5,89.5 Z"/></g>
<g><path style="opacity:0.875" fill="#000000" d="M 362.5,90.5 C 362.842,89.6618 363.508,89.3284 364.5,89.5C 364.158,90.3382 363.492,90.6716 362.5,90.5 Z"/></g>
<g><path style="opacity:0.875" fill="#000000" d="M 174.5,102.5 C 174.167,103.5 173.5,104.167 172.5,104.5C 172.5,103.167 173.167,102.5 174.5,102.5 Z"/></g>
<g><path style="opacity:0.875" fill="#000000" d="M 161.5,112.5 C 161.167,113.5 160.5,114.167 159.5,114.5C 159.5,113.167 160.167,112.5 161.5,112.5 Z"/></g>
<g><path style="opacity:1" fill="#000000" d="M 209.5,115.5 C 212.001,115.511 212.168,116.178 210,117.5C 209.536,116.906 209.369,116.239 209.5,115.5 Z"/></g>
<g><path style="opacity:0.875" fill="#000000" d="M 154.5,117.5 C 154.167,118.5 153.5,119.167 152.5,119.5C 152.5,118.167 153.167,117.5 154.5,117.5 Z"/></g>
<g><path style="opacity:1" fill="#0d0d0d" d="M 278.5,120.5 C 279.552,120.351 280.552,120.517 281.5,121C 276.588,123.372 271.755,125.872 267,128.5C 266.25,127.874 265.416,127.374 264.5,127C 269.608,125.61 274.274,123.444 278.5,120.5 Z"/></g>
<g><path style="opacity:0.875" fill="#000000" d="M 146.5,123.5 C 146.167,124.5 145.5,125.167 144.5,125.5C 144.5,124.167 145.167,123.5 146.5,123.5 Z"/></g>
<g><path style="opacity:0.875" fill="#000000" d="M 142.5,127.5 C 142.167,128.5 141.5,129.167 140.5,129.5C 140.5,128.167 141.167,127.5 142.5,127.5 Z"/></g>
<g><path style="opacity:0.875" fill="#000000" d="M 137.5,131.5 C 137.5,132.833 136.833,133.5 135.5,133.5C 135.833,132.5 136.5,131.833 137.5,131.5 Z"/></g>
<g><path style="opacity:0.875" fill="#000000" d="M 133.5,135.5 C 133.573,137.027 132.906,138.027 131.5,138.5C 131.427,136.973 132.094,135.973 133.5,135.5 Z"/></g>
<g><path style="opacity:0.875" fill="#000000" d="M 131.5,138.5 C 131.5,139.167 131.5,139.833 131.5,140.5C 129.067,139.452 129.067,138.786 131.5,138.5 Z"/></g>
<g><path style="opacity:0.875" fill="#000000" d="M 133.5,141.5 C 135.698,141.875 137.698,142.542 139.5,143.5C 136.99,143.946 134.99,143.28 133.5,141.5 Z"/></g>
<g><path style="opacity:0.875" fill="#000000" d="M 162.5,146.5 C 164.5,146.5 165.5,147.5 165.5,149.5C 164.167,148.833 163.167,147.833 162.5,146.5 Z"/></g>
<g><path style="opacity:0.875" fill="#000000" d="M 165.5,149.5 C 167.584,151.993 167.917,154.66 166.5,157.5C 166.425,154.794 166.092,152.127 165.5,149.5 Z"/></g>
<g><path style="opacity:1" fill="#000000" d="M 213.5,149.5 C 217.243,149.459 217.41,150.126 214,151.5C 213.536,150.906 213.369,150.239 213.5,149.5 Z"/></g>
<g><path style="opacity:1" fill="#000000" d="M 208.5,154.5 C 209.239,154.369 209.906,154.536 210.5,155C 209,156.5 207.5,158 206,159.5C 206.058,157.565 206.891,155.898 208.5,154.5 Z"/></g>
<g><path style="opacity:0.875" fill="#000000" d="M 165.5,158.5 C 165.5,160.5 164.5,161.5 162.5,161.5C 163.167,160.167 164.167,159.167 165.5,158.5 Z"/></g>
<g><path style="opacity:0.875" fill="#000000" d="M 162.5,161.5 C 162.5,162.833 161.833,163.5 160.5,163.5C 160.833,162.5 161.5,161.833 162.5,161.5 Z"/></g>
<g><path style="opacity:0.875" fill="#000000" d="M 160.5,163.5 C 160.262,165.404 159.262,166.738 157.5,167.5C 157.738,165.596 158.738,164.262 160.5,163.5 Z"/></g>
<g><path style="opacity:1" fill="#000000" d="M 251.5,169.5 C 251.846,167.637 252.846,166.804 254.5,167C 253.922,168.417 252.922,169.25 251.5,169.5 Z"/></g>
<g><path style="opacity:0.875" fill="#000000" d="M 157.5,167.5 C 156.257,171.516 156.257,175.516 157.5,179.5C 156.883,179.389 156.383,179.056 156,178.5C 155.833,177 155.667,175.5 155.5,174C 155.336,171.456 156.003,169.29 157.5,167.5 Z"/></g>
<g><path style="opacity:1" fill="#000000" d="M 251.5,169.5 C 251.539,170.756 251.039,171.756 250,172.5C 249.415,171.002 249.915,170.002 251.5,169.5 Z"/></g>
<g><path style="opacity:1" fill="#000000" d="M 212.5,178.5 C 212.729,176.567 213.562,174.9 215,173.5C 215.28,175.672 214.447,177.339 212.5,178.5 Z"/></g>
<g><path style="opacity:1" fill="#000000" d="M 244.5,179.5 C 244.522,177.2 245.522,176.033 247.5,176C 246.837,177.518 245.837,178.685 244.5,179.5 Z"/></g>
<g><path style="opacity:1" fill="#000000" d="M 212.5,178.5 C 212.144,180.19 211.144,181.19 209.5,181.5C 209.856,179.81 210.856,178.81 212.5,178.5 Z"/></g>
<g><path style="opacity:1" fill="#000000" d="M 244.5,179.5 C 244.068,180.71 243.401,181.71 242.5,182.5C 242.285,180.821 242.952,179.821 244.5,179.5 Z"/></g>
<g><path style="opacity:0.875" fill="#000000" d="M 158.5,181.5 C 160.25,182.659 161.25,184.326 161.5,186.5C 159.75,185.341 158.75,183.674 158.5,181.5 Z"/></g>
<g><path style="opacity:1" fill="#000000" d="M 209.5,181.5 C 209.478,183.8 208.478,184.967 206.5,185C 207.163,183.482 208.163,182.315 209.5,181.5 Z"/></g>
<g><path style="opacity:1" fill="#000000" d="M 242.5,182.5 C 242.217,183.289 241.717,183.956 241,184.5C 240.472,183.184 240.972,182.517 242.5,182.5 Z"/></g>
<g><path style="opacity:0.875" fill="#000000" d="M 162.5,187.5 C 163.222,187.918 163.722,188.584 164,189.5C 166.267,195.94 164.101,199.606 157.5,200.5C 158.856,198.73 160.689,197.397 163,196.5C 163.495,193.469 163.329,190.469 162.5,187.5 Z"/></g>
<g><path style="opacity:1" fill="#000000" d="M 218.5,196.5 C 218.826,193.999 220.159,192.832 222.5,193C 221.295,194.376 219.962,195.542 218.5,196.5 Z"/></g>
<g><path style="opacity:1" fill="#000000" d="M 218.5,196.5 C 217.998,198.085 216.998,198.585 215.5,198C 216.244,196.961 217.244,196.461 218.5,196.5 Z"/></g>
<g><path style="opacity:1" fill="#000000" d="M 213.5,199.5 C 214.713,200.497 214.546,201.497 213,202.5C 212.53,201.423 212.697,200.423 213.5,199.5 Z"/></g>
<g><path style="opacity:0.875" fill="#000000" d="M 157.5,200.5 C 156.486,201.674 155.153,202.34 153.5,202.5C 154.287,200.896 155.62,200.229 157.5,200.5 Z"/></g>
<g><path style="opacity:0.875" fill="#000000" d="M 153.5,202.5 C 153.068,203.71 152.401,204.71 151.5,205.5C 151.285,203.821 151.952,202.821 153.5,202.5 Z"/></g>
<g><path style="opacity:0.875" fill="#000000" d="M 150.5,206.5 C 150.401,209.237 150.735,211.904 151.5,214.5C 149.974,213.508 149.307,212.008 149.5,210C 149.514,208.615 149.848,207.449 150.5,206.5 Z"/></g>
<g><path style="opacity:1" fill="#000000" d="M 205.5,207.5 C 208.001,207.511 208.168,208.178 206,209.5C 205.536,208.906 205.369,208.239 205.5,207.5 Z"/></g>
<g><path style="opacity:1" fill="#000000" d="M 200.5,212.5 C 204.243,212.459 204.41,213.126 201,214.5C 200.536,213.906 200.369,213.239 200.5,212.5 Z"/></g>
<g><path style="opacity:0.875" fill="#000000" d="M 153.5,216.5 C 154.906,216.973 155.573,217.973 155.5,219.5C 154.094,219.027 153.427,218.027 153.5,216.5 Z"/></g>
<g><path style="opacity:1" fill="#000000" d="M 272.5,217.5 C 274.975,217.747 274.975,218.413 272.5,219.5C 271.537,219.03 271.537,218.363 272.5,217.5 Z"/></g>
<g><path style="opacity:1" fill="#000000" d="M 186.5,228.5 C 189.001,228.511 189.168,229.178 187,230.5C 186.536,229.906 186.369,229.239 186.5,228.5 Z"/></g>
<g><path style="opacity:0.875" fill="#000000" d="M 158.5,232.5 C 158.573,234.027 157.906,235.027 156.5,235.5C 156.427,233.973 157.094,232.973 158.5,232.5 Z"/></g>
<g><path style="opacity:1" fill="#000000" d="M 248.5,234.5 C 248.517,232.972 249.184,232.472 250.5,233C 249.956,233.717 249.289,234.217 248.5,234.5 Z"/></g>
<g><path style="opacity:1" fill="#000000" d="M 248.5,234.5 C 248.414,235.496 248.748,236.329 249.5,237C 247.333,237.833 245.833,239.333 245,241.5C 244.5,241 244,240.5 243.5,240C 245.246,238.153 246.912,236.319 248.5,234.5 Z"/></g>
<g><path style="opacity:0.875" fill="#000000" d="M 155.5,236.5 C 154.5,238.167 153.167,239.5 151.5,240.5C 151.833,238.167 153.167,236.833 155.5,236.5 Z"/></g>
<g><path style="opacity:0.875" fill="#000000" d="M 151.5,240.5 C 151.027,241.906 150.027,242.573 148.5,242.5C 148.973,241.094 149.973,240.427 151.5,240.5 Z"/></g>
<g><path style="opacity:1" fill="#000000" d="M 240.5,242.5 C 243.134,243.658 242.967,244.658 240,245.5C 239.53,244.423 239.697,243.423 240.5,242.5 Z"/></g>
<g><path style="opacity:0.875" fill="#000000" d="M 146.5,244.5 C 145.833,245.833 144.833,246.833 143.5,247.5C 143.5,245.5 144.5,244.5 146.5,244.5 Z"/></g>
<g><path style="opacity:0.875" fill="#000000" d="M 143.5,247.5 C 143.38,249.199 143.046,250.865 142.5,252.5C 143.467,254.762 144.134,257.095 144.5,259.5C 141.083,255.689 140.749,251.689 143.5,247.5 Z"/></g>
<g><path style="opacity:1" fill="#110807" d="M 236.5,246.5 C 237.376,246.369 238.043,246.702 238.5,247.5C 237.533,249.63 236.366,251.63 235,253.5C 234.289,251.633 234.789,250.133 236.5,249C 235.833,248.667 235.167,248.333 234.5,248C 235.416,247.722 236.082,247.222 236.5,246.5 Z"/></g>
<g><path style="opacity:1" fill="#000000" d="M 219.5,256.5 C 222.001,256.511 222.168,257.178 220,258.5C 219.536,257.906 219.369,257.239 219.5,256.5 Z"/></g>
<g><path style="opacity:0.875" fill="#000000" d="M 146.5,263.5 C 148.446,264.035 149.446,265.368 149.5,267.5C 148.026,266.564 147.026,265.23 146.5,263.5 Z"/></g>
<g><path style="opacity:1" fill="#000000" d="M 285.5,264.5 C 289.243,264.459 289.41,265.126 286,266.5C 285.536,265.906 285.369,265.239 285.5,264.5 Z"/></g>
<g><path style="opacity:1" fill="#000000" d="M 277.5,268.5 C 281.243,268.459 281.41,269.126 278,270.5C 277.536,269.906 277.369,269.239 277.5,268.5 Z"/></g>
<g><path style="opacity:1" fill="#000000" d="M 210.5,269.5 C 212.558,270.933 212.392,272.599 210,274.5C 210.019,272.893 210.185,271.226 210.5,269.5 Z"/></g>
<g><path style="opacity:0.875" fill="#000000" d="M 151.5,270.5 C 154.252,274.701 155.086,279.368 154,284.5C 153.583,285.756 152.75,286.423 151.5,286.5C 152.851,284.577 153.518,282.41 153.5,280C 152.932,276.8 152.265,273.633 151.5,270.5 Z"/></g>
<g><path style="opacity:1" fill="#000000" d="M 165.5,271.5 C 166.043,271.56 166.376,271.893 166.5,272.5C 165.985,274.225 165.318,275.892 164.5,277.5C 164.167,277.333 163.833,277.167 163.5,277C 164.244,275.185 164.911,273.352 165.5,271.5 Z"/></g>
<g><path style="opacity:1" fill="#000000" d="M 269.5,273.5 C 273.243,273.459 273.41,274.126 270,275.5C 269.536,274.906 269.369,274.239 269.5,273.5 Z"/></g>
<g><path style="opacity:1" fill="#000000" d="M 255.5,286.5 C 255.414,285.504 255.748,284.671 256.5,284C 258.754,282.623 260.92,281.123 263,279.5C 263.5,280 264,280.5 264.5,281C 261.472,282.844 258.472,284.678 255.5,286.5 Z"/></g>
<g><path style="opacity:0.875" fill="#000000" d="M 149.5,288.5 C 148.564,289.974 147.23,290.974 145.5,291.5C 146.035,289.554 147.368,288.554 149.5,288.5 Z"/></g>
<g><path style="opacity:1" fill="#1a0d0c" d="M 255.5,286.5 C 250.462,291.024 244.962,295.024 239,298.5C 238.25,297.874 237.416,297.374 236.5,297C 241.813,293.698 247.146,290.365 252.5,287C 253.448,286.517 254.448,286.351 255.5,286.5 Z"/></g>
<g><path style="opacity:0.875" fill="#000000" d="M 144.5,292.5 C 143.486,293.674 142.153,294.34 140.5,294.5C 141.287,292.896 142.62,292.229 144.5,292.5 Z"/></g>
<g><path style="opacity:0.875" fill="#000000" d="M 140.5,294.5 C 140.5,295.833 139.833,296.5 138.5,296.5C 138.833,295.5 139.5,294.833 140.5,294.5 Z"/></g>
<g><path style="opacity:0.875" fill="#000000" d="M 138.5,296.5 C 139.207,298.134 140.373,299.468 142,300.5C 142.879,304.477 142.379,308.144 140.5,311.5C 141.221,308.183 141.388,304.849 141,301.5C 139.702,300.44 138.535,299.274 137.5,298C 137.57,297.235 137.903,296.735 138.5,296.5 Z"/></g>
<g><path style="opacity:1" fill="#1e100f" d="M 230.5,300.5 C 235.372,301.307 235.539,302.307 231,303.5C 230.25,302.874 229.416,302.374 228.5,302C 229.416,301.722 230.082,301.222 230.5,300.5 Z"/></g>
<g><path style="opacity:1" fill="#000000" d="M 218.5,311.5 C 220.17,308.998 222.336,306.998 225,305.5C 225.5,306 226,306.5 226.5,307C 223.941,308.777 221.274,310.277 218.5,311.5 Z"/></g>
<g><path style="opacity:1" fill="#000000" d="M 218.5,311.5 C 218.209,312.649 217.376,313.316 216,313.5C 215.167,313.333 214.333,313.167 213.5,313C 215.154,312.392 216.821,311.892 218.5,311.5 Z"/></g>
<g><path style="opacity:1" fill="#000000" d="M 179.5,312.5 C 181.646,312.696 181.812,313.696 180,315.5C 179.517,314.552 179.351,313.552 179.5,312.5 Z"/></g>
<g><path style="opacity:1" fill="#000000" d="M 175.5,318.5 C 176.465,319.721 176.298,321.054 175,322.5C 174.421,321.072 174.588,319.738 175.5,318.5 Z"/></g>
<g><path style="opacity:0.875" fill="#000000" d="M 140.5,331.5 C 142.19,331.856 143.19,332.856 143.5,334.5C 141.81,334.144 140.81,333.144 140.5,331.5 Z"/></g>
<g><path style="opacity:0.875" fill="#000000" d="M 143.5,334.5 C 145.408,335.486 146.408,337.152 146.5,339.5C 144.953,338.232 143.953,336.565 143.5,334.5 Z"/></g>
<g><path style="opacity:1" fill="#000000" d="M 188.5,334.5 C 191.001,334.511 191.168,335.178 189,336.5C 188.536,335.906 188.369,335.239 188.5,334.5 Z"/></g>
<g><path style="opacity:1" fill="#000000" d="M 185.5,338.5 C 188.001,338.511 188.168,339.178 186,340.5C 185.536,339.906 185.369,339.239 185.5,338.5 Z"/></g>
<g><path style="opacity:0.875" fill="#000000" d="M 143.5,352.5 C 143.715,354.179 143.048,355.179 141.5,355.5C 141.932,354.29 142.599,353.29 143.5,352.5 Z"/></g>
<g><path style="opacity:0.875" fill="#000000" d="M 130.5,367.5 C 130.573,369.027 129.906,370.027 128.5,370.5C 128.427,368.973 129.094,367.973 130.5,367.5 Z"/></g>
<g><path style="opacity:0.875" fill="#000000" d="M 128.5,370.5 C 128.389,371.117 128.056,371.617 127.5,372C 128.823,372.816 129.489,373.983 129.5,375.5C 126.303,373.996 125.97,372.33 128.5,370.5 Z"/></g>
<g><path style="opacity:0.875" fill="#000000" d="M 129.5,375.5 C 130.738,377.214 131.405,379.214 131.5,381.5C 129.926,379.898 129.259,377.898 129.5,375.5 Z"/></g>
<g><path style="opacity:1" fill="#000000" d="M 166.5,392.5 C 166.517,390.972 167.184,390.472 168.5,391C 167.956,391.717 167.289,392.217 166.5,392.5 Z"/></g>
<g><path style="opacity:1" fill="#000000" d="M 166.5,392.5 C 166.688,394.103 166.188,395.437 165,396.5C 164.652,394.86 165.152,393.527 166.5,392.5 Z"/></g>
<g><path style="opacity:0.875" fill="#000000" d="M 134.5,407.5 C 134.34,409.153 133.674,410.486 132.5,411.5C 132.229,409.62 132.896,408.287 134.5,407.5 Z"/></g>
<g><path style="opacity:0.875" fill="#000000" d="M 132.5,411.5 C 132.514,415.475 131.181,418.808 128.5,421.5C 129.646,418.057 130.979,414.723 132.5,411.5 Z"/></g>
<g><path style="opacity:0.875" fill="#000000" d="M 185.5,411.5 C 185.167,412.5 184.5,413.167 183.5,413.5C 183.5,412.167 184.167,411.5 185.5,411.5 Z"/></g>
<g><path style="opacity:0.875" fill="#000000" d="M 170.5,421.5 C 170.631,422.376 170.298,423.043 169.5,423.5C 166.457,424.874 163.457,426.207 160.5,427.5C 163.425,424.954 166.759,422.954 170.5,421.5 Z"/></g>
<g><path style="opacity:0.875" fill="#000000" d="M 126.5,425.5 C 125.489,428.94 124.489,432.274 123.5,435.5C 123.025,431.584 124.025,428.251 126.5,425.5 Z"/></g>
<g><path style="opacity:0.875" fill="#000000" d="M 160.5,427.5 C 160.027,428.906 159.027,429.573 157.5,429.5C 157.973,428.094 158.973,427.427 160.5,427.5 Z"/></g>
<g><path style="opacity:0.875" fill="#000000" d="M 157.5,429.5 C 155.696,432.098 153.362,434.265 150.5,436C 149.552,436.483 148.552,436.649 147.5,436.5C 150.446,433.687 153.779,431.354 157.5,429.5 Z"/></g>
<g><path style="opacity:0.875" fill="#000000" d="M 147.5,436.5 C 147.027,437.906 146.027,438.573 144.5,438.5C 144.973,437.094 145.973,436.427 147.5,436.5 Z"/></g>
<g><path style="opacity:0.875" fill="#000000" d="M 144.5,438.5 C 140.209,441.123 136.543,444.456 133.5,448.5C 135.241,443.094 138.907,439.761 144.5,438.5 Z"/></g>
<g><path style="opacity:0.875" fill="#000000" d="M 123.5,440.5 C 124.117,440.611 124.617,440.944 125,441.5C 125.223,446.25 125.723,450.916 126.5,455.5C 124.592,454.514 123.592,452.848 123.5,450.5C 124.7,447.302 124.7,443.969 123.5,440.5 Z"/></g>
<g><path style="opacity:0.875" fill="#000000" d="M 118.5,443.5 C 117.833,442.167 117.833,442.167 118.5,443.5 Z"/></g>
<g><path style="opacity:0.875" fill="#000000" d="M 118.5,443.5 C 119.167,443.5 119.5,443.833 119.5,444.5C 119.167,444.167 118.833,443.833 118.5,443.5 Z"/></g>
<g><path style="opacity:0.875" fill="#000000" d="M 119.5,444.5 C 120.338,444.842 120.672,445.508 120.5,446.5C 119.662,446.158 119.328,445.492 119.5,444.5 Z"/></g>
<g><path style="opacity:0.875" fill="#000000" d="M 120.5,446.5 C 121.338,446.842 121.672,447.508 121.5,448.5C 120.662,448.158 120.328,447.492 120.5,446.5 Z"/></g>
<g><path style="opacity:0.875" fill="#000000" d="M 121.5,448.5 C 122.833,448.5 123.5,449.167 123.5,450.5C 122.5,450.167 121.833,449.5 121.5,448.5 Z"/></g>
<g><path style="opacity:0.875" fill="#000000" d="M 133.5,448.5 C 131.489,452.03 129.655,455.697 128,459.5C 126.984,458.366 126.317,458.699 126,460.5C 125.616,458.803 125.782,457.137 126.5,455.5C 129.046,453.436 131.379,451.103 133.5,448.5 Z"/></g>
</svg>
